<svg xmlns="http://www.w3.org/2000/svg" width="2000" height="1644"><path d="M1027.975-.316c3.126.003 6.25-.02 9.377-.045 19.241-.062 38.142 2.024 56.96 6.049l3.646.772c31.235 6.832 60.553 18.156 89.042 32.54l2.806 1.41a925.708 925.708 0 017.756 3.965l2.252 1.152c7.576 3.993 14.043 9.107 20.248 14.973l1.653 1.543c1.163 1.087 2.325 2.175 3.485 3.266 2.461 2.312 4.931 4.615 7.401 6.92l3.814 3.56c3.993 3.732 8.001 7.447 12.022 11.149 5.572 5.13 11.098 10.308 16.62 15.493 4.67 4.385 9.366 8.742 14.08 13.08 4.78 4.405 9.53 8.842 14.28 13.28 3.993 3.731 8 7.445 12.02 11.147 5.572 5.13 11.098 10.308 16.62 15.493 4.67 4.385 9.366 8.742 14.08 13.08 4.78 4.405 9.53 8.842 14.28 13.28 3.993 3.731 8 7.445 12.02 11.147 5.572 5.13 11.098 10.308 16.62 15.493 4.67 4.385 9.366 8.742 14.08 13.08 4.772 4.397 9.514 8.825 14.253 13.256 4.779 4.465 9.579 8.906 14.4 13.327 2.116 1.946 4.165 3.854 6.047 6.032 2.688 2.328 3.968 2.37 7.483 2.378l3.259.05 3.546.009c2.54.05 5.08.107 7.621.171l2.017.05c28.65.802 57.658 4.361 85.237 12.216l2.169.599c33.05 9.301 65.122 28.667 89.831 52.401l1.662 1.551c14.758 13.816 26.117 29.487 35.338 47.449l.943 1.813c16.149 31.4 22.426 69.125 23.057 104.187l.078 3.52c.637 32.467.637 32.467-3.078 46.48l-.586 2.22c-4.458 16.167-12.025 30.41-23.414 42.78l-1.42 1.55c-25.766 27.774-62.2 42.485-95.807 58.4-27.967 13.257-27.967 13.257-52.484 31.972a94.274 94.274 0 01-4.887 4.133c-2.078 1.682-3.743 3.29-5.465 5.32l-1.816 2.133L1499 678l-2.59 2.93c-14.1 16.017-26.316 33.518-38.41 51.07l-1.419 2.06c-1.756 2.55-3.51 5.103-5.262 7.656-8.836 12.875-17.706 25.729-26.819 38.409l-1.533 2.141c-3.03 4.19-6.169 8.268-9.4 12.304l-2.266 2.863a357.733 357.733 0 01-4.45 5.49c-3.863 4.516-3.863 4.516-4.57 10.089L1404 816c.676 1.455 1.34 2.915 1.996 4.379l1.176 2.494c18.04 38.338 29.143 78.816 37.828 120.127l1.506-.839c10.583-5.848 20.797-10.97 32.494-14.161l2.516-.703c28.833-6.865 60.278.903 85.095 16.16 27.365 17.41 48.555 41.832 63.389 70.543l1.046 2.013c7.706 15.04 12.947 30.858 16.766 47.3l.591 2.526c3.13 14.269 4.007 28.418 3.972 42.974l-.002 2.567c-.067 22.974-3.496 44.676-10.373 66.62l-.826 2.713c-17.093 55.452-53.681 107.205-105.248 135.307-29.483 15.318-64.115 20.744-96.35 11.28-14.486-4.667-30.522-11.632-40.486-23.593-2.03-2.031-2.03-2.031-5.104-1.663-4.917-.054-9.136-1.163-13.857-2.45l-2.795-.74c-2.926-.777-5.849-1.565-8.772-2.354l-5.974-1.59c-4.865-1.294-9.727-2.6-14.588-3.91l-.188 2.073-.257 2.724-.25 2.698c-1.336 10.992-8.212 19.612-16.606 26.353-8.47 5.954-17.334 7.871-27.387 9.59l-3.717.645c-23.743 4.052-47.594 6.952-71.595 8.917l-3.472.297c-12.385.925-24.783.89-37.197.888-3.795.002-7.59.02-11.386.04-11.75.028-23.444-.139-35.164-1.05l-2.87-.21c-12.468-1.107-23.493-4.944-32.224-14.215-7.618-9.158-10.626-19.297-11.539-30.984l-.193-2.301c-.132-1.597-.261-3.193-.388-4.79-.19-2.406-.394-4.81-.598-7.214-.129-1.565-.256-3.13-.383-4.695l-.18-2.123c-.484-6.266-.406-12.293-.406-18.643h-77l-2 30c-1.371 17.53-2.986 31.638-16.188 44.25-18.87 15.789-49.264 11.99-72.375 12l-3.9.002c-21.654-.018-43.024-.785-64.537-3.252-.786-.09-1.572-.18-2.382-.271-17.141-1.972-34.23-4.349-51.243-7.229l-3.3-.537c-13.454-2.406-24.61-7.256-32.923-18.451-4.876-7.704-7.227-14.408-7.152-23.512-4.864.977-9.719 1.99-14.57 3.033-1.647.35-3.297.69-4.948 1.021-12.892 2.471-12.892 2.471-22.482 10.946-20.326 16.255-44.511 24.413-70.438 24.375l-1.99-.003c-42.098-.184-78.274-21.363-107.572-50.372l-1.823-1.785c-5.158-5.089-9.67-10.544-14.177-16.215l-2.375-2.895c-7.555-9.432-13.649-19.618-19.625-30.105l-1.329-2.304c-17.337-30.326-28.083-64.775-30.921-99.571l-.243-2.927c-.36-5.136-.538-10.155-.236-15.297.781-15.83-2.976-27.511-9.271-41.901-.915-2.174-1.826-4.35-2.733-6.526a1555.684 1555.684 0 00-5.568-13.147c-3.645-8.512-7.132-17.086-10.624-25.66-.98-2.402-1.969-4.8-2.96-7.196C425 991.012 425 991.012 425 988a473.954 473.954 0 00-15.688 14.188l-4.218 3.968-2.094 1.969c-4.448 4.17-8.937 8.295-13.423 12.423-2.695 2.481-5.386 4.967-8.077 7.452-3.225 2.978-6.451 5.955-9.68 8.93a3308.088 3308.088 0 00-17.383 16.133 2057.404 2057.404 0 01-16.488 15.238 2797.996 2797.996 0 00-21.595 19.97 7846.015 7846.015 0 01-7.54 7.036 1889.279 1889.279 0 00-3.58 3.35 1587.87 1587.87 0 01-4.922 4.593c-.931.871-1.863 1.743-2.824 2.64-2.164 1.835-3.957 2.919-6.488 4.11a438.65 438.65 0 016.59-22.402 7585.715 7585.715 0 014.348-13.535l1.151-3.58a12124.157 12124.157 0 018.826-27.308c26.154-80.659 60.27-158.525 117.541-268.387 1.693-3.056 3.372-6.12 5.052-9.183 8.251-15.004 16.827-29.769 25.618-44.462 2.286-3.834 4.545-7.682 6.804-11.532 10.855-18.484 22.067-36.757 33.815-54.688a818.092 818.092 0 003.67-5.68C517.234 629.257 530.42 609.475 544 590l1.598-2.299c7.82-11.25 15.755-22.41 23.806-33.496 1.587-2.192 3.163-4.39 4.737-6.592 7.831-10.938 15.934-21.653 24.116-32.33 2.225-2.914 4.425-5.846 6.618-8.783a1261.28 1261.28 0 0133.288-42.536 680.69 680.69 0 0010.337-13.026c4.418-5.68 9.065-11.13 13.805-16.544A367.43 367.43 0 00671.5 423.5c8.092-9.978 16.612-19.596 25.285-29.07A443.525 443.525 0 00706 384l2.51-2.663c2.79-3.368 3.415-6.323 4.01-10.68l.315-2.15c.225-1.533.44-3.066.649-4.6.568-4.156 1.209-8.3 1.848-12.446l.399-2.606c1.45-9.307 3.306-18.52 5.269-27.73l.512-2.407c2.781-13.009 5.911-25.902 9.488-38.718-1.016-.23-2.032-.461-3.078-.7-16.483-3.85-29.522-8.87-39.676-23.253-11.22-18.43-5.854-39.942-1.61-59.766.483-2.319.965-4.638 1.445-6.957 1.002-4.824 2.017-9.644 3.044-14.462a3072.101 3072.101 0 003.859-18.45c.988-4.776 1.99-9.549 2.994-14.321.476-2.267.95-4.535 1.419-6.803 4.13-19.86 8.14-35.144 25.208-47.82 14.193-8.705 29.416-7.063 44.957-3.718l3.788.766c16.857 3.543 28.92 9.89 38.65 24.484l2.02-2.422C828.56 89.215 843.912 71.747 862 58l3.488-2.746C876.126 46.974 887.377 39.814 899 33l2.19-1.285c23.228-13.422 49.42-22.17 75.622-27.527l2.887-.592c16.073-3.085 31.942-3.946 48.276-3.912zM709.562 816.75l-2.987 1.666A490.618 490.618 0 00697 824l-3.312 1.947c-14.083 8.32-27.655 17.17-40.688 27.053l-1.837 1.382C643.62 860.064 636.256 865.956 629 872l-2.997 2.477c-9.163 7.658-17.674 15.885-26.091 24.35a1809.08 1809.08 0 01-6.719 6.706c-7.519 7.513-14.696 15.04-21.193 23.467a2155.338 2155.338 0 01-4 5c3.287 1.096 3.788.972 6.879-.145l2.275-.8 2.408-.867c25.904-8.914 53.83-8.213 78.761 3.667 6.46 3.212 12.622 6.808 18.638 10.797 1.986 1.371 1.986 1.371 4.039 2.348l.926-3.328C692.652 907.449 704.92 870.338 721 834l1.305-2.96c2.214-5.022 4.444-10.035 6.695-15.04-7.738-5.033-11.793-3.768-19.438.75z" fill="#37286B"/><path d="M792 205c9.751.472 21.19 2.595 30 7-1.818 10.522-1.818 10.522-3.125 14.938-1.553 6.013-2.322 13.212.535 18.84 1.792 2.505 2.628 3.4 5.59 4.222 3.854-.14 6.39-.653 9.75-2.563 4.884-5.29 5.999-13.064 7.438-19.937l.537-2.492c.43-2.002.853-4.005 1.275-6.008 3.896-1.46 6.832-.542 10.788.447l2.041.502c2.22.549 4.438 1.11 6.655 1.672l4.624 1.148c4.053 1.006 8.103 2.023 12.152 3.043 4.135 1.039 8.271 2.067 12.408 3.096 8.113 2.02 16.224 4.052 24.332 6.092 1.302 4.232.266 7.363-.938 11.5-3.187 11.751-3.187 11.751-.66 23.27 1.406 2.328 1.406 2.328 3.598 3.23 4.658.64 7.946.734 11.875-2 4.274-6.034 5.908-13.434 7.813-20.5l.681-2.492c.547-2.002 1.09-4.005 1.631-6.008 5.108.566 9.923 1.372 14.906 2.672l4.211 1.08 2.337.6c4.934 1.255 9.882 2.455 14.827 3.664a395671.827 395671.827 0 0120.082 4.914L1014 259a325438211.779 325438211.779 0 01-1.453 8.105c-.5 2.648-1.068 5.27-1.672 7.895-1.293 6.425-2.618 14.236 1.125 20 3.71 2.473 6.7 2.774 11 2 6.121-3.696 7.888-8.551 9.58-15.32a465.682 465.682 0 001.969-9.584c.425-2.045.931-4.073 1.451-6.096 3.098-1.549 5.325-.336 8.633.512l2.029.513c2.156.548 4.31 1.105 6.463 1.663l4.191 1.068c2.838.723 5.675 1.448 8.51 2.176a2221.573 2221.573 0 0030.398 7.54c5.095 1.23 10.188 2.466 15.281 3.701 2.648.642 5.296 1.28 7.945 1.914 3.851.923 7.699 1.86 11.546 2.796l3.61.858 3.302.81 2.915.704C1143 291 1143 291 1144 293c-.345 2.044-.345 2.044-.996 4.543l-.693 2.756c-.494 1.906-.989 3.813-1.485 5.719-2.307 9.172-2.307 9.172-.514 18.295 1.567 2.903 1.567 2.903 4.688 4.687 4.75.545 6.993.523 11.25-1.688 4.392-4.213 5.327-10.618 6.75-16.312l.91-3.516c.72-2.823 1.416-5.65 2.09-8.484l5-1c-1.508 5.805-3.15 11.482-5.188 17.125-2.088 6.193-2.967 11.41-.874 17.688 4.858 5.152 12.958 6.882 19.562 9.062l2.322.768c3.211 1.06 6.424 2.115 9.643 3.148 2.371.763 4.734 1.547 7.097 2.334l2.22.695c4.948 1.673 4.948 1.673 6.245 4.11-.029 2.202-.42 3.957-1.027 6.07-1.44 15.433.35 29.048 10.004 41.691 13.684 15.826 38.155 25.175 58.836 27.024 15.625.646 29.225-4.133 40.848-14.715 10.45-11.283 14.404-27.294 19.124-41.563.728-2.173 1.456-4.347 2.186-6.52 1.537-4.58 3.069-9.16 4.598-13.743a3955.8 3955.8 0 017.478-22.1l1.255-3.682 4.873-14.292c1.122-3.29 2.241-6.582 3.36-9.873l1.014-2.97.928-2.731.807-2.37A82.663 82.663 0 001368 287c4.102-.981 7.947-1.133 12.16-1.145l2.132-.01c2.328-.01 4.657-.012 6.985-.013l4.942-.01c3.47-.006 6.939-.008 10.408-.007 3.496 0 6.991-.007 10.487-.02 27.438-.108 54.853.093 82.011 4.518l2.064.328c32.302 5.15 63.282 16.753 89.811 36.359l3.18 2.324c16.031 11.916 30.109 25.703 40.82 42.676l1.137 1.8c24.177 38.978 34.497 99.789 24.84 144.645-8.056 29.321-28.908 46.988-54.317 61.684-12.713 7.158-25.838 13.245-39.139 19.203-35.179 15.634-35.179 15.634-66.521 37.668l-2.371 2.04c-10.796 9.5-20.793 19.606-29.629 30.96a7872.584 7872.584 0 01-3.207 4.055c-12.307 15.616-23.736 31.767-34.895 48.218-5.947 8.757-12.006 17.436-18.071 26.111a2573.451 2573.451 0 00-4.94 7.104C1394.01 772.552 1381.312 789.032 1368 805l-1.498 1.798c-7.841 9.373-16.06 18.368-24.502 27.202l-2.723 2.852c-5.732 5.869-11.794 11.124-18.277 16.148l-1.643 1.285C1300.269 869.114 1278.88 881.137 1255 886l-1.856.5c-24.246 6.223-50.305.708-71.581-11.563-6.53-3.912-11.925-8.604-17.368-13.89-3.171-3.076-6.532-5.87-9.945-8.672-32.77-27.35-48.766-72.075-52.542-113.588-6.075-77.343 18.66-150.205 51.138-219.245 1.126-2.481 2.142-5.012 3.154-7.542l-24-12c-4.039 5.385-6.613 11.292-9.437 17.375l-.934 2.004C1108.25 548.19 1096.113 578.26 1088 609l-.897 3.34c-5.175 19.389-9.434 38.75-12.103 58.66l-.282 2.045c-1.935 14.381-1.954 28.653-1.843 43.143.01 2.322.02 4.644.027 6.966.02 5.616.06 11.23.098 16.846h-24l-.75-9.938c-2.845-32.87-16.85-60.922-39.74-84.5a376.894 376.894 0 01-4.342-4.585C989.48 625.517 971.28 613.004 952 604l-.836 2.672c-1.062 3.036-2.298 5.736-3.789 8.578-1.82 3.216-1.82 3.216-2.375 6.75l9 5c-1.603 5.301-5.031 9.128-8.437 13.375a3040.119 3040.119 0 00-3.817 4.84l-1.918 2.437c-2.633 3.382-5.18 6.822-7.703 10.285l-1.361 1.863a550.122 550.122 0 00-5.834 8.153c-5.106 7.235-10.79 13.68-16.93 20.047l-1.601 1.692c-4.275 4.419-8.835 8.118-13.836 11.683l-2.384 1.702C864.44 721.176 835.647 730.179 805 736l-2.742.544c-6.733 1.299-13.423 2.067-20.258 2.581l-3.385.255c-12.543.863-25.05.873-37.615.62l-2.678-.042c-29.785-.566-59.28-5.665-88.322-11.958l-3.283-.71C626.485 722.804 606.753 716.214 587 710a4492.06 4492.06 0 005.234 5.266l1.482 1.494c3.362 3.373 6.837 6.541 10.456 9.63 1.857 1.636 3.594 3.345 5.328 5.11 2.946 2.992 6.03 5.753 9.21 8.492 2.225 1.951 4.4 3.949 6.57 5.961A320.731 320.731 0 00644 762l1.832 1.478C659.026 774.112 672.908 783.613 687 793c-2.894 2.223-5.845 4.103-9.022 5.903-28.925 16.442-55.904 36.43-80.466 58.831a186.226 186.226 0 01-4.142 3.651c-6.05 5.165-11.66 10.753-17.27 16.385-1.66 1.664-3.324 3.323-4.989 4.982-5.58 5.577-11.018 11.218-16.111 17.248-.973 1.118-1.947 2.236-2.922 3.352-6.46 7.457-12.701 15.049-18.711 22.874a753.12 753.12 0 01-4.02 5.157c-21.394 27.604-39.05 57.81-55.347 88.617h-2c-11.786-28.619-23.425-57.295-35-86-3.216 1.526-5.288 3.098-7.75 5.688-2.68 2.754-5.396 5.371-8.312 7.875-3.177 2.73-6.13 5.604-9.062 8.593-1.814 1.783-3.682 3.451-5.61 5.11-4.1 3.565-8.068 7.252-12.016 10.984A1782.074 1782.074 0 01374 991a12780.935 12780.935 0 00-9.797 8.98L362 1002c-1-2-1-2-.294-4.429l1.18-3.09 1.326-3.492c.491-1.267.983-2.535 1.476-3.802l1.516-3.944c22.288-57.74 48.104-115.332 78.02-169.538a976.487 976.487 0 008.596-15.908c7.809-14.784 15.863-29.352 24.384-43.742 1.94-3.3 3.853-6.614 5.757-9.934l1.008-1.757c1.601-2.79 3.2-5.581 4.795-8.375C500.935 714.532 500.935 714.532 504 713a91.498 91.498 0 017.188 2.688l2.258.944c18.923 8.126 36.572 18.642 53.814 29.835l2.138 1.373 1.877 1.218c2.792 1.525 4.647 1.626 7.725.942 3.323-2.456 4.776-3.926 5.625-8-1.265-6.07-7.187-9.326-12.125-12.563l-1.958-1.287C552.445 716.42 533.105 705.862 513 698c1.262-3.35 2.693-6.34 4.582-9.379l1.558-2.515 1.673-2.668 1.72-2.765c6.028-9.64 12.225-19.17 18.467-28.673 6.148 1.163 11.682 2.85 17.375 5.438l2.326 1.05c21.367 9.886 41.065 23.477 58.924 38.758 4.546 3.836 4.546 3.836 10.25 5.254 3.145-.416 3.145-.416 6.125-1.5 1.258-3.773 1.874-7.107 1-11-3.906-5.16-9.493-9.185-14.625-13.063l-2.195-1.665C599.228 659.578 577.378 646.568 553 637c.636-3.368 1.903-5.658 3.809-8.492l1.751-2.619 1.878-2.764 1.9-2.825A756.38 756.38 0 01578 598c28.264 12.973 54.749 28.562 78.563 48.688 3.916 3.147 6.353 4.71 11.437 4.312 3.088-1.254 3.088-1.254 5-4 .517-3.256.747-4.932 0-8-1.933-2.687-1.933-2.687-5-5l-1.703-1.625C644.214 611.509 615.914 597.537 589 584c1.238-3.37 2.613-6.108 4.766-8.977l1.676-2.252 1.808-2.396 3.824-5.125 1.978-2.64c2.445-3.276 4.861-6.572 7.276-9.869 6.619-9.03 13.364-17.955 20.196-26.824 1.378-1.79 2.752-3.581 4.124-5.374a1839.994 1839.994 0 0115.579-20.02c1.814-2.301 3.621-4.609 5.421-6.921 6.776-8.692 13.75-17.207 20.777-25.695 2.1-2.543 4.181-5.1 6.263-7.657 7.936-9.708 16.115-19.215 24.289-28.723a970.233 970.233 0 005.921-6.96c6.134-7.257 12.473-14.27 19.027-21.15l1.825-1.92 1.61-1.683L737 398l2.126-2.316c2.207-3.161 2.626-5.316 3.112-9.125l.535-3.9.264-2.079c.478-3.721 1.019-7.433 1.557-11.146l.338-2.35C752.924 312.371 766.779 254.485 792 205z" fill="#B1CA37"/><path d="M1078 771l.791 2.652c7.22 24.197 7.22 24.197 17.209 47.348l.927 1.91c18.33 37.706 54.284 72.882 94.073 87.09 39.45 12.424 77.953 5.244 114.23-12.902 13.581-7.088 26.236-16.038 37.77-26.098 1.125-.945 2.251-1.887 3.379-2.828 10.34-8.67 19.902-17.848 28.621-28.172 1.145-1.334 2.291-2.667 3.438-4l2.562-3c2.27 2.826 3.805 5.526 5.2 8.867l1.213 2.899 1.274 3.109 1.336 3.242c10.09 24.715 17.668 49.716 23.727 75.696l.578 2.457A599.939 599.939 0 011418 946l.532 2.604c.514 2.587.991 5.179 1.456 7.775l.475 2.391c.628 3.736.767 5.793-1.02 9.19-2.005 2.165-2.005 2.165-4.572 4.415-3.549 3.245-6.138 6.814-8.871 10.75l-1.546 2.213c-5.007 7.282-9.33 14.854-13.454 22.662l-1.014 1.867c-23.165 42.729-32.021 94.986-32.19 143.192l-.016 3.956c-.01 2.749-.017 5.498-.02 8.246-.005 2.769-.018 5.536-.041 8.304-.135 16.695.328 32.962 3.281 49.435l.455 2.572c1.984 11.09 5.051 21.47 8.96 32.037 1.387 3.758 2.54 7.524 3.585 11.391-5.8-.626-11.338-1.674-17-3.063l-2.348-.564c-1.885-.454-3.768-.913-5.652-1.373l-.06-3.61c-1.382-80.422-12.462-161.106-41.19-236.703l-1.212-3.214c-3.53-10.108-3.53-10.108-10.557-17.662-3.615-1.48-7.161-1.478-10.981-.811-3.07 1.714-5.405 3.809-7 7-.566 7.403.968 12.441 3.875 19.188 27.983 68.504 41.78 146.003 41.125 219.812l-1.77-.48c-9.821-2.287-19.993-1.382-28.664 3.738L1290 1253l-2.16 1.43c-6.926 5.314-11.26 13.278-15.84 20.57l-2.938-2.625c-9.868-8.4-18.594-13.088-31.789-12.719-11.363 1.194-19.994 7.05-27.085 15.782-2.944 3.983-5.14 8.058-7.188 12.562-2.45-2.428-4.874-4.864-7.219-7.395-11.104-11.769-24.43-19.528-40.843-20.105-10.805.36-19.416 4.017-27.938 10.5l-3 2.25c-2.082 1.6-2.082 1.6-3 3.75h-2l-.152-2.693c-.239-4.206-.48-8.413-.723-12.62l-.135-2.335c-.514-8.862-1.058-17.718-1.768-26.567-2.015-25.922-2.458-51.858-2.472-77.848l-.003-2.24c-.022-20.835.34-41.584 1.628-62.384l.191-3.101c.791-12.45 1.952-24.827 3.434-37.212 3.493-18.092 3.493-18.092.125-34.77-3.114-3.268-5.645-4.041-10.063-4.605-3.984.488-5.977 1.839-9.062 4.375-2.668 3.73-3.517 6.774-4.063 11.3l-.47 3.842c-.157 1.39-.313 2.78-.467 4.17l-.25 2.155c-2.095 18.01-3.463 36.098-4.602 54.191-.096 1.52-.196 3.04-.299 4.56-1.124 16.735-1.006 33.491-.978 50.254.004 2.422.006 4.843.007 7.265.014 26.436.405 52.834 1.122 79.263l-74 1 1-25c.097-7.443.165-14.881.168-22.324l.01-6.144c.006-4.258.008-8.516.007-12.773 0-4.275.007-8.549.02-12.823.107-33.797-.547-67.437-3.955-101.088-.26-2.572-.506-5.145-.75-7.72-.75-16.353-.75-16.353-6.5-31.128-4.322-3.087-7.783-3.417-12.879-2.652-3.315 1.02-5.03 2.972-7.121 5.652-2.704 5.408-.872 13.42-.195 19.277l.516 4.702.275 2.45c.476 4.278.93 8.557 1.384 12.837l.273 2.567a636.432 636.432 0 013.282 49.308l.064 2.283c.472 17.045.642 34.087.651 51.139l.003 2.302c.023 22.498-.417 44.917-1.628 67.385l-.191 3.568c-.777 14.103-1.895 28.142-3.434 42.182l-1.427-1.242-1.888-1.632-1.865-1.617c-9.798-8.123-20.807-12.199-33.457-11.857-15.906 1.645-28.632 9.995-39.363 21.348-.763 1.1-1.505 2.214-2.223 3.344L905 1288h-2l-.777-1.836c-4.956-10.845-12.42-19.488-23.524-24.125-10.076-3.503-19.19-3.065-28.86 1.395-5.446 3.004-10.365 6.356-13.839 11.566-3.707-1.236-3.883-2.15-5.687-5.5-6.395-10.998-14.775-19.13-27.313-22.5-3.719-.278-3.719-.278-7.562-.188l-3.88.02c-3 .142-5.637.54-8.558 1.168-.03-3.52-.047-7.042-.062-10.563l-.026-3.001c-.017-5.27.265-10.221 1.088-15.436.34-3.746.6-7.499.875-11.25 2.622-33.665 7.6-66.603 15.355-99.442a519.96 519.96 0 002.377-10.842c2.017-9.535 4.784-18.79 7.671-28.093a271.433 271.433 0 001.902-6.572c3.845-13.822 8.595-27.605 14.562-40.66 1.902-4.748 2.112-9.112 1.258-14.141-2.202-2.897-3.786-4.393-7-6-2.006-.274-2.006-.274-4.25-.313l-2.266-.113c-3.651.626-6.018 1.704-8.484 4.426-2.246 4.12-3.896 8.43-5.562 12.813l-1.456 3.708c-3.272 8.41-6.377 16.837-8.982 25.479l-.583 1.906a713.478 713.478 0 00-3.758 12.783c-.44 1.545-.885 3.088-1.334 4.63-9.05 31.168-15.695 63.32-20.026 95.473-.416 3.072-.857 6.14-1.299 9.208h-1l-.044-2.126c-.387-16.864-1.473-33.476-3.515-50.223-.458-3.794-.887-7.591-1.316-11.39-5.145-44.177-17.894-101.172-51.477-133.527-3.905-6.478-.081-15.907 1.571-22.804l.969-3.867.51-2.043c7.865-31.126 18.394-61.633 31.302-91.02l.88-2.009c2.048-4.658 4.135-9.298 6.245-13.929l.837-1.856a538.715 538.715 0 012.358-5.108l1.352-2.922C753 827 753 827 756 826c2.223.45 2.223.45 4.848 1.258l2.986.89 3.229.977c9.244 2.698 18.474 4.96 27.937 6.75l3.23.614c9.294 1.706 18.348 2.668 27.797 2.75l2.844.029c20.11.166 39.39-.034 59.129-4.268 1.82-.345 3.64-.688 5.46-1.027 44.817-8.806 87.618-31.906 122.692-60.743C1018 772 1018 772 1021 772c-.875 4.75-.875 4.75-2 7l1.582.516c6.186 2.036 12.307 4.234 18.418 6.484l.367-1.793.508-2.394.492-2.356c.67-2.598 1.618-4.977 2.633-7.457a51301.977 51301.977 0 0124.707-.781l2.074-.067c2.742-.085 5.476-.152 8.219-.152z" fill="#B1CA37"/><path d="M1380.16 285.855l2.132-.01c2.328-.01 4.657-.012 6.985-.013l4.942-.01c3.47-.006 6.939-.008 10.408-.007 3.496 0 6.991-.007 10.487-.02 27.438-.108 54.853.093 82.011 4.517l2.064.329c32.302 5.15 63.282 16.753 89.811 36.359l3.18 2.324c16.031 11.916 30.109 25.703 40.82 42.676l1.137 1.8c24.177 38.978 34.497 99.789 24.84 144.645-8.056 29.321-28.908 46.988-54.317 61.684-12.713 7.158-25.838 13.245-39.139 19.203-35.179 15.634-35.179 15.634-66.521 37.668l-2.371 2.04c-10.796 9.5-20.793 19.606-29.629 30.96a7872.584 7872.584 0 01-3.207 4.055c-12.307 15.616-23.736 31.767-34.895 48.218-5.947 8.757-12.006 17.436-18.071 26.111a2573.451 2573.451 0 00-4.94 7.104C1394.01 772.552 1381.312 789.032 1368 805l-1.498 1.798c-7.841 9.373-16.06 18.368-24.502 27.202l-2.723 2.852c-5.732 5.869-11.794 11.124-18.277 16.148l-1.643 1.285C1300.269 869.114 1278.88 881.137 1255 886l-1.856.5c-21.711 5.573-47.371 1.973-66.828-9.016-2.878-1.844-4.951-4.01-7.316-6.484l-1.742-1.645c-15.38-14.67-26.187-33.449-33.258-53.355l-.894-2.504c-2.353-6.752-4.332-13.57-6.106-20.496l-.792-3.089c-4.35-18.07-4.657-35.978-4.646-54.474v-3.487c.037-18.282.545-36.684 4.313-54.638l.524-2.611A919.58 919.58 0 011138 667l.477-2.298A552.283 552.283 0 011142 649l.632-2.647c11.997-49.548 33.83-95.445 69.368-132.353l1.52-1.587c33.355-34.642 83.355-61.826 132.204-63.507 2.968-.04 5.933-.045 8.901-.031l3.215.015c40.27.306 77.819 13.747 109.16 39.11-14.837-24.228-36.884-43.142-62-56l-1.87-.964c-15.316-7.79-31.132-12.65-48.13-15.036l-3.648-.54c-5.924-.723-11.893-.823-17.852-1.023l-3.648-.13c-2.95-.106-5.901-.208-8.852-.307 1.38-2.833 2.886-5.272 4.75-7.813 7.223-10.77 10.738-24.247 14.75-36.5.51-1.545 1.02-3.091 1.532-4.636 1.087-3.287 2.171-6.575 3.255-9.863 2.688-8.15 5.41-16.29 8.127-24.432l4.262-12.783 1.627-4.883.827-2.48L1368 287c4.102-.981 7.947-1.133 12.16-1.145zM629 984h2l.664 1.906c3.803 10.265 9.94 19.284 19.906 24.418 9.074 3.684 17.731 3.837 27.004.73 5.472-2.378 10.32-5.73 14.426-10.054 3.549 1.183 3.797 1.85 5.602 4.988l1.471 2.548 1.552 2.777 1.614 2.874c21.328 38.547 29.416 81.256 32.761 124.813l.175 2.11c3.79 46.665 1.808 99.499-28.175 137.89-8.224 9.624-18.588 15.787-30 21l-2.117.969c-10.077 4.181-21.136 4.373-31.883 4.343l-3.578.05c-7.913.004-14.853-1.094-22.422-3.362l-2.068-.57c-19.993-5.595-37.454-17.007-52.471-31.121-2.186-2.051-4.422-4-6.711-5.934-14.435-12.578-25.327-29.905-34.75-46.375l-1.202-2.076C507.353 1192.5 498.28 1165.647 494 1139l-.617-3.516c-2.011-13.167-4.226-30.597-.383-43.484l1.677.063c12.874.424 22.71.7 33.136-7.688 5.668-5.357 9.725-12.53 10.348-20.415.046-2.362.08-4.722.089-7.085l.012-2.578c-.051-5.533-.62-10.301-2.703-15.485C535 1037 535 1037 536 1034l1.693.063c2.581.085 5.162.136 7.745.187l2.662.102c6.527.096 11.177-1.26 16.9-4.352l3.188-1.688c10.683-8.783 13.159-22.166 14.515-35.199L583 990c4.869 1.944 4.869 1.944 7 2.852 8.266 3.196 17.105 3.573 25.438.398 4.567-2.099 8.731-4.42 12.312-8L629 984zM1488 984l1.688 1.172c10.62 7.247 19.188 11.096 32.312 9.828 3.386-1.075 6.473-2.367 9.672-3.906C1534 990 1534 990 1536 990l.262 3.516c1.03 12.071 2.736 23.704 11.644 32.726 11.096 9.316 22.265 8.478 36.094 7.758-.23.706-.461 1.411-.7 2.138-3.974 12.656-4.833 28.543 1.29 40.55L1586 1079l1.129 1.875c4.262 5.94 11.986 9.333 18.871 11.125 3.297.228 6.572.19 9.875.125l2.664-.027A929.64 929.64 0 001625 1092c11.67 35.012-7.66 85.85-23.063 116.813-17.73 34.576-44.085 66.111-78.937 84.187l-1.87.991c-4.85 2.517-9.754 4.43-14.943 6.134l-2.212.762c-21.718 7.22-46.724 7.007-67.569-2.532-6.708-3.407-12.759-7.388-18.406-12.355-.737-.643-1.475-1.286-2.234-1.95-6.623-6.176-11.239-13.286-15.766-21.05l-1.652-2.793c-12.048-22.146-16.479-49.722-16.516-74.71l-.013-2.646c-.01-2.805-.01-5.609-.007-8.414v-2.907c.013-14.049.407-27.922 1.91-41.901.28-2.645.52-5.292.75-7.941A337.286 337.286 0 011389 1089l.43-2.307c5.32-28.141 15.3-54.499 29.82-79.193l1.89-3.219L1423 1002c4.298 0 4.45.004 7.25 2.75 7.608 6.921 15.275 8.629 25.363 8.527 8.203-.671 15.516-4.577 21.387-10.277 4.821-5.788 8.277-11.997 11-19zM1011 33c-2.137 8.292-4.727 16.377-7.5 24.477-.437 1.285-.875 2.571-1.311 3.857-.92 2.706-1.842 5.412-2.765 8.116-1.432 4.198-2.86 8.397-4.286 12.596l-.714 2.1a264270.972 264270.972 0 00-3.526 10.378 6266.74 6266.74 0 00-10.02 29.665c-.458 1.366-.916 2.732-1.376 4.097a2324.05 2324.05 0 00-1.834 5.48l-.991 2.962c-.772 2.196-.772 2.196-.677 4.272 13.08-7.2 26.131-14.428 39-22 9.546-5.616 19.194-11.023 28.892-16.37 8.83-4.884 17.562-9.923 26.245-15.064 5.202-3.069 10.423-5.939 15.863-8.566-1.41 6.929-3.367 13.514-5.624 20.211l-1.094 3.285c-1.186 3.556-2.379 7.11-3.571 10.664l-2.48 7.428c-1.948 5.833-3.9 11.666-5.854 17.498-2.226 6.644-4.447 13.29-6.668 19.937-4.564 13.66-9.134 27.32-13.709 40.977 3.009-1.003 5.445-2.276 8.215-3.816l3.224-1.791 3.498-1.956 3.645-2.031c15.16-8.462 30.216-17.108 45.262-25.77a8160.26 8160.26 0 017.732-4.441c1.82-1.046 3.636-2.095 5.453-3.144l3.342-1.918 2.935-1.691c2.521-1.35 5.034-2.404 7.694-3.442-2.623 10.526-6.161 20.756-9.602 31.035l-1.93 5.79c-1.341 4.023-2.685 8.044-4.03 12.065-1.725 5.161-3.447 10.323-5.168 15.485a23839.425 23839.425 0 01-5.885 17.638c-.884 2.65-1.77 5.299-2.657 7.948l-.797 2.391c-1.817 5.419-1.817 5.419-2.931 7.648l2.174-1.247a16616.994 16616.994 0 0112.175-6.972 2665.048 2665.048 0 0126.401-14.906c9.134-5.091 18.184-10.312 27.2-15.608 8.437-4.942 16.953-9.732 25.503-14.474l2.945-1.637 2.828-1.57c3.666-2.096 7.24-4.33 10.8-6.6L1217 185l2 1a1175.803 1175.803 0 01-5.115 16.016 473.788 473.788 0 00-1.727 5.447 462.37 462.37 0 01-2.533 7.834l-.737 2.456c-1.9 5.567-1.9 5.567-4.756 7.534-2.109 1.007-2.109 1.007-4.119 1.753-3.403 1.623-5.475 3.84-7.101 7.225l-.835 2.504-.97 2.85-.998 3.053-1.059 3.144c-1.11 3.308-2.206 6.62-3.3 9.934a7295.16 7295.16 0 01-2.258 6.738c-1.843 5.5-3.673 11.004-5.492 16.512-1.666.043-3.334.04-5 0l-1-1c.298-5.768 1.495-11.02 3.062-16.563 2.791-9.583 2.791-9.583.063-18.875-2.812-3.39-3.433-3.493-7.875-3.937-3.662.1-6.213.82-8.945 3.457-3.01 4.425-4.002 9.796-5.305 14.918-.375 1.395-.753 2.79-1.133 4.184-.977 3.6-1.928 7.206-2.867 10.816-6.597-.659-12.827-2.084-19.242-3.73l-3.277-.827c-3.453-.873-6.905-1.751-10.356-2.63a8986.296 8986.296 0 00-13.492-3.418l-3.388-.857c-9.076-2.278-18.183-4.409-27.314-6.455-10.097-2.281-20.017-5.115-29.931-8.083.54-4.39 1.338-8.521 2.512-12.797 3.301-11.055 3.301-11.055 1.675-22.14-1.663-2.496-3.42-3.885-6.347-4.563-3.704-.198-6.282.24-9.653 1.813-6.784 8.335-8.44 21.452-11.187 31.687-8.705-1.388-17.203-3.476-25.735-5.656a3401.978 3401.978 0 00-11.91-3.012l-2.398-.603C968.01 227.987 957.01 225.474 946 223c1.033-5.909 2.125-11.751 3.625-17.563 2.419-10.04 2.419-10.04-.5-19.5-3.288-2.997-5.63-3.308-10.098-3.195-3.51.447-4.758 1.548-7.027 4.258-4.296 8.656-5.933 18.62-8 28-4.402 1.256-7.498.656-11.902-.447l-2.041-.502c-2.216-.547-4.427-1.11-6.639-1.672a3310.112 3310.112 0 01-16.747-4.19c-4.127-1.04-8.258-2.068-12.388-3.097A9318.892 9318.892 0 01850 199c.589-4.37 1.344-8.54 2.512-12.797 3.318-11.05 3.318-11.05 1.652-22.105-1.443-2.306-2.713-3.872-5.164-5.098-4.418-.51-6.45-.349-10.25 2.063-5.114 4.266-6.39 11.866-7.813 18.062-1.03 4.428-2.107 8.695-3.937 12.875-8.599-.614-16.695-2.81-25-5 .572-3.536 1.466-6.233 3.23-9.344l1.413-2.496 1.544-2.66 1.607-2.785C831.046 133.358 868.596 78.135 911 64l-.586 2.125-.789 2.875-.773 2.813c-.994 3.719-1.926 7.45-2.852 11.187 14.395-8.033 28.76-16.115 43.06-24.316 3.37-1.93 6.745-3.854 10.12-5.778a89982.816 89982.816 0 009.302-5.302c6.52-3.713 13.004-7.455 19.371-11.425 7.177-3.941 15.198-3.38 23.147-3.179z" fill="#B1CA37"/><path d="M211.617 1382.823l2.633-.02c2.875-.02 5.75-.031 8.625-.041l2.986-.013c5.22-.02 10.44-.035 15.661-.044 5.368-.011 10.737-.046 16.105-.085 4.147-.027 8.294-.035 12.442-.038 1.977-.005 3.954-.017 5.932-.035 10.657-.095 20.1-.057 29.999 4.453l2.36 1.049c13.712 6.473 24.615 19.726 35.088 30.384l2.743 2.786 2.444 2.498c2.346 2.264 4.818 4.252 7.365 6.283 11.538 13.837 15.533 26.75 15.391 44.476-.016 2.388 0 4.773.02 7.16.023 16.875-3.288 30.565-15.141 43.106-4.735 4.71-9.634 8.684-15.27 12.258l1.906 1.469A406.716 406.716 0 01351 1545l2.164 1.75c4.503 4.019 7.386 8.514 10.149 13.812l.986 1.836c5.458 11.149 6.205 23.66 6.092 35.856-.016 2.076 0 4.15.02 6.225.019 11.617-1.417 20.763-9.411 29.521-6.834 6.682-13.412 9.39-22.938 9.5-9.54-.154-15.947-2.19-22.937-8.75-5.762-6.17-9.343-12.7-9.055-21.273.732-15.006.732-15.006-5.945-27.727a131.47 131.47 0 00-4.593-4.292c-2.657-2.53-4.77-5.47-6.97-8.396-4.193-5.422-8.588-10.636-13.081-15.812-3.928-4.547-7.643-9.23-11.321-13.98-4.72-6.058-9.727-11.858-14.779-17.64-1.84-2.172-3.605-4.404-5.381-6.63l-.018 3.698c-.057 11.52-.13 23.04-.218 34.56-.044 5.922-.084 11.844-.11 17.766-.027 5.719-.067 11.437-.117 17.156-.017 2.178-.028 4.356-.035 6.534-.01 3.06-.037 6.117-.07 9.176l.005 2.708c-.153 10.274-3.073 16.834-10.164 24.234-7.168 6.836-14.406 8.584-24.158 8.532-9.175-.237-15.728-3.18-22.361-9.438-6.634-7.284-9.06-14.743-9.021-24.553l-.014-2.592c-.013-2.86-.011-5.72-.01-8.58a5688.984 5688.984 0 01-.044-22.884c0-3.486-.005-6.97-.01-10.455-.019-12.162-.027-24.325-.026-36.487.002-11.328-.02-22.655-.051-33.983-.026-9.733-.037-19.465-.036-29.198 0-5.81-.005-11.62-.026-17.429-.02-5.467-.02-10.933-.005-16.4.002-2.001-.003-4.003-.015-6.005-.081-14.4.768-24.354 11.125-35.223 6.888-6.187 14.046-7.285 22.996-7.314zM243 1448v62h63v-62h-63zM1241.625 1384.438c7.82 4.624 13.606 10.991 16.7 19.59 1.414 6.224 1.517 12.61 1.675 18.972l1.434-3.148c7.077-15.104 16.75-27.133 32.492-33.786 18.641-6.466 39.341-5.674 57.332 2.493 14.415 7.577 24.738 18.787 29.865 34.34 3.17 11.208 3.168 22.773 3.136 34.32l.01 5.042c.01 4.52.006 9.04 0 13.561-.005 4.752 0 9.504.002 14.256.004 7.971 0 15.943-.01 23.915-.011 9.197-.008 18.393.003 27.59.01 7.924.01 15.848.006 23.772-.004 4.72-.004 9.441.003 14.162.005 4.436.001 8.871-.01 13.307-.003 1.621-.002 3.243.002 4.864.034 13.398-.329 26.27-9.644 36.863-9.292 8.307-18.703 9.155-30.626 8.624-7.762-.68-13.85-5.636-18.995-11.175-5.023-6.592-7.253-12.824-7.24-21.175l-.006-2.12c-.003-2.33.008-4.66.019-6.992v-5.027c-.002-4.54.01-9.081.024-13.622.013-4.749.014-9.497.016-14.246.006-8.988.023-17.977.043-26.965.022-10.235.033-20.47.043-30.704.021-21.05.058-42.1.101-63.149h-59l.063 15.447c.067 16.843.111 33.687.144 50.53.02 10.213.049 20.425.095 30.637.04 8.903.065 17.806.074 26.71.006 4.712.018 9.423.047 14.135.027 4.44.035 8.881.03 13.322 0 1.624.008 3.249.024 4.873.107 11.925-1.047 21.578-9.551 30.592-8.283 7.544-17.009 9.35-27.946 9.059-9.611-.736-16.7-5.047-22.98-12.305-4.667-7.418-6.15-13.63-6.14-22.31l-.01-2.563c-.008-2.839-.01-5.677-.011-8.516l-.015-6.101c-.013-5.53-.02-11.058-.024-16.588l-.012-10.366a35741.94 35741.94 0 01-.027-32.443c-.004-12.478-.022-24.955-.05-37.433-.023-9.648-.033-19.295-.034-28.943-.001-5.76-.007-11.52-.025-17.281-.016-5.422-.018-10.844-.01-16.267.001-1.985-.003-3.971-.013-5.957-.113-24.07-.113-24.07 8.34-34.189 10.685-10.746 26.7-14.04 40.656-7.606zM642.086 1384.75L644 1386l2.102 1.25c6.866 4.526 11.251 11.207 13.21 19.188.913 5.141 1.318 10.357 1.688 15.562l1.398-3.113c7.196-15.506 16.657-26.827 33.04-33.23 5.773-1.872 11.488-3.397 17.562-3.657l3.035-.156c17.502-.474 32.82 3.606 46.965 14.156l2.09 1.55c11.101 8.929 17.034 22.571 18.91 36.45.295 5.895.284 11.782.275 17.684l.015 5.335c.013 4.805.014 9.611.012 14.417-.001 4.02.003 8.041.008 12.062.011 9.489.012 18.977.006 28.466-.006 9.771.006 19.543.027 29.314.018 8.408.024 16.816.02 25.224-.001 5.013.001 10.027.015 15.04.013 4.715.01 9.43-.002 14.145-.002 1.724 0 3.449.009 5.173.055 12.526-.287 23.611-9.385 33.14-7.038 6.308-13.865 9.573-23.313 9.438l-2.263-.026c-8.99-.273-15.988-3.02-22.6-9.217-6.455-7.768-8.952-16.232-8.944-26.136l-.003-2.08c-.001-2.292.004-4.584.01-6.877l-.001-4.938c0-4.464.006-8.929.013-13.393.006-4.667.006-9.334.008-14.002.003-8.836.01-17.672.021-26.508.011-10.06.017-20.12.022-30.181.01-20.693.028-41.387.05-62.08h-58a48999.04 48999.04 0 01.104 64.465c.01 9.978.024 19.955.047 29.933.02 8.699.033 17.397.037 26.096.003 4.604.009 9.208.023 13.812.014 4.338.018 8.676.015 13.013 0 1.588.005 3.176.012 4.764.057 12.348-.398 22.804-8.238 32.917-7.714 7.6-14.719 10.262-25.437 10.438-9.891-.077-16.398-2.658-23.704-9.438-6.965-7.493-9.008-13.43-9.006-23.507l-.011-2.627c-.011-2.91-.015-5.82-.019-8.73l-.02-6.253c-.021-6.85-.031-13.7-.041-20.551l-.013-7.076c-.019-11.08-.033-22.161-.041-33.242-.01-12.79-.036-25.578-.077-38.367-.03-9.886-.045-19.772-.048-29.659-.002-5.904-.011-11.808-.036-17.712-.024-5.556-.028-11.112-.018-16.668 0-2.036-.006-4.072-.02-6.108-.017-2.786-.01-5.572.003-8.358l-.033-2.424c.1-8.793 3.75-15.587 9.662-21.929 9.906-9.532 26.435-12.994 38.945-6.039z" fill="#9EB81E"/><path d="M1653 1386c7.921 5.407 11.948 11.722 14 21 .09 2.853.126 5.68.114 8.532v2.603c0 2.835-.009 5.67-.016 8.506l-.005 5.901c-.003 5.176-.013 10.35-.024 15.526-.012 6.21-.017 12.422-.023 18.633-.01 9.433-.029 18.866-.046 28.299h60l-.105-18.68c-.016-3.919-.03-7.838-.041-11.757-.018-6.213-.04-12.426-.08-18.638-.033-5.012-.05-10.024-.059-15.036a1014.24 1014.24 0 00-.032-5.72c-.202-24.603-.202-24.603 9.77-34.966 9.381-8.115 19.62-9.028 31.547-8.203 8.267 1.628 14.487 5.673 20 12 4.35 6.653 5.149 12.694 5.14 20.545l.01 2.639c.008 2.924.01 5.848.011 8.772l.015 6.283c.013 5.694.02 11.389.024 17.083l.012 10.674c.013 11.133.023 22.266.027 33.4.004 12.849.022 25.698.05 38.548.023 9.933.033 19.866.034 29.799.001 5.932.007 11.864.025 17.796.016 5.582.018 11.164.01 16.746-.001 2.046.003 4.092.013 6.138.013 2.8.007 5.598-.004 8.397l.025 2.436c-.08 9.219-2.804 16.048-9.134 22.728-9.279 8.284-19.216 8.688-31.117 8.19-8.115-.662-14.935-5.066-20.141-11.174-3.992-6.356-6.099-12.29-6.158-19.815l-.03-2.851-.017-3.091-.03-3.283c-.032-3.577-.057-7.153-.081-10.73l-.063-7.444c-.056-6.528-.105-13.056-.153-19.585-.05-6.663-.106-13.325-.161-19.988-.108-13.071-.21-26.142-.307-39.213l-1.62 1.636-2.15 2.16-2.12 2.137c-2.504 2.453-5.121 4.736-7.778 7.02-2.995 2.629-5.912 5.336-8.832 8.047-4.083 3.787-8.198 7.518-12.41 11.16-3.262 2.872-6.448 5.827-9.644 8.771a491.986 491.986 0 01-11.02 9.827A48.103 48.103 0 001668 1560a99.35 99.35 0 00-.142 5.355l-.021 3.472-.013 3.79c-.017 1.96-.034 3.92-.053 5.879-.045 4.84-.083 9.68-.097 14.522-.008 2.707-.027 5.415-.057 8.123a610.66 610.66 0 00-.037 7.643c-.148 10.554-2.126 19.67-9.58 27.493-9.358 8.061-19.114 8.397-30.907 7.902-4.302-.368-7.549-1.801-11.093-4.179l-2.168-1.39c-6.866-4.753-10.093-10.034-12.199-18.043-1.386-7.805-1.039-15.772-1.005-23.675-.003-2.026-.006-4.053-.011-6.08-.01-5.476 0-10.953.013-16.43.011-5.744.007-11.488.005-17.232 0-9.642.01-19.284.029-28.925.021-11.136.024-22.27.018-33.406a20422 20422 0 01.011-32.192c.005-4.559.006-9.117.004-13.676-.002-5.37.006-10.74.022-16.11.004-1.966.005-3.933.002-5.9-.003-2.691.006-5.383.018-8.074l-.011-2.339c.08-9.973 2.264-17.951 8.99-25.442 11.416-10.995 29.467-12.737 43.282-5.086z" fill="#37276B"/><path d="M1055.603 1382.853l2.71-.022 2.934-.008 3.121-.02a3580.4 3580.4 0 0110.21-.041l3.53-.013c6.163-.02 12.327-.035 18.49-.044 6.356-.011 12.712-.046 19.069-.085 4.897-.027 9.793-.035 14.69-.038 2.343-.005 4.686-.017 7.028-.035 3.284-.025 6.567-.024 9.85-.017l2.91-.039c9.581.074 17.99 3.774 24.855 10.509 6.028 7.726 8.349 15.65 8 25.375-1.22 9.808-5.994 17.506-13.363 23.906L1167 1444l-1.534 1.03c-8.318 4.613-17.953 3.466-27.157 3.36a2585.563 2585.563 0 01-20.793-.116c-5.129-.04-10.257-.059-15.385-.079A7665.924 7665.924 0 011072 1448v33l15.836-.07c3.327-.01 6.654-.02 9.98-.028a5431.44 5431.44 0 0015.813-.053c4.254-.022 8.507-.034 12.76-.039 1.617-.003 3.233-.01 4.85-.021 14.348-.093 25.586.364 36.511 10.523 7.48 7.822 8.738 16.357 8.523 26.856-.645 9.049-4.625 15.777-11.273 21.832-6.839 5.199-13.312 7.313-21.933 7.227h-2.338a1342.63 1342.63 0 01-7.596-.032l-5.288-.008c-4.626-.008-9.252-.028-13.878-.05-4.726-.02-9.452-.03-14.178-.04-9.263-.02-18.526-.056-27.789-.097v30l7.353-.048c8.05-.05 16.1-.083 24.151-.107 4.878-.016 9.755-.037 14.632-.071 4.714-.033 9.427-.05 14.141-.059 1.792-.005 3.583-.016 5.374-.032 24.295-.212 24.295-.212 34.341 8.286 8.03 8.123 10.85 16.787 11.008 28.031-.586 8.1-4.354 15.283-10.008 21.047-12.268 10.29-25.787 9.535-40.957 9.45-2.242 0-4.485 0-6.727.004-4.686 0-9.372-.012-14.058-.034-5.979-.029-11.958-.026-17.937-.013-4.627.007-9.253-.001-13.88-.014a1728.17 1728.17 0 00-6.61 0c-19.945.018-35.414-1.715-50.538-16.096-13.896-14.253-16.645-29.987-16.546-49.137.01-2.438 0-4.875-.012-7.312-.017-16.785.65-36.608 12.18-49.958 5.193-4.806 10.993-8.912 18.093-9.937v-2l-2.168-.32c-8.8-2.112-15.292-8.404-20.18-15.73-7.32-13.066-8.011-28.155-7.968-42.798.004-2.216-.02-4.43-.045-6.646-.076-16.685 4.052-31.16 14.966-44.12 9.267-9.236 21.657-16.46 34.998-16.533zM850.75 1386.688c7.69 5.53 11.3 12.154 13.25 21.312.407 4.116.438 8.2.432 12.334l.031 3.61c.025 3.236.037 6.47.043 9.705.01 3.393.036 6.785.06 10.178.044 6.41.072 12.82.095 19.23.028 7.304.071 14.607.117 21.91.092 15.011.164 30.022.222 45.033l6.59-7.996 1.857-2.252a3369.453 3369.453 0 0016.935-20.76 3065.9 3065.9 0 014.934-6.058c9.742-11.89 9.742-11.89 19.123-24.064 1.561-1.87 1.561-1.87 3.86-3.906 6.435-6.266 7.504-11.194 7.693-19.968.035-4.189-.03-8.37-.117-12.558a1063.65 1063.65 0 01-.06-9.528c-.007-1.964-.031-3.93-.077-5.893-.103-10.073 2.187-18.624 9.262-26.017 7.99-7.033 15.67-10.37 26.316-10.21 8.28.65 14.581 3.673 20.684 9.21l1.688 1.488c9.039 9.107 8.759 22.066 8.779 34.026-.012 2.305-.03 4.61-.055 6.914a991.877 991.877 0 00-.04 10.492c-.072 23.069-1.525 43.065-18.372 60.393-3.48 3.385-6.88 6.151-11 8.687l-1 2 2.164.777c12.48 5.381 20.867 15.862 25.836 28.223 2.772 9.168 3.456 17.947 3.434 27.48.004 1.348.01 2.696.015 4.043.01 2.8.007 5.598-.003 8.398-.011 3.56.009 7.12.038 10.68.018 2.774.018 5.547.012 8.321 0 1.942.017 3.884.034 5.826-.085 10.925-2.532 19.184-10.112 27.205-7.494 6.344-16.233 9.42-25.961 9.258-8.939-.767-17.114-4.546-23.246-11.133-6.185-7.86-8.298-15.49-8.416-25.439l-.03-2.189c-.032-2.375-.057-4.75-.081-7.126l-.063-4.956c-.055-4.338-.105-8.676-.153-13.015-.06-5.21-.126-10.42-.19-15.631-.098-7.908-.187-15.815-.278-23.722l-61-1 .14 16.457c.021 3.459.04 6.918.055 10.377.024 5.48.052 10.959.107 16.438.044 4.422.067 8.844.078 13.266.007 1.68.021 3.36.043 5.039.153 12.317-.462 23.297-9.439 32.638-8.037 7.23-15.624 10.312-26.41 10.031-9.204-.88-17.526-4.564-23.62-11.613-5.527-7.514-7.257-14.259-7.221-23.456l-.014-2.62c-.013-2.885-.011-5.77-.01-8.654a5795.442 5795.442 0 01-.044-23.092 9565.23 9565.23 0 00-.01-10.548c-.019-12.273-.027-24.545-.026-36.818.002-11.43-.02-22.859-.051-34.288-.026-9.822-.037-19.644-.036-29.466 0-5.862-.005-11.724-.026-17.586-.02-5.515-.02-11.03-.005-16.545.002-2.02-.003-4.039-.015-6.059-.131-23.476-.131-23.476 8.672-32.903 13.03-11.363 29.849-12.952 44.582-3.91z" fill="#9EB81E"/><path d="M1460.316 1381.797l3.905-.017c2.725-.01 5.449-.017 8.173-.02 3.45-.006 6.9-.03 10.35-.058 3.336-.024 6.673-.025 10.01-.03l3.691-.038c29.47.076 44.539 16.155 64.084 35.6 1.57 1.559 3.145 3.113 4.724 4.662 2.319 2.276 4.624 4.565 6.927 6.858l2.112 2.059c6.702 6.732 11.627 14.202 14.02 23.437l.926 3.453c5.073 21.956 2.106 46.197-9.238 65.735-3.832 6.03-8.147 10.773-13.563 15.378-3.101 2.779-6.012 5.722-8.937 8.684-4.116 4.164-8.271 8.178-12.75 11.957-1.827 1.61-3.46 3.33-5.125 5.106-8.11 8.184-20.47 13.983-32.049 14.557l-2.55-.006h-2.91l-3.104-.016-3.207-.005c-3.373-.005-6.745-.018-10.118-.03-2.29-.006-4.579-.01-6.869-.014-5.606-.011-11.212-.028-16.818-.049l.048 3.238c.054 4.007.089 8.014.117 12.02.015 1.727.035 3.453.061 5.18.187 12.633.303 23.38-8.203 33.519-6.823 6.889-14.112 10.02-23.773 10.418-9.195-.195-16.797-2.992-23.465-9.387-6.995-7.79-10.1-15.27-10.052-25.835l-.014-2.302c-.013-2.53-.011-5.06-.01-7.59-.006-1.82-.012-3.64-.02-5.462-.018-4.936-.022-9.872-.024-14.808 0-3.09-.005-6.179-.01-9.268-.019-10.792-.027-21.585-.026-32.377a9204.51 9204.51 0 00-.051-30.103 8131.24 8131.24 0 01-.036-25.901c0-5.148-.005-10.296-.026-15.444-.02-4.849-.02-9.697-.005-14.545.002-1.77-.003-3.54-.015-5.31-.121-18.856 3.837-33.641 17.102-47.723 13.324-12.869 28.933-15.462 46.718-15.523zM1463 1447v66h60v-65l-19.875-.5-6.148-.158-5.032-.123-2.469-.066c-8.831-.21-17.632-.153-26.476-.153zM1869.758 1381.664l3.945-.02c2.745-.012 5.49-.016 8.234-.015 2.782 0 5.562-.013 8.343-.04 23.27-.226 42.858.036 60.72 16.813l1.692 1.577c5.892 5.52 11.666 11.159 17.385 16.858 1.745 1.735 3.501 3.46 5.257 5.184 15.311 15.166 24.778 30.275 25.046 52.27-.016 12.202-.207 23.162-4.38 34.709l-1.098 3.234c-4.738 12.657-13.396 22.226-23.527 30.891-3.997 3.428-7.673 7.136-11.375 10.875-13.21 13.287-26.39 24.923-46.087 25.114-2 0-4-.006-5.999-.016l-3.203-.005c-3.362-.005-6.724-.018-10.086-.03-2.285-.006-4.57-.01-6.855-.014-5.59-.011-11.18-.028-16.77-.049l.063 3.421c.073 4.23.119 8.461.157 12.692.02 1.824.047 3.647.082 5.47.27 14.511-.486 24.327-10.923 35.28-7.09 6.368-14.703 7.52-23.93 7.407-8.552-.669-15.263-3.944-21.437-9.852-6.702-8.055-9.13-16.528-9.152-26.797l-.01-2.222c-.008-2.453-.01-4.907-.011-7.36l-.015-5.283c-.013-4.784-.02-9.568-.024-14.351l-.012-8.98c-.013-9.376-.023-18.753-.027-28.13-.004-10.8-.022-21.6-.05-32.4-.023-8.362-.033-16.724-.034-25.086-.001-4.987-.007-9.974-.025-14.961-.016-4.7-.018-9.398-.01-14.097.001-1.715-.003-3.43-.013-5.144-.102-18.742 2.587-36.547 16.219-50.65 13.966-12.699 29.523-16.26 47.91-16.293zM1872 1447v66h61v-65l-19.813-.5-6.12-.158-5.024-.123-2.454-.066c-9.202-.22-18.374-.153-27.589-.153z" fill="#37276B"/><path d="M54.021 1382.71l2.94-.02c3.188-.02 6.375-.024 9.562-.026l6.688-.02c4.665-.012 9.33-.016 13.995-.015 5.96 0 11.92-.027 17.88-.061 4.603-.022 9.204-.026 13.806-.025 2.197-.003 4.394-.012 6.59-.027 3.08-.02 6.159-.014 9.238-.002l2.715-.034c9.753.096 17.532 3.565 24.585 10.23 6.41 7.41 8.385 15.505 8.246 25.067-.737 8.932-4.475 15.175-10.266 21.836-10.814 8.604-20.464 9.22-33.672 8.973-1.776-.011-3.553-.02-5.33-.026-4.636-.023-9.271-.081-13.907-.148-5.583-.073-11.167-.1-16.75-.135-8.448-.058-16.893-.173-25.341-.277v42l13.21-.105c3.501-.02 7.001-.036 10.502-.05 3.681-.016 7.363-.037 11.044-.071 3.554-.033 7.107-.05 10.66-.059 2-.008 3.999-.031 5.998-.055 11.365-.002 20.768 1.84 29.586 9.34 7.031 7.553 9.972 15.737 10 26-.637 9.138-4.583 17.19-11.375 23.375-6.8 5.322-13.354 7.755-21.954 7.739h-3.882l-4.18-.016-4.287-.005c-3.755-.003-7.51-.013-11.265-.024-3.834-.01-7.668-.015-11.502-.02-7.519-.01-15.037-.028-22.555-.049l.02 2.37c.06 7.399.106 14.798.135 22.197.016 3.804.037 7.607.071 11.41.033 3.677.05 7.353.059 11.03.005 1.396.016 2.792.032 4.189.132 11.78-.795 20.066-9.06 28.788-8.57 7.652-17.526 8.646-28.62 8.422-8.16-.465-14.617-4.32-20.637-9.656-8.19-9.532-7.57-20.657-7.502-32.535a2591.838 2591.838 0 01-.003-21.074c.015-5.379.008-10.758.004-16.137-.002-9.032.011-18.063.034-27.095.027-10.426.029-20.851.017-31.277-.01-10.05-.005-20.1.01-30.15.005-4.267.005-8.535 0-12.802-.004-5.03.006-10.06.028-15.09.005-1.84.006-3.681 0-5.522-.042-18.005 3.41-31.432 16.127-44.85 10.897-10.58 23.21-15.524 38.306-15.509z" fill="#9EB81E"/><path d="M971 640c5.734 3.242 10.218 7.51 15 12l2.742 2.543c21.381 20.503 36.067 49.932 37.594 79.762-.386 4.248-1.03 5.331-4.149 8.133l-2.5 2.28c-3.58 3.04-7.168 6.056-10.84 8.985a181.683 181.683 0 00-5.476 4.594C983.386 775.695 959.283 789.528 935 800l-2.028.884c-21.872 9.398-44.785 14.931-68.365 17.788-2.025.255-4.041.574-6.052.918-5.533.638-11.053.558-16.617.535l-3.693-.015C775.372 819.69 712.949 793.288 665 753v-1c5.064.52 10.092 1.143 15.125 1.902l3.398.51c2.256.341 4.512.687 6.766 1.04 20.601 3.057 41.283 3.932 62.086 3.86l3.364-.005c16.618-.046 32.837-.586 49.261-3.307 1.015-.15 2.03-.3 3.075-.456 31.87-4.76 64.476-15.888 90.925-34.544l3.098-2.176c7.476-5.431 14.225-11.46 20.902-17.824l2.18-2.02c7.799-7.438 14.027-16.288 20.07-25.168 5.324-7.796 11.165-15.177 17.005-22.591 2.93-3.729 5.837-7.475 8.745-11.221z" fill="#FEFEFE"/><path d="M384 1486h25l.488 9.863c.272 3.09.272 3.09 1.86 5.067 1.762 1.373 1.762 1.373 4.777.882L419 1501c1.416-2.833 1.346-5.475 1.563-8.625L421 1486h24l.488 9.863c.272 3.09.272 3.09 1.86 5.067 1.762 1.373 1.762 1.373 4.777.882L455 1501c1.416-2.833 1.346-5.475 1.563-8.625L457 1486h20l.488 9.863c.272 3.09.272 3.09 1.86 5.067 1.762 1.373 1.762 1.373 4.777.882L487 1501c1.416-2.833 1.346-5.475 1.563-8.625L489 1486h21l.488 9.863c.272 3.09.272 3.09 1.86 5.067 1.762 1.373 1.762 1.373 4.777.882L520 1501c1.416-2.833 1.346-5.475 1.563-8.625L522 1486h23l.39 8.984c.723 3.575 1.723 4.842 4.61 7.016 3.332-.192 3.332-.192 6-2 .235-2.35.414-4.706.563-7.063L557 1486h21c.093 17.038.164 34.076.207 51.114.02 7.912.049 15.823.095 23.735.04 6.9.065 13.798.074 20.698.006 3.65.018 7.3.047 10.95.032 4.084.033 8.167.031 12.25l.044 3.632c-.05 10.35-2.472 18.287-9.639 25.867-8.162 7.7-15.926 9.27-26.949 8.988-10.293-.617-15.843-4.823-22.91-12.234-5.364-6.333-6.272-12.876-6.168-20.871l-.021-5.178a588.37 588.37 0 01.034-8.09c.464-9.998.464-9.998-2.176-19.397-1.775-1.805-3.543-3.095-5.669-4.464a207.73 207.73 0 01-3.957-3.488l-2.03-1.753c-3.314-2.896-6.502-5.924-9.7-8.947l-4.22-3.968-2.093-1.969c-4.436-4.159-8.914-8.271-13.388-12.388a1785.193 1785.193 0 01-5.132-4.757l-1.764-1.637a1837.722 1837.722 0 01-3.316-3.086c-3.034-2.812-6.159-5.44-9.4-8.007l-.011 3.584a9120.15 9120.15 0 01-.173 33.5c-.04 5.74-.072 11.48-.087 17.221-.015 5.544-.05 11.088-.097 16.632a958.417 958.417 0 00-.024 6.333 870.14 870.14 0 01-.062 8.896l.015 2.622c-.153 9.044-3.594 15.872-9.702 22.423-7.417 7.137-14.508 9.208-24.744 9.153-10.306-.266-17.023-4.124-24.115-11.364-7.311-7.706-7.43-16.04-7.34-26.117l-.002-3.935c0-3.539.017-7.077.038-10.616.019-3.706.02-7.412.024-11.118.01-7.009.034-14.017.064-21.026.034-7.983.05-15.966.065-23.95.031-16.412.086-32.825.151-49.238z" fill="#9EB81E"/><path d="M1325.734 412.758l3.406.144 3.61.223 3.696.19c33.882 1.882 65.32 12.094 92.554 32.685l2.71 2.035c14.227 11.16 25.711 24.39 36.29 38.965l-1 2-2.316-1.871c-18.275-14.542-38.366-24.392-60.684-31.129l-3.191-.965c-45.23-12.932-94.162-2.972-134.809 18.965l-3.5 1.86c-25.507 14.028-48.866 33.957-66.5 57.14l-1.247 1.605C1166.005 571.713 1149.58 616.433 1140 662l-.867 4.008c-1.472 7.027-2.67 14.085-3.758 21.18l-.374 2.41c-1.542 10.409-2.164 20.816-2.274 31.332l-.039 3.336C1132.214 775.518 1138.8 828.407 1176 867c2.576 2.461 5.194 4.805 8 7l-2 1c-6.177-4.087-11.797-8.453-17.23-13.484-2.617-2.377-5.292-4.65-8.002-6.917-33.973-28.52-51.109-72.37-55.06-115.812-6.075-77.333 18.651-150.184 51.12-219.221a111.625 111.625 0 002.633-6.316c1.999-4.221 4.67-7.504 7.664-11.063l1.776-2.14A808.615 808.615 0 011170 494l2.258-2.664c10.912-12.453 22.689-24.31 36.062-34.105a404.93 404.93 0 004.993-3.735c12.126-9.048 25.28-16.575 38.937-23.058l2.056-.978c7.205-3.315 11.883-4.906 19.694-2.46 15.505 1.649 29.198-.724 42-10l1.776-2.083c2.863-2.468 4.23-2.344 7.958-2.16z" fill="#849A3F"/><path d="M846 341c11.3 2.448 22.538 5.074 33.739 7.943 2.478.635 4.957 1.266 7.436 1.897 6.157 1.566 12.312 3.138 18.468 4.71 6.055 1.546 12.112 3.09 18.17 4.63l2.565.652a1274.15 1274.15 0 0032.803 7.89c9.321 2.123 18.586 4.452 27.85 6.81l2.395.608c6.514 1.659 13.025 3.324 19.537 4.99a13625.182 13625.182 0 0019.366 4.941c7.904 2.015 15.811 3.994 23.769 5.788l3.707.836c2.255.502 4.513.996 6.772 1.48l2.956.651 2.562.547L1070 396c1 2 1 2 .43 3.933-13.173 31.624-33.338 57.625-65.532 71.536-29.633 12.053-62.172 11.945-91.598-.444C902.37 466.152 892.98 459.92 884 452l-1.91-1.512c-5.549-4.41-9.778-9.9-14.09-15.488l-1.848-2.371c-14.795-19.986-21.788-43.904-21.402-68.567.007-1.357.012-2.714.016-4.072.05-6.437.408-12.615 1.234-18.99z" fill="#39296B"/><path d="M1317.726 235.833c1.895.666 3.801 1.288 5.711 1.91 9.18 3.175 16.951 7.425 22.125 15.945 4.307 10.723.51 21.91-3.101 32.234-.48 1.417-.957 2.835-1.434 4.254-1.267 3.759-2.558 7.509-3.854 11.258-1.338 3.882-2.653 7.772-3.971 11.661-2.088 6.152-4.188 12.3-6.3 18.445a4187.926 4187.926 0 00-7.406 21.769C1305.31 395.257 1305.31 395.257 1294 401c-10.425 3.224-20.584.42-30.438-3.25-1.13-.396-2.262-.791-3.427-1.2-7.553-2.711-13.553-5.311-18.885-11.487l-1.734-1.965c-4.448-6.156-4.316-12.78-3.516-20.098.686-2.64 1.568-5.188 2.5-7.75 2.077-5.714 3.468-10.151 2.5-16.25-3.869-6.052-8.215-7.698-14.895-9.867-.947-.325-1.894-.65-2.87-.983-3.01-1.027-6.028-2.026-9.048-3.025-2.049-.694-4.098-1.389-6.146-2.086-5.007-1.7-10.021-3.378-15.041-5.039.556-7.188 2.646-13.515 5-20.305l1.2-3.516c1.259-3.687 2.53-7.37 3.8-11.054l2.562-7.5c1.56-4.555 3.118-9.109 4.688-13.66l.953-2.766C1212 257 1212 257 1213 255c8.227 1.575 15.993 4.287 23.875 7.063l3.992 1.392c2.426.846 4.85 1.694 7.273 2.545 3.51 1.227 6.457 2.19 10.172 2.313l2.239.113c3.7-.644 5.603-1.967 8.449-4.426 1.58-2.838 2.601-5.799 3.625-8.875 3.086-8.922 6.444-16.317 15.152-21.102 10.08-4.41 20.016-1.706 29.949 1.81z" fill="#C2B0D1"/><path d="M1380.046 285.741l2.132-.01c2.334-.01 4.668-.003 7.002.003l4.946-.005c3.475-.003 6.95 0 10.426.01 4.359.011 8.717.005 13.076-.007 26.591-.06 53.186.294 79.497 4.58l2.064.329c32.302 5.15 63.282 16.753 89.811 36.359l3.18 2.324c16.031 11.916 30.109 25.703 40.82 42.676l1.137 1.8c24.177 38.978 34.497 99.789 24.84 144.645-6.455 23.495-21.11 41.218-41.977 53.555.476-3.393.962-6.778 1.535-10.156 6.167-39.103.195-85.41-12.535-122.844l-.784-2.379c-18.998-57.17-62.143-95.46-114.758-121.898-13.047-6.429-26.469-10.827-40.458-14.723l-2.65-.77c-7.25-2.068-14.551-3.498-21.975-4.793l-3.757-.659c-17.462-3.013-34.96-4.454-52.618-5.778 3.66-2.308 6.78-2.253 11.046-2.259z" fill="#D8E3A1"/><path d="M825 1026c13.866 6.56 21.309 15.249 26.688 29.688 8.599 26.29 6.318 56.222 2.75 83.187l-.5 3.834c-2.194 16.663-4.626 33.294-7.032 49.927-3.128 21.65-6.1 43.194-7.638 65.02-.167 2.329-.344 4.657-.522 6.985l-.139 2.12c-.275 3.536-.59 5.215-2.607 8.239-3.707-1.236-3.883-2.15-5.688-5.5-6.394-10.998-14.774-19.13-27.312-22.5-3.719-.278-3.719-.278-7.563-.188l-3.878.02c-3.001.142-5.638.54-8.559 1.168-.03-3.52-.047-7.042-.063-10.563l-.025-3.001c-.017-5.27.265-10.221 1.088-15.436.34-3.746.6-7.499.875-11.25 2.622-33.665 7.6-66.603 15.355-99.442a519.96 519.96 0 002.377-10.842c2.017-9.535 4.784-18.79 7.671-28.093a271.433 271.433 0 001.902-6.572c3.494-12.554 8.127-24.652 12.82-36.801z" fill="#819463"/><path d="M792 205c8.382.386 16.013 2.526 24 5l-2.742 6.093c-.81 1.8-1.618 3.6-2.426 5.4a1167.277 1167.277 0 01-6.117 13.445C790.925 264.784 780.798 296.1 773 328l-1.297 5.168c-5.73 23.103-10.483 46.512-13.879 70.07l-.42 2.83a171.249 171.249 0 00-.74 6.279c-.867 7.556-2.328 11.921-7.727 17.278-1.19 1.274-2.378 2.548-3.566 3.824l-1.758 1.838c-2.157 2.29-4.14 4.7-6.113 7.15l-2.137 2.637L733 448a5980.327 5980.327 0 01-3.02 3.707A4776.88 4776.88 0 00720 464l-1.544 1.908a998.162 998.162 0 00-18.603 23.76 576.467 576.467 0 01-10.79 13.707c-5.046 6.245-9.827 12.661-14.562 19.145-4.504 6.16-9.109 12.236-13.751 18.292a703.338 703.338 0 00-16.455 22.361c-3.118 4.398-6.291 8.757-9.46 13.119-2.622 3.616-5.22 7.245-7.745 10.93l-1.363 1.971a280.589 280.589 0 00-2.48 3.657c-2.69 3.88-2.69 3.88-4.986 4.993-3.438.239-5.542-1.2-8.558-2.808l-1.799-.946a703.373 703.373 0 01-5.654-3.027c-1.282-.68-2.565-1.359-3.848-2.037A1454.38 1454.38 0 01589 584c1.238-3.37 2.613-6.108 4.766-8.977l1.676-2.252 1.808-2.396 3.824-5.125 1.978-2.64c2.445-3.276 4.861-6.572 7.276-9.869 6.619-9.03 13.364-17.955 20.196-26.824 1.378-1.79 2.752-3.581 4.124-5.374a1839.994 1839.994 0 0115.579-20.02c1.814-2.301 3.621-4.609 5.421-6.921 6.776-8.692 13.75-17.207 20.777-25.695 2.1-2.543 4.181-5.1 6.263-7.657 7.936-9.708 16.115-19.215 24.289-28.723a970.233 970.233 0 005.921-6.96c6.134-7.257 12.473-14.27 19.027-21.15l1.825-1.92 1.61-1.683L737 398l2.126-2.316c2.207-3.161 2.626-5.316 3.112-9.125l.535-3.9.264-2.079c.478-3.721 1.019-7.433 1.557-11.146l.338-2.35C752.924 312.371 766.779 254.485 792 205z" fill="#CEDC86"/><path d="M1150 1042c9.23 6.153 13.345 16.572 16 27 2.08 11.61 2.283 23.132 2.206 34.895-.018 2.81-.02 5.62-.02 8.43-.02 10.408-.273 20.793-.682 31.195-.537 13.83-.724 27.648-.744 41.489-.01 3.923-.041 7.847-.072 11.77-.093 22.35 2.063 44.13 5.312 66.221l-1.89-.466c-12.728-3.04-25.144-2.63-36.68 3.927A106.018 106.018 0 001127 1271l-3 2.25c-2.082 1.6-2.082 1.6-3 3.75h-2l-.152-2.693c-.239-4.206-.48-8.413-.723-12.62l-.135-2.335c-.514-8.862-1.058-17.718-1.768-26.567-2.015-25.922-2.458-51.858-2.472-77.847l-.003-2.242c-.022-20.834.34-41.583 1.628-62.383l.191-3.101c1.025-16.123 2.153-32.367 5.434-48.212 9.122-2.884 20.964-2.236 29 3z" fill="#819463"/><path d="M494.941 1382.754L497 1384l2.09 1.215c6.037 3.766 11.332 8.423 16.71 13.05 3.51 3.017 7.117 5.902 10.743 8.778 3.589 2.858 7.133 5.77 10.68 8.68 1.817 1.49 3.637 2.977 5.46 4.46 1.812 1.475 3.619 2.954 5.422 4.438 1.501 1.233 3.002 2.465 4.515 3.684 12.024 9.691 22.515 19.936 25.38 35.695v10h-21l-.586-10.742c-.086-3.339-.086-3.339-2.414-5.258-3.583-.167-3.583-.167-7 0-1.105 3.315-1.321 6.204-1.563 9.688L545 1474h-23l-.488-9.863c-.272-3.09-.272-3.09-1.86-5.067-1.762-1.373-1.762-1.373-4.777-.882L512 1459c-1.416 2.833-1.346 5.475-1.563 8.625L510 1474h-21l-.488-9.863c-.27-3.088-.27-3.088-1.856-5.043-2.503-1.653-4.74-1.288-7.656-1.094-1.105 3.315-1.321 6.204-1.563 9.688L477 1474h-20l-.488-9.863c-.272-3.09-.272-3.09-1.86-5.067-1.762-1.373-1.762-1.373-4.777-.882L447 1459c-1.416 2.833-1.346 5.475-1.563 8.625L445 1474h-24l-.488-9.863c-.272-3.09-.272-3.09-1.86-5.067-1.762-1.373-1.762-1.373-4.777-.882L411 1459c-1.416 2.833-1.346 5.475-1.563 8.625L409 1474h-25c0-16.947 5.673-26.67 17.313-38.625 4.409-4.282 9.001-8.231 13.804-12.063 3.177-2.548 6.283-5.17 9.383-7.812a808.38 808.38 0 0114.695-12.184 254.802 254.802 0 005.922-5.039c13.598-11.895 31.177-25.411 49.824-15.523z" fill="#9EB81E"/><path d="M493 1092l15 1c1.264 4.425 2.288 8.352 2.981 12.83 1.473 9.51 4.016 18.399 7.144 27.482l.732 2.159c4.021 11.847 8.52 23.339 14.143 34.529l1.132 2.277c21.541 42.99 57.207 81.053 103.556 96.696 24.855 7.708 51.75 7.763 75.632-3.371L715 1265l2 1c-10.398 15.79-21.579 26.041-39 34l-2.117.969c-10.077 4.181-21.136 4.373-31.883 4.343l-3.578.05c-7.913.004-14.853-1.094-22.422-3.362l-2.068-.57c-19.993-5.595-37.454-17.007-52.471-31.121-2.186-2.051-4.422-4-6.711-5.934-14.435-12.578-25.327-29.905-34.75-46.375l-1.202-2.076C507.353 1192.5 498.28 1165.647 494 1139l-.617-3.516c-2.07-13.548-3.723-30.123-.383-43.484z" fill="#819464"/><path d="M503 713c10.534 3.424 20.197 7.87 30 13-.63 3.085-1.663 5.38-3.3 8.063l-1.443 2.38-1.57 2.557-3.32 5.473-1.712 2.809c-18.995 31.193-37.22 62.797-54.538 94.952a964.089 964.089 0 01-5.86 10.72c-14.245 25.694-27.417 52-40.257 78.421l-1.13 2.325a3650.31 3650.31 0 00-3.183 6.573l-.994 2.056c-1.883 3.913-3.647 7.86-5.361 11.85-1.999 4.435-4.088 7.257-7.644 10.571-.884.84-1.767 1.68-2.676 2.547-2.265 2.057-4.571 4.066-6.88 6.074-4.074 3.551-8.018 7.228-11.945 10.942A1161.14 1161.14 0 01362 1002c-1-2-1-2-.294-4.429l1.18-3.09 1.326-3.492 1.475-3.801 1.517-3.945c22.288-57.74 48.104-115.332 78.02-169.538a976.487 976.487 0 008.596-15.908c7.809-14.784 15.863-29.352 24.384-43.742 1.94-3.3 3.853-6.614 5.757-9.934l1.008-1.757c1.601-2.79 3.2-5.581 4.795-8.375C500.218 715.782 500.218 715.782 503 713z" fill="#CEDC86"/><path d="M1424 1001c3.039 1.41 5.594 3.089 8.25 5.125l2.14 1.633L1436 1009l-.854 2.348c-1.07 2.947-2.136 5.896-3.199 8.846-.677 1.875-1.359 3.749-2.04 5.622-4.306 11.966-7.934 23.88-10.032 36.434-.314 1.818-.63 3.636-.945 5.453l-.46 2.676a292.031 292.031 0 01-1.493 7.637c-11.092 54.804-13.886 128.478 16.46 177.859 13.245 19.733 31.093 34.502 54.563 40.125l1.996.578c5.59 1.575 11.225 2.018 17.004 2.422-13.725 9.15-37.261 7.83-52.753 5.604-13.48-2.702-25.978-9.57-36.247-18.604-.737-.643-1.475-1.286-2.234-1.95-6.623-6.176-11.239-13.286-15.766-21.05l-1.652-2.793c-12.048-22.146-16.479-49.722-16.516-74.71l-.013-2.646c-.01-2.805-.01-5.609-.007-8.414v-2.907c.013-14.049.407-27.922 1.91-41.901.28-2.645.52-5.292.75-7.941A337.286 337.286 0 011389 1089l.43-2.307c5.072-26.834 14.447-65.57 34.57-85.693z" fill="#819464"/><path d="M1381 833c2.329 2.885 3.854 5.656 5.27 9.078l1.246 2.997 1.296 3.175 1.334 3.243c1.295 3.165 2.577 6.335 3.854 9.507l1.065 2.641c.888 2.219 1.76 4.443 2.622 6.672l.775 1.952c1.655 4.383 1.655 4.383.538 7.735a69.197 69.197 0 01-7 2.5l-3.875 1.219c-2.071.65-4.141 1.286-6.23 1.875-6.704 2.007-12.367 5.365-18.332 8.968a5402.073 5402.073 0 01-6.403 3.797l-3.167 1.881c-4.847 2.85-9.762 5.57-14.688 8.28a561.617 561.617 0 00-10.301 5.777c-30.45 17.564-63.837 30.131-99.356 30.019a458.25 458.25 0 00-6.244.045c-13.087.063-25.765-1.796-38.029-6.548l-2.405-.915c-28.08-11.036-50.227-33.094-62.88-60.343-3.61-8.465-7.099-17.557-9.09-26.555l1-2 3.605 4.267c1.02 1.205 2.04 2.408 3.063 3.61 2.03 2.39 4.056 4.777 6.012 7.228 3.648 4.545 7.99 7.965 12.543 11.582 2.534 2.11 4.766 4.294 7.027 6.688C1159.644 897.014 1180 907.277 1201 913l3.664 1.027c37.26 8.657 77.088-2.599 109.221-21.746 10.243-6.408 20.008-13.338 29.115-21.281 1.125-.945 2.251-1.887 3.379-2.828 10.34-8.67 19.902-17.848 28.621-28.172 1.145-1.334 2.291-2.667 3.438-4l2.562-3z" fill="#83993F"/><path d="M1087 1110h2l-.007 2.576a21623.363 21623.363 0 00-.058 35.165c-.025 28.105.295 56.16 1.065 84.259l-74 1 1-25c.138-7.815.25-15.626.316-23.441l.063-6.35c.055-5.476.104-10.952.153-16.428.051-5.625.106-11.251.161-16.877.107-10.968.208-21.936.307-32.904l2.215 1.231 2.945 1.624 2.903 1.607c11.88 6.222 25.068 9.33 38.261 5.41 7.654-2.634 16.884-6.08 22.676-11.872z" fill="#819464"/><path d="M766.188 107.188l3.115.595C778.617 109.72 785.51 113.09 791 121c2.457 5.149 2.841 10.41 2 16-1.128 2.516-1.128 2.516-2.617 5.105l-1.654 2.913L787 148a8809.935 8809.935 0 00-3.227 5.664l-1.668 2.92C764.079 188.278 750.878 221.621 739 256c-21.752-2.193-21.752-2.193-29-10-4.753-7.192-5.98-14.45-4.485-22.92.768-3.599 1.588-7.183 2.422-10.767.652-2.866 1.294-5.734 1.934-8.602.17-.765.342-1.529.518-2.317 1.99-8.988 3.76-18.02 5.538-27.053 1.668-8.451 3.37-16.896 5.073-25.341l.502-2.5c.896-4.45 1.812-8.897 2.766-13.336.405-1.906.79-3.816 1.173-5.727 1.789-8.157 4.364-13.809 10.727-19.312 9.62-5.358 19.685-3.133 30.02-.938z" fill="#C2B0D1"/><path d="M868 370c7.787 1.298 15.382 3.023 23.012 5.04l3.316.865c3.454.903 6.907 1.811 10.36 2.72l7.076 1.852c5.746 1.503 11.492 3.011 17.236 4.523l-.93 2.297c-3.265 8.247-4.48 15.345-1.57 23.828 2.92 6.612 7.83 10.964 14.438 13.813 7.194 2.248 13.278 1.61 19.992-1.747 6.048-3.48 9.817-7.53 12.07-14.191.86-3.982 1.46-7.964 2-12a216.067 216.067 0 0125.426 5.04l3.374.865c3.506.9 7.01 1.81 10.513 2.72l7.193 1.852c5.833 1.5 11.664 3.01 17.494 4.523-.773 1.431-1.552 2.86-2.332 4.287l-1.311 2.412c-1.947 3.301-4.288 6.032-6.92 8.801l-1.578 1.675c-16.587 17.165-38.874 27.789-62.744 28.434-24.745.102-44.883-5.688-64.115-21.609l-1.902-1.41C881.302 421.667 871.319 399.434 868 379c-.12-3.003-.045-5.996 0-9z" fill="#FDFDFD"/><path d="M1011 33a382.978 382.978 0 01-2.102 7.766 166.425 166.425 0 00-1.671 6.53l-.852 3.204-.727 2.969c-2.589 3.976-6.21 4.386-10.648 5.531-1.565.46-3.129.926-4.691 1.395l-2.396.695C955.135 70.651 925.79 85.836 899 107l-3.11 2.426c-7.477 6.073-14.312 12.79-21.14 19.574l-2.797 2.769c-7.145 7.178-14.19 14.557-19.39 23.293-3.27 3.749-5.438 3.71-10.188 4.36-4.052.986-5.197 3.107-7.375 6.578-1.904 4.188-2.947 8.54-4 13-1.055 4.465-2.155 8.782-4 13-8.599-.614-16.695-2.81-25-5 .572-3.536 1.466-6.233 3.23-9.344l1.413-2.496 1.544-2.66 1.607-2.785C831.046 133.358 868.596 78.135 911 64l-.586 2.125-.789 2.875-.773 2.813c-.994 3.719-1.926 7.45-2.852 11.187 14.395-8.033 28.76-16.115 43.06-24.316 3.37-1.93 6.745-3.854 10.12-5.778a89982.816 89982.816 0 009.302-5.302c6.52-3.713 13.004-7.455 19.371-11.425 7.157-3.93 15.214-3.42 23.147-3.179z" fill="#CEDC86"/><path d="M1022 739l2 1c-4.696 4.984-9.742 9.352-15.082 13.633a197.555 197.555 0 00-5.555 4.672C983.376 775.697 959.281 789.529 935 800l-2.028.884c-21.872 9.398-44.785 14.931-68.365 17.788-2.025.255-4.041.574-6.052.918-5.533.638-11.053.558-16.617.535l-3.693-.015c-25.614-.171-49.78-4.576-74.245-12.11l-3.645-1.086C758 806 758 806 757 804a191.022 191.022 0 00-8.063-3.625c-8.81-3.83-17.428-7.918-25.937-12.375l-1.862-.97C707.804 780.02 695.44 771.464 683 763l2-1a110.4 110.4 0 016.688 3.313C724.076 781.968 758.115 792.259 794 798l3.523.575c12.377 1.796 24.739 1.82 37.227 1.8h3.42c17.298-.026 33.853-.843 50.83-4.375l2.627-.518c5.162-1.022 10.27-2.2 15.373-3.482l3.582-.86c20.19-5.075 39.564-12.364 58.418-21.14l2.576-1.194c17.727-8.31 34.508-18.417 50.424-29.806z" fill="#BCB9BE"/><path d="M1211 260l12 3c0 6 0 6-1 8-1.041 12.242.857 23.898 8.262 33.95 6.23 7.348 12.89 11.438 21.601 15.214 3.688 2.158 5.176 4.066 7.137 7.836.426 2.414.426 2.414.313 4.625l-.075 2.227c-.238 2.148-.238 2.148-.734 3.921-2.39 10.56-1.155 22.007 4.496 31.227 9.438 13.541 23.993 17.298 39 22v4c-1.61 1.45-1.61 1.45-3.75 2.688l-2.11 1.261c-7.96 3.908-17.696 2.779-25.886.223a382.991 382.991 0 01-6.691-2.422c-1.132-.396-2.263-.791-3.428-1.2-7.553-2.711-13.553-5.311-18.885-11.488l-1.734-1.964c-4.448-6.156-4.316-12.78-3.516-20.098.686-2.64 1.568-5.188 2.5-7.75 2.077-5.714 3.468-10.151 2.5-16.25-3.869-6.052-8.215-7.698-14.895-9.867-.947-.325-1.894-.65-2.87-.983-3.01-1.027-6.028-2.026-9.047-3.025-2.05-.694-4.099-1.389-6.147-2.086-5.007-1.7-10.021-3.378-15.041-5.039.56-6.992 2.515-13.115 4.816-19.719l1.14-3.328c1.195-3.487 2.4-6.97 3.607-10.453.815-2.372 1.63-4.745 2.443-7.117 1.99-5.797 3.99-11.591 5.994-17.383z" fill="#937CAA"/><path d="M1625 1092c11.67 35.012-7.66 85.85-23.063 116.813-17.915 34.938-44.13 65.494-78.937 84.187l-2.703 1.773L1518 1296l-3-1 1.836-1.215c5.656-3.837 10.777-7.961 15.793-12.601 2.101-1.935 4.249-3.783 6.434-5.621 35.89-31.43 60.393-85.642 66.562-132.188l.367-2.617c.356-2.584.687-5.17 1.008-7.758l.305-2.325c.914-7.75.807-15.509.758-23.3A3816.267 3816.267 0 001608 1093c1.756-.167 3.513-.332 5.27-.496l2.964-.28A80.683 80.683 0 011625 1092z" fill="#E7ECC9"/><path d="M693 1001c3.549 1.183 3.797 1.85 5.602 4.988l1.471 2.548 1.552 2.777 1.614 2.874c21.328 38.547 29.416 81.256 32.761 124.813l.175 2.11c3.05 37.555 4.98 90.673-18.175 122.89-3.219 1.871-3.219 1.871-6 3l.55-1.82c6.04-19.838 6.04-19.838 10.263-40.118l.337-2.105c2.035-14 2.053-28.154 2.038-42.27l-.001-2.798c-.02-15.057-.58-29.908-2.187-44.889l-.309-3.098c-1.59-15.848-4.242-31.355-7.691-46.902l-.52-2.354c-5.208-23.172-14.33-44.426-25.632-65.24-1.33-2.451-2.627-4.9-3.848-7.406 1.26-1.2 2.533-2.384 3.813-3.563l2.144-2.003L693 1001z" fill="#E5EBC8"/><path d="M1153 516l2 1-1.095 2.278c-38.786 81.039-70.119 176.586-40.773 268.295 2.507 7.008 5.595 13.748 8.868 20.427l1.009 2.06c4.248 8.55 9.038 16.448 14.991 23.94l2.457 3.145c5.75 7.178 12.053 13.18 19.148 19.015 3.052 2.513 5.873 5.208 8.707 7.965 5.702 5.269 12.125 8.895 18.868 12.648A49.732 49.732 0 011199 886c-20.637-3.377-38.839-15.136-54-29l-2.422-2.172c-29.818-28.126-40.712-70.6-45.578-109.828l-.317-2.548C1088.51 666.315 1110.13 579.037 1153 516z" fill="#32295A"/><path d="M986 1048h1c.412 4.016.82 8.032 1.227 12.048.138 1.36.276 2.72.416 4.078.203 1.982.403 3.963.603 5.944l.365 3.587c1.07 11.504 1.628 23.01 1.936 34.558l.063 2.274c.464 17.024.63 34.044.64 51.073l.003 2.303c.023 22.498-.417 44.917-1.628 67.385l-.191 3.568c-.777 14.103-1.895 28.142-3.434 42.182l-1.407-1.23-1.873-1.624-1.844-1.605c-2.785-2.287-5.72-4.066-8.814-5.916l-1.783-1.074A738.975 738.975 0 00967 1263l.953-2.875c3.753-11.78 5.837-23.635 7.646-35.851C976 1222 976 1222 977 1219c.403-2.975.763-5.942 1.086-8.926l.308-2.84c5.594-52.833 6.677-106.14 7.606-159.234z" fill="#E5EBC8"/><path d="M1170 1283c13.761 8.16 20.595 19.845 27 34v1c-6.042.05-12.085.086-18.127.11-2.046.01-4.092.023-6.138.04-10.643.09-21.235.016-31.844-.908l-2.46-.185c-6.108-.618-10.027-2.653-14.431-7.057.772-10.034 7.653-19.477 15-26 10.214-7.15 20.111-6.383 31-1z" fill="#BAB0CC"/><path d="M964.621 1282.41c8.652 5.783 13.941 13.837 17.379 23.59-.246 3.318-.668 4.585-2.75 7.188-10.929 8.803-34.003 4.93-47.25 4.874a8191.936 8191.936 0 01-22-.063c2.47-13.552 12.579-25.721 23.625-33.562 10.08-6.069 20.425-8 30.996-2.027z" fill="#FDFDFD"/><path d="M1290 1052c2.06 3.09 2.878 5.508 3.918 9.055l1.102 3.753c.39 1.355.78 2.711 1.167 4.067l.605 2.102c10.854 37.857 18.762 76.461 22.854 115.64.314 3.005.65 6.007.999 9.008 1.998 17.467 2.511 34.801 2.355 52.375l-15-3c-.08-1.585-.16-3.17-.244-4.804-.306-6.022-.616-12.044-.928-18.066-.133-2.58-.265-5.16-.395-7.74-1.301-25.651-3.045-51.221-5.745-76.765l-.323-3.079c-2.563-24.403-5.7-48.736-9.553-72.97-.512-3.262-.812-6.26-.812-9.576z" fill="#E5EBC9"/><path d="M541 652c6.546 1.258 12.209 3.147 18.25 5.938l2.352 1.052c3.953 1.792 7.73 3.67 11.398 6.01-3.154 6.125-6.838 11.84-10.69 17.542-6.3 9.357-12.282 18.924-18.31 28.458-3.635-.6-6.6-1.601-9.906-3.215l-2.754-1.33-2.84-1.392c-1.864-.907-3.728-1.812-5.594-2.715l-2.49-1.219c-2.44-1.14-4.907-2.153-7.416-3.129 1.262-3.35 2.693-6.34 4.582-9.379l1.558-2.515 1.673-2.669 1.72-2.764c6.028-9.64 12.225-19.17 18.467-28.673z" fill="#CEDC86"/><path d="M790 1044c1.409 2.818.533 4.04-.441 7.004l-1.01 3.144-1.111 3.415c-3.793 11.983-6.923 24.012-9.711 36.263-.748 3.265-1.516 6.524-2.29 9.783-4.633 19.618-8.447 39.204-11.138 59.183-.416 3.072-.857 6.14-1.299 9.208h-1l-.044-2.126c-.415-18.103-1.74-35.902-3.956-53.874l-.498-4.084c-.512-4.182-1.036-8.362-1.564-12.541l-.492-3.898c-.895-6.89-1.956-13.69-3.446-20.477l3.125-2.25c4.684-3.507 9.084-7.312 13.508-11.136 6.99-6.035 14.15-11.851 21.367-17.614z" fill="#819464"/><path d="M578 598c20.414 9.507 20.414 9.507 30 15-3.13 6.227-6.95 11.841-11.042 17.462-4.593 6.34-8.79 12.914-12.958 19.538-5.044-1.535-9.646-3.645-14.375-5.938-5.463-2.647-10.91-5.004-16.625-7.062.636-3.368 1.903-5.658 3.809-8.492l1.751-2.619 1.878-2.764 1.9-2.825A756.38 756.38 0 01578 598z" fill="#CEDC86"/><path d="M1027 735h1c.055 2.041.093 4.083.125 6.125l.07 3.445c-.276 4.86-1.018 8.1-4.285 11.79-18.145 15.232-38.752 28.06-59.91 38.64l-2.403 1.211C935.376 809.232 906.09 817.817 877 821l-2.82.336c-16.513 1.63-33.684 1.344-50.18-.336v-1l2.385-.028C902.231 818.852 970.603 791.228 1025 738l2-3z" fill="#32285C"/><path d="M1249.063 1279.875c7.762 4.204 12.07 12.004 14.937 20.125 1.225 4.342 1.076 8.52 1 13-8.193 1.495-16.322 2.501-24.625 3.125l-3.195.262c-6.408.5-12.754.726-19.18.613-.552-12.212-.363-22.168 7.875-32 6.985-7.204 13.907-9.096 23.188-5.125zM872.688 1279.25c7.605 4.018 10.733 9.047 14.312 16.75.829 2.771 1.12 5.222 1.098 8.11l-.01 2.285-.025 2.355-.014 2.402c-.012 1.95-.03 3.899-.049 5.848-15.796.922-31.406-1.79-47-4-.299-10.775 3.171-19.6 10-28 6.534-6.615 12.739-8.784 21.688-5.75z" fill="#FCFCFD"/><path d="M1305 232c4.34 1.021 8.524 2.346 12.726 3.833 1.895.666 3.801 1.288 5.711 1.91 9.18 3.175 16.951 7.425 22.126 15.945 4.306 10.723.51 21.91-3.102 32.234-.48 1.417-.957 2.835-1.434 4.254-1.267 3.759-2.558 7.509-3.854 11.258-1.338 3.882-2.653 7.772-3.971 11.661-2.088 6.152-4.188 12.3-6.3 18.445a4187.926 4187.926 0 00-7.406 21.769c-6.55 19.369-6.55 19.369-9.496 27.691l-1.104 3.178-1.01 2.748-.825 2.282c-1.333 2.25-2.666 2.844-5.061 3.792l-1-1c.44-6.335 2.085-11.863 4.176-17.832l.974-2.84c1.047-3.05 2.105-6.095 3.163-9.14A8571.994 8571.994 0 011318 337c4.032-11.656 8.055-23.314 11.999-35l1.087-3.205c4.56-13.594 7.912-25.328 1.452-39.006-7.078-12.827-17.08-17.723-30.664-22.164l-3.187-1.074c-2.56-.861-5.122-1.711-7.688-2.551 4.559-3.04 8.65-2.57 14-2z" fill="#E9E3F0"/><path d="M798.992 1264.441c7.705 2.144 13.724 9.56 17.559 16.274 4.686 9.857 5.78 18.434 5.449 29.285-27.39-2.73-27.39-2.73-34-10-2.258-4.282-3.529-8.194-4-13l-.23-2.246c-.396-6.846 1.299-12.116 5.23-17.754 3.344-3.1 5.436-3.374 9.992-2.559z" fill="#B9AECB"/><path d="M1313 1264c4.738 3.066 7.773 6.34 9 12 .748 8.51.723 19.092-5 26-5.939 4.118-11.68 5.165-18.75 6.25l-3.152.523c-7.525 1.227-7.525 1.227-11.098 1.227-1.103-12.942 2.177-25.605 10.168-35.945 5.136-5.76 10.62-11.205 18.832-10.055zM561 970c2.6 7.258 3.52 13.81 3.5 21.5l.086 2.934c.019 7.086-1.457 12.721-5.586 18.566-5.043 4.368-9.911 4.388-16.36 4.36-7.074-.699-13.743-3.429-19.64-7.36 2.147-13.794 21.58-29.046 32-37l2.191-1.746C559 970 559 970 561 970zM1558 970c5.07 2.698 9.157 5.615 13.313 9.563l1.694 1.591c8.555 8.13 16.67 16.83 22.993 26.846v2c-10.05 4.761-18.675 8.26-30 7-4.937-2.292-7.4-5.263-10-10-1.745-5.105-2.352-9.826-2.313-15.188l.007-2.232c.282-15.556.282-15.556 4.306-19.58z" fill="#FCFBFC"/><path d="M766.188 107.188l3.115.595c6.304 1.311 11.68 3.048 16.697 7.217l1 2c-2.25-.31-4.5-.623-6.75-.938l-3.797-.527C773 115 773 115 770.996 114.453c-7.711-1.75-17.006-1.487-24.012 2.293L745 118l-2.11 1.285c-9.484 6.4-12.75 14.913-14.877 25.839l-.388 2.001c-.287 1.397-.575 2.794-.865 4.19a1277.08 1277.08 0 00-1.817 8.97c-.962 4.828-1.956 9.649-2.955 14.469a6686.192 6686.192 0 00-4.058 19.77l-.492 2.413-.965 4.742c-1.037 5.09-2.073 10.18-3.117 15.268-.517 2.516-1.03 5.033-1.542 7.55l-.685 3.335-.592 2.898C710 233 710 233 709 235l-4-1c-.441-7.556 1.231-14.354 2.938-21.688.651-2.865 1.293-5.733 1.933-8.601.17-.765.342-1.529.518-2.317 1.99-8.988 3.76-18.02 5.538-27.053 1.668-8.451 3.37-16.896 5.073-25.341l.502-2.5c.896-4.45 1.812-8.897 2.766-13.336.405-1.906.79-3.816 1.173-5.727 1.789-8.157 4.364-13.809 10.727-19.312 9.62-5.358 19.685-3.133 30.02-.938z" fill="#E7E1EF"/><path d="M627 952c-3.117 11.567-9.102 19.401-19 26-7.794.793-12.59-1.23-18.621-6.129-8.177-7.204-8.177-7.204-10.379-10.871l1-3a62.105 62.105 0 016.875-2.563l2.068-.655c12.473-3.848 25.125-5.257 38.057-2.782z" fill="#FAF9FB"/><path d="M1540 959a340.584 340.584 0 01-4 6l-1.688 2.5c-5.165 5.584-11.994 9.836-19.562 11-6.341-.845-10.664-4.047-14.773-8.879C1492 958.6 1492 958.6 1492 952c14.547-4.301 34.734.437 48 7z" fill="#FBFAFC"/><path d="M646 959c4.472.558 7.733 2.385 11.438 4.813l1.821 1.182c8.067 5.381 17.288 11.893 22.741 20.005-1.84 4.967-5.886 7.743-10.313 10.375-5.005 1.164-9.416.972-13.906-1.691-5.113-4.112-7.738-8.513-9.781-14.684l-.68-1.93c-1.794-5.925-1.504-11.936-1.32-18.07z" fill="#FAF9FB"/><path d="M1472 959c.55 11.179.402 21.798-6.813 31.063-3.543 3.623-7.211 5.768-12.386 6.062-5.686-.309-9.697-2.191-13.801-6.125-2-3-2-3-1.852-4.934 2.978-7.224 11.298-12.35 17.415-16.879l1.855-1.38C1467.225 959 1467.225 959 1472 959z" fill="#FCFBFC"/><path d="M510 1030h2c1.13 2.206 2.254 4.414 3.375 6.625l.96 1.871c4.224 8.358 6.223 16.277 4.2 25.66-1.73 4.667-4.6 7.057-8.535 9.844-5.81 1.937-10.517 1.417-16-1 2.765-14.9 7.05-29.465 14-43z" fill="#FAFAFB"/><path d="M1607 1030c3.432 2.746 4.768 6.543 6.375 10.5l.916 2.239c3.709 9.377 7.709 20.095 7.709 30.261-4.367 2.464-8.078 2.648-13 2-4.273-1.319-7.1-3.567-9.438-7.375-3.537-8.29-2.35-17.397.688-25.625 1.864-4.349 3.86-8.255 6.75-12z" fill="#FAF9FB"/><path d="M709 236c3.9-.163 6.71-.083 10.5 1 8.078 2.233 17.35 1.567 25.5 0-1.681 6.487-3.53 12.768-6 19-10.573-.881-21.278-2.047-29-10-2.125-3.125-2.125-3.125-3-6 .813-2.375.813-2.375 2-4z" fill="#937CAA"/><path d="M1383 831c3.15 1.35 4.787 2.663 6.742 5.465l1.523 2.148 1.61 2.324c1.147 1.626 2.296 3.251 3.445 4.875l1.81 2.567c3.734 5.234 7.603 10.372 11.463 15.513l1.704 2.292 1.51 2.017C1414 870 1414 870 1415 873l-15 6-2.875-7.5c-3.427-8.89-7.091-17.676-10.835-26.438-.413-.975-.826-1.951-1.25-2.957l-1.12-2.62c-.926-2.502-1.555-4.843-1.92-7.485l1-1z" fill="#31275A"/><path d="M1319 414c-7.936 8.68-18.132 13.783-29.973 14.316-7.69.15-14.686.16-22.027-2.316 1-2 1-2 3.123-2.822.927-.264 1.855-.527 2.81-.8l3.132-.891 3.372-.925 3.422-.945c6.691-1.805 13.366-3.415 20.204-4.555l2.1-.35c4.662-.704 9.14-.801 13.837-.712z" fill="#31285A"/><path d="M508 1034c1.253 3.62.678 6.28 0 10a240.17 240.17 0 00-.316 7.148l-.063 1.993c-.065 2.078-.124 4.156-.183 6.234l-.131 4.254A4640.4 4640.4 0 00507 1074l2 1-3.688.125-2.074.07c-2.689-.234-4.783-1.103-7.238-2.195 2.533-13.646 6.755-26.163 12-39z" fill="#B8AECA"/><path d="M756 1232h1v33l-12 2 1.645-4.61c5.375-14.99 5.375-14.99 9.355-30.39z" fill="#7F9164"/><path d="M707 779a70.758 70.758 0 019.738 4.574l2.712 1.514 2.862 1.6A271.538 271.538 0 00750 800c1.836.806 3.67 1.618 5.5 2.438L759 804c-3.341 1.114-3.786.966-6.895-.266l-2.364-.932-2.554-1.052-2.65-1.077C731.22 795.145 718.122 788.823 706 781l1-2z" fill="#F3F1F5"/><path d="M1213 255c1.418.285 2.834.578 4.25.875l2.39.492c2.328.625 4.25 1.481 6.36 2.633l-2 7-1-3-3.25-.375c-3.129-.521-5.085-1.026-7.75-2.625l1-5z" fill="#A99ABE"/><path d="M842 1301h2c1.438 2.082 1.438 2.082 3 4.813 1.61 2.788 3.213 5.506 5 8.187l-11-1c-.143-8.571-.143-8.571 1-12z" fill="#B8ADCA"/><path d="M1225 259c3.809.672 7.414 1.533 11 3 1 3 1 3 0 6l-11-3c-1-4-1-4 0-6z" fill="#E7E1EF"/><path d="M735 794c5.322 1.636 10.31 3.839 15.375 6.125l2.52 1.129c2.036.913 4.07 1.828 6.105 2.746-3.543 1.181-4.24.777-7.598-.582l-2.677-1.076-2.788-1.155-2.798-1.119c-6.863-2.792-6.863-2.792-9.139-5.068l1-1z" fill="#E8E5EC"/><path d="M1380.75 285.875l2.113.027c1.713.024 3.425.06 5.137.098l-2 3a76.133 76.133 0 01-8.625-.313c-.802-.06-1.604-.122-2.43-.185A523.142 523.142 0 011369 288c3.742-2.45 7.442-2.23 11.75-2.125z" fill="#BBC48F"/><path d="M717 1266c-1.12 1.65-2.246 3.294-3.375 4.938l-1.898 2.777C710 1276 710 1276 708 1277c.397-1.63.818-3.254 1.25-4.875l.703-2.742C711 1267 711 1267 712.984 1265.617 715 1265 715 1265 717 1266z" fill="#A5A3A8"/><path d="M1299 391l4 2c-1 3-1 3-3.063 4.188L1298 398l1-7z" fill="#A494BA"/></svg>