<svg xmlns="http://www.w3.org/2000/svg" width="1400" height="1013"><path d="M1003.64 121.86a295.177 295.177 0 004.532 4.03c12.114 10.61 24.041 22.012 33.945 34.731 1.94 2.451 4.003 4.717 6.133 7.004 20.327 22.378 36.731 48.838 51.472 75.103 1.743 3.1 3.51 6.186 5.278 9.272l2-1 4 10h2l.313 2.625c.731 3.593 1.793 6.242 3.687 9.375l3 1c1.316 2.547 1.316 2.547 2.563 5.75l1.253 3.172L1125 286c.36.877.722 1.753 1.094 2.656.906 2.344.906 2.344 1.843 6.094L1129 298l3 1-1 3c1.201 1.908 1.201 1.908 2.938 3.688l1.714 1.886L1137 309l-2 3c2.722 4.221 2.722 4.221 6 8 .608 2.025 1.011 4.055 1.438 6.125.467 2.096.467 2.096 2.562 3.875v3l1.438 1.75c1.562 2.25 1.562 2.25 2 5.625.64 4.129 2.24 6.22 4.562 9.625l-1 3h2l-.688 2.75c-.633 3.185-.633 3.185.938 5.313L1156 363c1.75 2.563 1.75 2.563 3 5l-1 3h2l.367 1.758c.783 3.651 1.599 7.143 2.82 10.68C1164 386 1164 386 1163 388l2 2 1 3-2 3 .875 1.625c2.3 4.854 4.125 9.982 4.125 15.375a176.3 176.3 0 001 5c.6 2.796 1 5.129 1 8 1.085 4.506 2.427 8.14 5 12l-1.563 1.063c-1.787 1.987-1.787 1.987-1.312 5.312.669 3.58.669 3.58 2.438 6.188 1.772 3.006 1.59 5.004 1.437 8.437l1 2-1.188 2.25L1176 466c1.763 3.312 1.763 3.312 4 6l-2 2c-.918 3.428-.918 3.428-1 7l1.5 1.5 1.5 1.5c-.313 3.5-.313 3.5-1 7v9l1 1c.099 1.81.13 3.625.125 5.438l.008 2.996C1180 512 1180 512 1179 514l2 2-1.5 3.313c-1.688 3.487-1.688 3.487-1.5 6.687l-.063 3.375c-.048 3.457-.048 3.457.563 6.125 1.119 5.594.323 10.922-.5 16.5a510.857 510.857 0 00-.5 5.813l-.258 3.113a376.895 376.895 0 00-.422 5.93l-.195 2.644-.148 2.344c-.582 2.632-1.747 4.12-3.477 6.156l1.063 1.75c1.111 2.668.964 3.597-.063 6.25l-2 3 1 3c-.14 5.575-1.475 10.661-3 16a140.59 140.59 0 00-.5 4.563c-.353 3.73-1.266 6.89-2.5 10.437l-.5 3.75c-.5 3.25-.5 3.25-2.5 5.25v2l-1 2v6l-2 2a280.14 280.14 0 00-1 4l-2 3v3a93.306 93.306 0 01-1 4l-.535 2.14L1155 666c2.417-2.4 4.817-4.805 7.148-7.29 20.208-21.199 47.34-33.525 75.852-38.71l3.746-.688c34.593-5.27 72.193-.558 101.328 19.84 2.762 2.179 5.35 4.453 7.926 6.848l1.495 1.355c7.724 7.045 13.62 14.306 18.505 23.645l.949 1.811c13.578 26.552 13.32 58.185 4.426 86.189-4.786 14.094-12.012 26.475-21.375 38l-2.25 2.863c-4.186 5.255-8.557 10.13-13.414 14.774-1.91 1.931-3.661 3.887-5.423 5.948-4.08 4.681-8.437 9.05-12.85 13.415l-2.362 2.348c-1.898 1.886-3.798 3.77-5.701 5.652l2.173.004c6.796.018 13.591.06 20.387.128 3.493.034 6.985.06 10.478.064 4.027.005 8.053.05 12.08.097l3.754-.012c8.51.142 15.631 1.531 22.032 7.492 5.63 6.11 8.186 12.701 8.257 20.966l.03 2.763.012 2.951.017 3.075c.01 2.145.016 4.29.02 6.435.01 3.262.041 6.522.073 9.783l.015 6.27.038 2.927c-.029 8.727-1.848 16.12-7.366 23.057-8.324 7.954-15.226 8.438-26.294 8.36l-4.077.009c-3.724.006-7.448-.006-11.172-.02-4.02-.014-8.039-.01-12.059-.007-6.96.001-13.921-.008-20.882-.025a14731.65 14731.65 0 00-30.193-.036c-16.33-.006-32.659-.026-48.988-.055-15.86-.027-31.722-.048-47.583-.061l-2.963-.003-14.718-.011c-40.69-.031-81.38-.084-122.071-.151l-.592 1.827-.793 2.421-.78 2.39c-1.266 3.582-2.914 6.925-4.647 10.3l-1.067 2.095C1022.916 980.74 1004.628 998.83 977 1008c-27.057 8.127-56.727 4.275-81.402-8.96C885.472 993.396 874.69 986.505 871 975c-3.207-11.661 2-21.195 7.156-31.379l1.122-2.23c.906-1.798 1.814-3.594 2.722-5.391l-3.513.08c-4.342.09-8.685.147-13.028.195-1.871.025-3.743.059-5.615.102-18.918.429-18.918.429-25.9-4.392-2.647-1.341-4.094-.82-6.881.015-1.694.65-3.382 1.318-5.063 2-31.1 9.834-65.72 6.226-94.562-8.625-7.401-3.91-14.202-8.483-20.745-13.704-3.534-2.698-4.892-3.706-9.49-3.503L694 909h-3l-.078 1.688c-.683 9.193-3.683 14.74-10.629 20.769-7.116 4.789-13.25 5.01-21.656 5.012l-3.598.023c-2.505.01-5.01.013-7.516.009-3.813-.001-7.623.04-11.435.085-2.442.005-4.884.008-7.326.008l-3.423.05c-6.779-.06-11.359-1.081-17.16-4.663-2.691-1.212-3.91-.929-6.679-.043l-2.457.957c-4.007 1.455-8.07 2.33-12.23 3.23l-2.305.515c-28.788 6.334-60.693 1.838-86.418-12.663a99.793 99.793 0 01-6.649-4.641c-9.34-6.968-15.824-8.71-27.441-7.336l-.125 3.438c-.84 6.416-4.192 11.378-9.168 15.43-5.016 3.42-8.796 5.245-14.938 5.309l-3.238.039-3.504.022-3.614.025c-2.53.014-5.06.024-7.589.032-3.847.017-7.694.061-11.54.105-2.461.01-4.921.019-7.382.026l-3.46.053c-6.514-.018-11.423-.795-17.298-3.68-3.782-1.409-6.785-.088-10.394 1.326-1.491.503-2.985.999-4.48 1.488l-2.205.737c-24.581 7.737-56.215 3.21-78.94-8.15-10.028-5.237-18.363-11.976-26.125-20.2-3.16 1.421-5.891 3.282-8.718 5.274-34.79 24.295-79.972 32.02-121.446 24.69A492.392 492.392 0 01125 937l-2.394-.488C94.036 930.41 69.141 915.912 48 896l-2.164-1.934C17.337 867.485 2.75 826.142 1 788c-1.377-41.617 9.49-83.93 37.75-115.5.73-.772 1.46-1.544 2.21-2.34 1.9-2.012 3.654-4.09 5.415-6.222 4.331-4.96 9.427-8.925 14.625-12.938l2.66-2.066c34.869-26.242 78.932-35.523 121.903-29.746 15.196 2.248 29.354 6.768 43.437 12.812l-.5-3.313C228 625 228 625 228 622h-2v-7c-.485-2.344-1.162-4.4-2.062-6.625-1.238-3.134-.938-6.02-.938-9.375l-1.062-1.625c-1.436-3.636-.575-6.55.062-10.375h-2a490.809 490.809 0 01-.562-4.75l-.317-2.672c-.116-2.462.143-4.243.879-6.578h-2l1-8h-2c.03-1.114.03-1.114.063-2.25.051-2.623.051-2.623-.563-4.574-.605-2.635-.596-5.038-.562-7.739l.027-2.878L216 545c0-4.066-.408-8.106-1.625-12-.579-3.087.122-5.925.625-9 0-3.204-.743-5.094-2-8l3-1-2-3 2-3-2-3 2-3-2-3c.303-1.34.638-2.674 1-4a139.724 139.724 0 00-1-4l1-2c-.894-2.61-.894-2.61-2-5l2-1-1-4 3-1-.437-2c-1.984-10.579-1.984-10.579-.563-15v-4c1.5-1.75 1.5-1.75 3-3l-2-5 2-2c.044-2 .04-4 0-6 .403-2.755.995-4.987 2.063-7.563 1.357-3.528.947-6.373.375-10.062C221 421 221 421 222 419l2-1v-2l-2-2 3-1c1.441-1.715 1.441-1.715 2-4-.787-2.72-.787-2.72-2-5l2-2-1-3c.813-2.313.813-2.313 2-5 1.159-3.22 2-5.57 2-9 .313-3.563.313-3.563 1-7l3-2-1-2 2-2c.31-1.91.31-1.91.375-4 .207-2.156.207-2.156.625-4 2.063-1.5 2.063-1.5 4-2l-2-5 2-1v-7l1.875-.625c3.009-1.947 3.291-3.97 4.125-7.375v-3l1.438-1.688c2.267-3.356 2.228-6.299 2.562-10.312l3-1c1.416-3.304 2.008-6.098 2.313-9.688L256 312a99.185 99.185 0 015-3c1.275-2.825 1.275-2.825 2-6l1.063-3.063c.992-2.885.992-2.885 1.437-5.75L266 292l2-1-.125-2.875C268 285 268 285 270 283c2.125-.625 2.125-.625 4-1l-.687-1.813L273 278c1.313-1.563 1.313-1.563 3-3 2.093-2.848 2.093-2.848 2.938-5.875 1.034-3.044 2.373-5.407 4.062-8.125l1-3 1.438-1.375c1.933-2.01 2.645-4.016 3.562-6.625h2l2-7h2v-3h2l.68-2.484c1.626-4.332 3.922-7.908 6.445-11.766a876.64 876.64 0 002.758-4.266l1.23-1.883c1.048-1.588 1.048-1.588.887-3.601l3-3 1-3h2l.75-1.563c4.771-9.303 10.96-17.185 17.563-25.25l1.717-2.104a6597.01 6597.01 0 013.404-4.165 1091.59 1091.59 0 004.093-5.047c4.97-6.14 10.142-12.044 15.473-17.871l2.414-2.695c5.596-6.205 11.376-12.199 17.274-18.118.7-.705 1.4-1.41 2.123-2.136 4.566-4.554 9.287-8.862 14.189-13.051l1.62-1.4c70.848-61.078 158.769-100.485 608.02 5.26zM1120 280l1 2zm-853 13l1 2zm892 83l1 2zm-926 3l1 2zm928 3l1 2zm-931 13l1 2zm-2 3v3l2-2-2-1zm-5 23l1 2zm-8 72l1 2zm0 36l1 2zm6 52l1 2zm4 24l1 2zm940 21l1 2z" fill="#007C01"/><path d="M710 549c-2.959 3.077-6.073 4.758-9.844 6.719-2.176 1.173-2.176 1.173-3.715 2.84-2.34 2.34-5.421 3.178-8.441 4.441l-2 2c-2.048 1.034-4.128 1.967-6.223 2.902-2.115 1.045-2.115 1.045-2.777 4.098-4.333 3-4.333 3-7 3a536.412 536.412 0 00-3 3 82.029 82.029 0 01-4.563 2.75l-2.378 1.36L658 583l-2-1-.813 1.813c-1.235 2.275-2.174 3.57-4.187 5.187-2.344.502-2.344.502-5.168.67l-3.262.195c-6.628.25-13.253.356-19.885.416l-4.824.055c-3.44.039-6.881.075-10.322.11-5.458.054-10.917.115-16.375.177-11.596.13-23.193.254-34.789.377-12.503.133-25.007.267-37.51.409-5.407.06-10.815.118-16.222.172-3.388.034-6.776.073-10.164.111-1.55.018-3.1.033-4.65.048-8.198.075-16.371.287-24.557.735l-2.264.123C446.25 593.466 435.4 598.228 425 609c-6.042 7.675-9.082 16.11-9.205 25.788l-.03 2.041c-.032 2.219-.057 4.437-.081 6.655l-.063 4.624c-.055 4.05-.105 8.102-.153 12.152-.05 4.136-.106 8.272-.161 12.408-.108 8.11-.21 16.221-.307 24.332l2.382.926c4.085 1.676 7.21 4.304 10.618 7.074l2.387 1.938c9.952 8.498 18.24 19.073 23.613 31.062v2c2.623-2.438 4.576-5.132 6.625-8.063 4.094-5.687 8.576-10.839 13.375-15.937l1.633-1.828c18.213-19.586 47.403-30.621 73.65-32.394 3.304-.115 6.598-.157 9.904-.153l3.532-.002c10.917.138 20.937 1.93 31.281 5.377l.011-2.21c.038-6.914.095-13.828.173-20.741.04-3.553.071-7.106.087-10.66.018-4.096.068-8.191.12-12.287l.003-3.821c.135-8.171.88-15.802 6.282-22.296 8.103-7.733 17.217-9.602 28.105-9.516l3.316-.012c2.3-.003 4.598.005 6.898.022 3.496.02 6.99 0 10.485-.026 2.247.003 4.493.008 6.739.016l3.129-.025c9.802.125 17.772 2.87 24.96 9.622 4.492 5.135 6.821 11.257 6.812 18.06l.004 2.464-.01 2.677v2.839c0 3.095-.009 6.19-.016 9.285l-.005 6.44c-.003 5.648-.013 11.297-.024 16.946-.01 5.764-.015 11.529-.02 17.293-.01 11.31-.028 22.62-.049 33.93 2.44-2.433 4.873-4.867 7.254-7.36 22.773-23.581 52.684-35.202 85.152-36.043C796.164 681.46 807.88 682.96 820 687l.004-2.249c.018-7.031.06-14.062.128-21.093.034-3.614.06-7.228.064-10.842.004-3.495.033-6.99.077-10.484.02-1.966.014-3.932.008-5.899.14-8.646 1.536-15.503 7.24-22.226 7.693-7.303 17.03-8.818 27.26-8.738l3.316-.012c2.3-.003 4.598.005 6.898.022 3.496.02 6.99 0 10.485-.026 2.247.003 4.493.008 6.739.016l3.129-.025c9.984.128 17.755 2.95 25.03 9.83 4.94 5.26 6.881 11.408 6.85 18.548l-.001 3.396-.032 3.618-.008 3.74c-.011 3.934-.037 7.866-.062 11.799-.011 2.67-.02 5.341-.027 8.012A6358.34 6358.34 0 01917 684l2.87-.063c3.56-.07 7.12-.12 10.68-.157 1.532-.02 3.064-.047 4.596-.082 11.933-.265 22.014.563 31.072 9.172 7.488 8.949 11.053 22.06 15.22 32.817 1.267 3.255 2.537 6.509 3.808 9.762l.934 2.395c3.168 8.097 6.487 16.126 9.82 24.156l21 1 3-9c.578-1.548 1.17-3.091 1.79-4.623l.962-2.39 1.014-2.49 1.08-2.672c.752-1.857 1.505-3.714 2.259-5.57a4222.26 4222.26 0 003.383-8.359c2.148-5.308 4.32-10.606 6.512-15.896l1-2.418c.92-2.212 1.854-4.417 2.793-6.621l.806-1.94c2.97-6.866 7.287-11.128 13.588-14.959 5.36-2.024 10.41-2.202 16.092-2.176h2.485c2.7 0 5.4.008 8.1.016l5.628.005c4.93.003 9.86.013 14.79.024 5.035.01 10.069.015 15.103.02 9.872.01 19.743.028 29.615.049l.438-2.855c2.686-15.034 20.795-29.456 32.569-37.8 33.627-23.086 77.005-30.533 116.938-23.443 19.895 4.054 39.09 12.182 54.055 26.098l1.495 1.355c7.724 7.045 13.62 14.306 18.505 23.645l.949 1.811c13.578 26.552 13.32 58.185 4.426 86.189-4.786 14.094-12.012 26.475-21.375 38l-2.25 2.863c-4.186 5.255-8.557 10.13-13.414 14.774-1.91 1.931-3.661 3.887-5.423 5.948-4.08 4.681-8.437 9.05-12.85 13.415l-2.362 2.348c-1.898 1.886-3.798 3.77-5.701 5.652l2.173.004c6.796.018 13.591.06 20.387.128 3.493.034 6.985.06 10.478.064 4.027.005 8.053.05 12.08.097l3.754-.012c8.51.142 15.631 1.531 22.032 7.492 5.63 6.11 8.186 12.701 8.257 20.966l.03 2.763.012 2.951.017 3.075c.01 2.145.016 4.29.02 6.435.01 3.262.041 6.522.072 9.783.007 2.09.012 4.18.016 6.27l.038 2.927c-.029 8.727-1.848 16.12-7.366 23.057-8.324 7.954-15.226 8.438-26.294 8.36l-4.077.009c-3.724.006-7.448-.006-11.172-.02-4.02-.014-8.039-.01-12.059-.007-6.96.001-13.921-.008-20.882-.025a14731.65 14731.65 0 00-30.193-.036c-16.33-.006-32.659-.026-48.988-.055-15.86-.027-31.722-.048-47.583-.061l-2.963-.003-14.718-.011c-40.69-.031-81.38-.084-122.071-.151l-.592 1.827-.793 2.421-.78 2.39c-1.266 3.582-2.914 6.925-4.648 10.3l-1.066 2.095C1022.916 980.74 1004.628 998.83 977 1008c-27.057 8.127-56.727 4.275-81.402-8.96C885.472 993.396 874.69 986.505 871 975c-3.207-11.661 2-21.195 7.156-31.379l1.122-2.23c.906-1.798 1.814-3.594 2.722-5.391l-3.513.08c-4.342.09-8.685.147-13.028.195-1.871.025-3.743.059-5.615.102-18.918.429-18.918.429-25.9-4.392-2.647-1.341-4.094-.82-6.881.015-1.694.65-3.382 1.318-5.063 2-31.1 9.834-65.72 6.226-94.563-8.625-7.4-3.91-14.2-8.483-20.744-13.704-3.534-2.698-4.892-3.706-9.49-3.503L694 909h-3l-.078 1.687c-.683 9.194-3.683 14.74-10.629 20.77-7.116 4.789-13.25 5.01-21.656 5.012l-3.598.023c-2.505.01-5.01.013-7.516.009-3.813-.001-7.623.04-11.435.085-2.442.005-4.884.008-7.326.008l-3.423.05c-6.779-.06-11.359-1.081-17.16-4.663-2.691-1.212-3.91-.929-6.679-.044l-2.457.958c-4.007 1.455-8.07 2.33-12.23 3.23l-2.305.515c-28.788 6.334-60.693 1.838-86.418-12.663a99.793 99.793 0 01-6.649-4.641c-9.34-6.968-15.824-8.71-27.441-7.336l-.125 3.437c-.84 6.417-4.192 11.379-9.168 15.43-5.016 3.42-8.796 5.246-14.938 5.31l-3.238.039-3.504.022-3.614.025c-2.53.014-5.06.024-7.589.032-3.847.017-7.694.061-11.54.105-2.461.01-4.921.019-7.382.026l-3.46.053c-6.514-.018-11.423-.795-17.298-3.68-3.782-1.409-6.785-.088-10.394 1.326-1.491.503-2.985.999-4.48 1.488l-2.205.737c-24.581 7.737-56.215 3.21-78.94-8.15-10.028-5.237-18.363-11.976-26.125-20.2-3.16 1.421-5.891 3.282-8.718 5.274-34.79 24.295-79.972 32.02-121.446 24.69A492.392 492.392 0 01125 937l-2.394-.488C94.036 930.41 69.141 915.912 48 896l-2.164-1.934C17.337 867.485 2.75 826.142 1 788c-1.377-41.617 9.49-83.93 37.75-115.5.73-.772 1.46-1.544 2.21-2.34 1.9-2.012 3.654-4.09 5.415-6.223 4.331-4.96 9.427-8.924 14.625-12.937l2.66-2.066c34.869-26.242 78.932-35.523 121.903-29.747C217.002 623.84 244.928 637.182 268 659l2.89 2.66c7.264 6.83 13.813 14.505 14.208 24.918l-.036 2.672-.027 2.703L285 694l3.305-1.172c10.768-3.748 21.483-6.745 32.695-8.828l3.633-.688c9.296-1.445 18.533-1.403 27.914-1.359l4.216.01c3.412.01 6.825.021 10.237.037l.011-2.284c.038-7.177.095-14.353.173-21.53.04-3.687.071-7.375.087-11.062.169-37.071.169-37.071 8.541-52.562l1.04-1.999c3.984-7.45 8.954-13.811 15.148-19.563l1.816-1.797c9.868-9.377 21.065-14.899 34.184-18.203l3.543-1.026c4.966-1.232 9.806-1.308 14.902-1.353l3.145-.05c3.511-.054 7.023-.094 10.535-.134a8986.665 8986.665 0 0124.81-.324c6.04-.072 12.082-.156 18.123-.25 68.979-1.074 137.957-.97 206.942-.863z" fill="#FAFBFA"/><path d="M1003.64 121.86a295.177 295.177 0 004.532 4.03c12.114 10.61 24.041 22.012 33.945 34.731 1.94 2.451 4.003 4.717 6.133 7.004 20.327 22.378 36.731 48.838 51.472 75.103 1.743 3.1 3.51 6.186 5.278 9.272l2-1 4 10h2l.313 2.625c.731 3.593 1.793 6.242 3.687 9.375l3 1c1.316 2.547 1.316 2.547 2.563 5.75l1.253 3.172L1125 286l1.094 2.656c.906 2.344.906 2.344 1.843 6.094L1129 298l3 1-1 3c1.201 1.908 1.201 1.908 2.938 3.688l1.714 1.886L1137 309l-2 3c2.722 4.221 2.722 4.221 6 8 .608 2.025 1.011 4.055 1.438 6.125.467 2.096.467 2.096 2.562 3.875v3l1.438 1.75c1.562 2.25 1.562 2.25 2 5.625.64 4.129 2.24 6.22 4.562 9.625l-1 3h2l-.688 2.75c-.633 3.185-.633 3.185.938 5.313L1156 363c1.75 2.563 1.75 2.563 3 5l-1 3h2l.367 1.758c.783 3.651 1.599 7.143 2.82 10.68C1164 386 1164 386 1163 388l2 2 1 3-2 3 .875 1.625c2.3 4.854 4.125 9.982 4.125 15.375a176.3 176.3 0 001 5c.6 2.796 1 5.129 1 8 1.085 4.506 2.427 8.14 5 12l-1.563 1.063c-1.787 1.987-1.787 1.987-1.312 5.312.669 3.58.669 3.58 2.438 6.188 1.772 3.006 1.59 5.004 1.437 8.437l1 2-1.188 2.25L1176 466c1.763 3.312 1.763 3.312 4 6l-2 2c-.918 3.428-.918 3.428-1 7l1.5 1.5 1.5 1.5c-.313 3.5-.313 3.5-1 7v9l1 1c.099 1.81.13 3.625.125 5.438l.008 2.996C1180 512 1180 512 1179 514l2 2-1.5 3.313c-1.688 3.487-1.688 3.487-1.5 6.687l-.063 3.375c-.048 3.457-.048 3.457.563 6.125 1.119 5.594.323 10.922-.5 16.5a510.857 510.857 0 00-.5 5.813l-.258 3.113a376.895 376.895 0 00-.422 5.93l-.195 2.644-.148 2.344c-.582 2.632-1.747 4.12-3.477 6.156l1.063 1.75c1.111 2.668.964 3.597-.063 6.25l-2 3 1 3c-.14 5.575-1.475 10.661-3 16a140.59 140.59 0 00-.5 4.563c-.353 3.73-1.266 6.89-2.5 10.437l-.5 3.75c-.5 3.25-.5 3.25-2.5 5.25v2l-1 2v6l-2 2a280.14 280.14 0 00-1 4l-2 3v3a144.442 144.442 0 01-1 4l-.395 2.113c-1.24 6.525-3.706 10.932-7.293 16.512-1.634 2.675-1.634 2.675-2.312 7.375h-65l-.148-18.836c-.036-3.974-.072-7.948-.11-11.922-.06-6.286-.118-12.573-.164-18.86-.037-5.076-.084-10.153-.136-15.23a1695.53 1695.53 0 01-.045-5.766c-.22-34.714-6.772-64.692-30.397-91.386l-1.82-2.074c-16.003-17.077-39.22-28.257-62.18-31.926-.86-16.047-1.156-32.061-1.2-48.13-.011-4.087-.03-8.174-.052-12.261-.061-11.605-.116-23.21-.15-34.816.096-75.273.096-75.273-14.598-148.793l-.608-2.04C963.028 217.297 951.3 193.667 936 173l-1.331-1.807C924.606 157.661 913.39 145.295 900 135l-3.055-2.531c-39.804-32.865-90.501-48.174-140.758-55.594l-3.228-.481c-3.648-.515-7.3-.974-10.959-1.394l-2.37-.272c-15.843-1.745-31.607-2.043-47.536-1.989-3.355.012-6.71.005-10.066-.007-20.662-.06-41.217.693-61.653 3.956l-3.198.507C560.245 86.647 509.145 108.282 467 148l-2.219 2.09c-32.006 31.054-50.488 74.88-60.031 117.66l-.71 3.09c-5.487 25.836-5.46 51.785-5.344 78.053.019 5.084.02 10.17.024 15.254.01 9.583.034 19.165.064 28.748.034 10.929.05 21.858.065 32.787.031 22.44.084 44.879.151 67.318l-2.68.61-3.528.807-3.491.797C371.159 499.532 355.414 507.128 341 519l-2.836 2.336c-16.407 14.2-26.642 32.682-32.914 53.289l-.64 2.061c-2.504 8.586-2.756 17.37-2.815 26.262l-.03 2.842c-.032 3.062-.057 6.124-.081 9.187l-.063 6.414c-.055 5.599-.105 11.198-.153 16.798-.05 5.725-.106 11.45-.161 17.174-.108 11.212-.21 22.425-.307 33.637l-3.828 1.44-2.153.811a194.175 194.175 0 01-7.019 2.437l-2.313.761L284 695l.14-2.02c.39-9.929-1.611-17.506-8.265-25.043A483.858 483.858 0 00271 663l-2.176-2.39c-9.5-10.173-21.156-18.793-33.887-24.423-5.637-2.607-5.637-2.607-7.019-5.277-.293-2.16-.293-2.16.082-5.91v-3h-2v-7c-.485-2.344-1.162-4.4-2.063-6.625-1.237-3.134-.937-6.02-.937-9.375l-1.063-1.625c-1.435-3.636-.574-6.55.063-10.375h-2a490.809 490.809 0 01-.563-4.75l-.316-2.672c-.116-2.462.143-4.243.879-6.578h-2l1-8h-2l.063-2.25c.051-2.623.051-2.623-.563-4.574-.605-2.635-.596-5.038-.563-7.739l.028-2.878L216 545c0-4.066-.408-8.106-1.625-12-.579-3.087.122-5.925.625-9 0-3.204-.743-5.094-2-8l3-1-2-3 2-3-2-3 2-3-2-3c.303-1.34.638-2.674 1-4a139.724 139.724 0 00-1-4l1-2c-.894-2.61-.894-2.61-2-5l2-1-1-4 3-1-.438-2c-1.983-10.579-1.983-10.579-.562-15v-4c1.5-1.75 1.5-1.75 3-3l-2-5 2-2c.044-2 .04-4 0-6 .403-2.755.995-4.987 2.063-7.563 1.357-3.528.947-6.373.375-10.062C221 421 221 421 222 419l2-1v-2l-2-2 3-1c1.441-1.715 1.441-1.715 2-4-.787-2.72-.787-2.72-2-5l2-2-1-3c.813-2.313.813-2.313 2-5 1.159-3.22 2-5.57 2-9 .313-3.563.313-3.563 1-7l3-2-1-2 2-2c.31-1.91.31-1.91.375-4 .207-2.156.207-2.156.625-4 2.063-1.5 2.063-1.5 4-2l-2-5 2-1v-7l1.875-.625c3.009-1.947 3.291-3.97 4.125-7.375v-3l1.438-1.688c2.267-3.356 2.228-6.299 2.562-10.312l3-1c1.416-3.304 2.008-6.098 2.313-9.688L256 312a99.185 99.185 0 015-3c1.275-2.825 1.275-2.825 2-6l1.063-3.063c.992-2.885.992-2.885 1.437-5.75L266 292l2-1-.125-2.875C268 285 268 285 270 283c2.125-.625 2.125-.625 4-1l-.688-1.813L273 278c1.313-1.563 1.313-1.563 3-3 2.093-2.848 2.093-2.848 2.938-5.875 1.034-3.044 2.373-5.407 4.062-8.125l1-3 1.438-1.375c1.933-2.01 2.645-4.016 3.562-6.625h2l2-7h2v-3h2l.68-2.484c1.626-4.332 3.922-7.908 6.445-11.766a876.64 876.64 0 002.758-4.266l1.23-1.883c1.048-1.588 1.048-1.588.887-3.601l3-3 1-3h2l.75-1.563c4.771-9.303 10.96-17.185 17.563-25.25l1.717-2.104a6597.01 6597.01 0 013.404-4.165 1091.59 1091.59 0 004.093-5.047c4.97-6.14 10.142-12.044 15.473-17.871l2.414-2.695c5.596-6.205 11.376-12.199 17.274-18.118.7-.705 1.4-1.41 2.123-2.136 4.566-4.554 9.287-8.862 14.189-13.051l1.62-1.4c70.848-61.078 158.769-100.485 608.02 5.26zM1120 280l1 2zm-853 13l1 2zm892 83l1 2zm-926 3l1 2zm928 3l1 2zm-931 13l1 2zm-2 3v3l2-2-2-1zm-5 23l1 2zm-8 72l1 2zm0 36l1 2zm6 52l1 2zm4 24l1 2zm940 21l1 2z" fill="#3CCFFE"/><path d="M953.59 514.672l3.974-.022c24.134-.047 45.31 8.68 62.616 25.44 22.467 22.657 24.998 51.037 25.445 81.148l.05 3.117c.088 5.428.165 10.856.233 16.284.071 5.57.18 11.137.297 16.706.084 4.323.14 8.646.19 12.969.028 2.053.066 4.106.115 6.158.273 11.864-.13 20.187-6.51 30.528a139.456 139.456 0 00-2.362 5.534l-1.112 2.76-1.128 2.843-1.223 3.045a4307.461 4307.461 0 00-3.8 9.505c-1.272 3.18-2.546 6.36-3.821 9.538-.788 1.965-1.574 3.93-2.358 5.897l-1.093 2.732-.941 2.36c-1.651 3.959-3.42 7.867-5.162 11.786h-21c-2.346-4.691-4.502-9.009-6.378-13.83l-1.276-3.257-1.338-3.444-2.149-5.458a3196.914 3196.914 0 01-5.227-13.348c-.976-2.511-1.959-5.019-2.949-7.524a872.16 872.16 0 01-2.752-7.052c-3.896-9.804-8.492-18.294-18.533-22.65-7.232-2.346-14.932-2.013-22.46-2.125-1.55-.033-3.098-.067-4.647-.103-3.764-.084-7.527-.151-11.291-.209l-.011-2.065c-.042-7.123-.111-14.244-.197-21.366-.03-2.655-.049-5.31-.063-7.964-.022-3.826-.068-7.65-.12-11.476l-.003-3.571c-.168-9.502-2.347-16.931-8.825-24.054-5.094-4.3-12.06-6.606-18.645-6.681l-2.995-.039-3.239-.022-3.345-.025c-2.341-.014-4.682-.024-7.024-.032-3.557-.017-7.114-.061-10.672-.105-2.278-.01-4.556-.019-6.834-.026l-3.195-.053c-8.487.025-15.003 2.023-22.145 6.604-7.65 8.185-8.427 16.564-8.394 27.414-.013 1.376-.028 2.752-.046 4.127-.04 3.588-.05 7.174-.054 10.761-.01 3.675-.047 7.348-.082 11.022A3053.25 3053.25 0 00821 688l-3.29-.84-4.335-1.097-2.16-.553c-32.338-8.159-65.157-.243-93.215 16.49-3.226 2.133-6.127 4.416-9 7l-2.54 2.184c-3.923 3.432-7.627 6.864-10.96 10.879L693 725h-2l-.018-3.584c-.057-11.167-.13-22.334-.218-33.5-.044-5.74-.084-11.48-.11-17.221-.027-5.544-.067-11.088-.117-16.632a1288.22 1288.22 0 01-.035-6.333c-.01-2.965-.037-5.93-.07-8.896l.005-2.622c-.136-8.883-2.34-15.967-8.468-22.485-5.488-4.813-11.736-6.822-18.946-6.904l-2.995-.039-3.223-.022-3.342-.025a2745.8 2745.8 0 00-7.005-.032 937.887 937.887 0 01-7.134-.062 1090.13 1090.13 0 00-10.332-.069l-3.186-.053c-9.153.027-17.557 2.25-24.35 8.686-6.138 7.562-6.056 16.832-6.065 26.113-.015 1.354-.032 2.707-.05 4.06a1324.78 1324.78 0 00-.08 10.584c-.019 3.614-.06 7.227-.1 10.84-.076 7.066-.126 14.13-.161 21.196l-3.29-.84-4.335-1.098-2.16-.552c-31.533-7.956-63.436-.787-91.057 15.18-16.32 9.906-27.732 23.671-38.158 39.31h-2l-1.363-2.824c-6.165-12.373-16.64-29.737-30.058-35.153-3.08-1.37-5.19-2.628-7.579-5.023-1.465-5.098-1.24-10.117-1.082-15.363.011-1.517.018-3.034.021-4.55.017-3.177.066-6.35.142-9.525.096-4.049.136-8.095.154-12.144.02-3.886.07-7.771.12-11.656l.022-2.215c.173-14.136 2.903-25.614 12.81-36.235 10.687-10.02 21.933-13.116 36.182-13.857l2.378-.127c8.114-.409 16.222-.535 24.344-.61a8127.26 8127.26 0 0115.188-.164c5.457-.054 10.914-.115 16.371-.177 12.558-.141 25.116-.275 37.674-.408 11.54-.123 23.08-.246 34.62-.378 5.414-.06 10.828-.118 16.242-.172 3.374-.034 6.749-.072 10.123-.111 1.553-.018 3.106-.033 4.658-.048 6.96-.063 13.916-.175 20.865-.59l2.824-.168c3.982-.853 5.148-3.208 7.344-6.502 2-.688 2-.688 4-1 1.67-.994 3.337-1.994 5-3h2l1-2c3.577-3 3.577-3 6-3l1.562-2.188c3.279-3.782 7.03-5.549 11.438-7.812 1.63-.867 3.254-1.742 4.875-2.625l2.18-1.164c1.978-1.128 1.978-1.128 3.449-2.727 1.722-1.708 3.373-2.572 5.558-3.609l2.098-1.008L707 551l2-1c-100.669-.178-100.669-.178-201.332.8-8.988.14-17.976.246-26.966.315-5.442.041-10.885.1-16.327.16-2.44.025-4.88.042-7.32.053-15.94.073-31.05.698-45.43 8.422l-1.99 1.026c-4.986 2.66-9.365 5.826-13.62 9.56C394 572 394 572 391.86 572.976c-2.383 1.313-2.761 2.574-3.859 5.024a148.457 148.457 0 01-3.125 3.75c-3.182 4.058-5.7 8.248-8.063 12.812l-.97 1.798c-5.975 11.95-7.44 25.032-7.451 38.202-.015 1.413-.032 2.825-.05 4.237-.044 3.656-.064 7.311-.08 10.968-.019 3.755-.06 7.51-.1 11.264-.077 7.323-.118 14.645-.161 21.969l-31-1c-.09-11.493-.164-22.985-.207-34.478-.021-5.338-.05-10.676-.095-16.014-.044-5.16-.067-10.322-.078-15.483a797.762 797.762 0 00-.043-5.877c-.122-11.468.4-21.28 4.423-32.148l1.177-3.258C350.115 553.53 367.67 536.498 388 527c10.512-4.406 20.622-6.057 31.967-6.283l2.332-.056c2.622-.06 5.244-.113 7.865-.165l2.874-.06c31.335-.658 62.677-.938 94.017-1.282 9.425-.103 18.85-.21 28.275-.316 16.91-.191 33.82-.38 50.731-.567 16.178-.18 32.355-.36 48.533-.542l3.002-.033a2104856.993 2104856.993 0 0044.604-.5l2.925-.034a388914.67 388914.67 0 0167.642-.754 66576.018 66576.018 0 0073.535-.851l13.657-.164c31.21-.383 62.42-.591 93.63-.721z" fill="#01A70C"/><path d="M682.336 217.797l3.153-.017c2.19-.01 4.38-.016 6.57-.02 3.274-.01 6.547-.04 9.82-.072 18.488-.095 36.514 1.46 54.371 6.5l3.294.914c29.777 8.576 55.748 25.698 71.116 53.123 10.237 19.102 15.29 39.29 18.09 60.712l.35 2.625c2.321 19.598 2.118 39.548 2.403 59.252.057 3.966.124 7.931.19 11.897.402 25.095.351 50.191.307 75.289-25.104.32-50.208.632-75.313.938l-2.852.034c-58.299.71-116.596 1.283-174.898 1.653l-2.443.016c-20.165.128-40.33.248-60.494.359-.595-15.583-1.14-31.157-1.316-46.75l-.063-4.935c-.044-3.4-.085-6.801-.124-10.202-.049-4.237-.102-8.473-.158-12.71-.215-16.587-.387-33.174-.433-49.762-.005-1.522-.012-3.044-.02-4.565-.19-34.296 6.742-71.6 30.114-98.076l2.152-2.55c25.075-29.041 64.667-40.227 101.638-43.234 4.85-.326 9.686-.398 14.546-.42z" fill="#3CCFFE"/><path d="M777 114l2.51.534c34.012 7.242 66.738 20.264 94.49 41.466l2.676 1.996c13.656 10.63 26.68 23.61 36.324 38.004l1.297 1.933C929.945 221.64 940.05 247.323 946 275l.8 3.215c1.91 7.923 2.906 15.882 3.825 23.973l.373 3.253c1.766 16.444 2.16 32.94 2.318 49.465l.064 5.63c.055 4.967.104 9.934.152 14.9.03 3.078.062 6.155.095 9.233.352 33.778.509 67.551.373 101.331-4.504.15-9.009.291-13.513.427-1.514.047-3.028.095-4.541.146-17.312.575-34.627.476-51.946.427l-.031-3.867c-.099-12.161-.202-24.322-.308-36.484-.055-6.248-.108-12.497-.158-18.746-.203-32.51-.203-32.51-.964-65.008l-.108-3.203C881.334 331.79 877.007 303.8 866 278l-.93-2.208C858.184 259.661 848.703 246 837 233l-1.945-2.2c-29.71-31.703-78.577-44.539-120.583-46.105-6.575-.165-13.146-.168-19.722-.133l-3.49.008c-17.77.057-34.792 1.007-52.26 4.43-1.713.295-3.427.586-5.14.875-40.895 7.29-78.5 29.138-102.526 63.21-12.043 17.54-19.183 37.214-24.084 57.79l-.603 2.46c-4.486 19.95-3.923 40.465-3.85 60.78.013 4.123.014 8.245.016 12.368.006 7.773.023 15.546.043 23.32.022 8.863.033 17.727.043 26.59.021 18.203.056 36.405.101 54.607-39.636 1.168-39.636 1.168-56.813 1.063a27703.993 27703.993 0 00-12.165-.05L431 492c-1.314-31.767-1.188-63.556-1.185-95.343 0-6.045-.012-12.09-.026-18.135-.013-5.937-.018-11.874-.018-17.812 0-3.502-.002-7.004-.013-10.505C429.595 286.699 440.524 218.093 487 171c2.565-2.472 5.24-4.75 8-7l2.98-2.488c39.122-32.11 91.384-48.1 141.02-53.512l2.72-.316c44.578-4.978 91.453-3.48 135.28 6.316z" fill="#D4D6D1"/><path d="M620 632h45v278h-43l-1-24-7 8c-18.961 15.862-41.73 20.346-65.766 18.75-25.566-2.611-47.804-15.327-64.136-35.047-8.695-11.75-14.671-25.537-18.098-39.703l-.564-2.319c-1.674-7.865-1.775-15.693-1.752-23.695.003-2.285-.02-4.567-.045-6.851-.116-26.905 10.066-51.21 28.252-71.018 17.293-17.357 40.657-26.326 64.921-26.492 14.227.097 27.534 1.379 40.188 8.375l3.09 1.668c7.557 4.232 13.698 8.383 18.91 15.332l1-101z" fill="#020202"/><path d="M846 632h45v278h-43l-1-24-3.375 4.063c-12.087 13.504-31.535 22.025-49.631 23.05-27.607.989-52.76-5.829-73.662-24.496-5.591-5.397-10.13-11.096-14.332-17.617l-1.328-1.914c-11.947-17.769-15.131-38.574-15.172-59.524l-.014-2.155c-.069-26.83 8.938-52.702 27.514-72.407 19.223-18.9 43.39-27.286 69.925-27.244 18.554.196 35.982 4.657 50.075 17.244 1.123.92 2.248 1.836 3.375 2.75C843 730 843 730 846 733V632z" fill="#020201"/><path d="M686.938 71.75l2.098-.001c20.802-.007 41.337.26 61.964 3.251l3.672.504c51.43 7.202 103.193 23.436 143.659 57.107 1.706 1.42 3.427 2.818 5.15 4.217C917.66 148.503 929.47 161.984 940 177l1.197 1.695c35.123 50.38 44.756 112.95 45.008 173.096l.03 4.47c.027 3.985.048 7.97.068 11.954.022 4.187.05 8.373.076 12.56.05 7.9.095 15.801.138 23.702.05 9.006.105 18.013.16 27.019.113 18.501.22 37.003.323 55.504l-33-1c-.15-7.917-.296-15.833-.437-23.75l-.07-3.814a5648.24 5648.24 0 01-.685-51.744 20071.142 20071.142 0 00-.138-15.28l-.028-3.073c-.045-5.038-.087-10.076-.12-15.115-.229-44.3-.229-44.3-5.522-88.224l-.413-2.424C940.992 249.937 928.454 217.25 908 191l-2.027-2.7c-37.406-48.03-96.011-69.314-154.41-77.925l-2.27-.337A369.972 369.972 0 00741 109c-.692-.082-1.383-.164-2.095-.25-15-1.742-29.877-2.111-44.967-2.063l-3.568.006c-52.587.136-103.197 7.609-151.145 30.258-1.98.934-3.968 1.847-5.96 2.756-14.273 6.759-27.39 15.917-39.265 26.293l-2.57 2.168c-6.248 5.397-11.435 11.27-16.43 17.832l-1.203 1.565c-24.609 32.272-37.661 74.047-40.458 114.277-.662 7.314-.662 7.314-2.738 9.903-1.636 1.34-1.636 1.34-4.601 3.255l-1 2h-2l-1 2a78.037 78.037 0 01-5 2v2h-2l-1 2a381.113 381.113 0 01-6 5l-2 2c-2.705 2.289-4.618 3.873-8 5-.98-44.1 6.33-86.838 25-127l1.02-2.206C438.075 177.71 459.606 150.238 486 130l1.63-1.271c10.217-7.94 21.016-14.543 32.37-20.729l2.001-1.097c50.62-27.4 108.212-35.136 164.937-35.153z" fill="#343732"/><path d="M679.496 183.797l3.35-.017c2.343-.01 4.686-.016 7.028-.02 3.494-.01 6.986-.04 10.48-.072 22.727-.108 44.735 2.145 66.646 8.312l2.28.635c39.066 11.185 70.72 35.414 90.857 70.693 8.509 15.478 13.727 32.131 17.364 49.347.323 1.504.662 3.005 1.02 4.502 1.498 6.308 2.316 12.634 3.042 19.073l.38 3.043c3.464 30.504 2.182 61.66 2.126 92.3-.01 6.262-.015 12.525-.02 18.788-.01 12.206-.028 24.413-.049 36.619h-32l-.168-10.008c-.185-11-.373-22-.562-33a35568.5 35568.5 0 01-.34-19.978c-.108-6.445-.218-12.89-.33-19.335-.043-2.44-.084-4.88-.124-7.32-.197-12.017-.449-24.027-.96-36.036l-.118-2.803c-.349-7.646-1.084-15.187-2.148-22.77l-.532-3.844C842.096 300.1 829.646 266.894 803 247c-14.444-10.218-29.73-17.086-46.75-21.812l-2.986-.843c-17.835-4.673-35.825-5.826-54.187-5.681-3.207.024-6.413.02-9.62.014-16.917.022-33.737.79-50.27 4.635l-2.909.656c-7.964 1.849-15.628 4.143-23.278 7.031l-3.05 1.11c-28.342 10.96-49.399 31.79-62.131 59.082-10.167 23.024-13.027 48.082-12.913 72.996l.011 4.746c.054 18.357.32 36.711.583 55.066.096 6.75.19 13.5.281 20.25l.033 2.446c.197 14.77.226 29.533.186 44.304h-33c-.662-34.87-1.136-69.742-1.232-104.619-.01-3.594-.028-7.188-.051-10.781-.151-23.813-.26-47.72 5.97-70.912l.769-2.951C515.995 273.928 529.782 250.408 550 230l2.125-2.164C581.315 200.128 621.37 190.145 660 185l3.664-.54c5.267-.648 10.531-.641 15.832-.663z" fill="#343631"/><path d="M414.25 726.313c14.294 13.969 22.996 33.433 23.873 53.502l-.003 2.956.004 3.416-.01 3.703v3.934c0 3.547-.006 7.094-.013 10.64-.006 3.713-.006 7.424-.008 11.136-.003 7.022-.01 14.045-.021 21.068-.011 7.998-.017 15.995-.022 23.993-.01 16.446-.028 32.893-.05 49.339h-42l-1-22-7 8c-8.626 8.3-18.568 11.91-30 15l-2.418.691c-20.415 5.025-45.504.697-63.332-9.941-13.419-9.05-22.276-21.722-25.854-37.519-2.774-15.65.175-31.032 8.643-44.485 10.534-14.751 27.056-22.335 44.586-25.374 14.443-1.797 28.895-1.605 43.425-1.51 3.5.021 7 .03 10.5.04 6.817.022 13.634.055 20.45.098-.28-2.532-.568-5.063-.863-7.594l-.234-2.147c-1.413-11.91-6.401-20.94-15.653-28.509-16.507-8.888-38.309-9.366-56.166-4.195-9.006 2.846-17.11 6.86-25.193 11.71A91.439 91.439 0 01289 766a8391.125 8391.125 0 01-5.688-10.375l-1.607-2.926A1164.055 1164.055 0 01277 744l-1.545-2.853-1.412-2.686-1.269-2.39C272 734 272 734 273 731c37.985-30.185 101.983-32.627 141.25-4.687zM222 658l2.996 1.434c10.742 5.503 19.793 13.114 28.316 21.566l1.727 1.71C259 686.742 259 686.742 259 689c-1.363 1.342-1.363 1.342-3.313 2.941-5.527 4.7-10.583 9.847-15.687 14.996l-2.926 2.94c-2.36 2.372-4.718 4.746-7.074 7.123-3.217-1.523-5.203-3.064-7.625-5.688-14.763-15.034-35.77-23.404-56.687-23.692-11.56.018-21.725.54-32.688 4.38l-3.14 1.063c-21.673 8.17-37.413 24.152-47.137 44.902C80.14 743.793 78.449 749.795 77 756l-.533 2.046c-1.442 5.82-1.816 11.344-1.78 17.329l.013 2.886C75.057 801.145 80.893 823.32 96 841l2.313 3.063c13.235 14.466 33.936 24.94 53.59 26.11 3.056.058 6.104.051 9.16.015l3.103-.002c23.917-.138 43.215-9.019 60.225-25.682C227 842 227 842 230 840c2.692 2.662 5.378 5.33 8.063 8l2.279 2.254c4.234 4.216 8.294 8.506 12.154 13.068 1.958 2.184 4.136 3.956 6.504 5.678-6.332 15.984-28.546 27.493-43.262 34.027-35.284 15.024-74.663 14.681-110.05.535C74.343 889.894 49.731 864.774 37 833a262.28 262.28 0 01-3.25-8.938l-.71-2.018c-4.584-13.945-5.651-27.859-5.602-42.419v-2.639C27.551 743.815 37.966 714.626 59 689l2.027-2.496C74.935 670.094 94.82 658.004 115 651l2.25-.863C150.533 637.845 190.692 642.93 222 658zM1291 646l2.36.438c15.276 3.033 28.987 9.193 40.64 19.562l2.117 1.832c11.482 10.61 19.159 26.764 20.006 42.44 1.003 32.032-8.779 56.91-30.373 80.603l-4.227 4.495a496.168 496.168 0 00-4.132 4.492c-12.936 14.156-26.689 27.542-40.266 41.076L1250 868l115 1v41h-183c0-35.99 0-35.99 13.006-49.93a178.82 178.82 0 013.026-2.738c1.15-1.058 2.3-2.118 3.448-3.179l1.764-1.611c3.026-2.8 5.953-5.701 8.893-8.591 5.57-5.447 11.215-10.806 16.897-16.135 8.309-7.802 16.487-15.739 24.675-23.667l3.66-3.543 1.81-1.75c4.06-3.925 8.154-7.813 12.26-11.69C1291.68 768.128 1291.68 768.128 1305 744l.957-2.195c2.226-5.836 2.383-11.692 2.48-17.867l.068-2.543c-.03-8.487-3.212-15.779-8.505-22.395-12.83-11.904-28.59-11.548-45.07-11.14-9.465.454-18.593 2.57-26.93 7.14l-2.484 1.344c-7.646 4.355-14.306 9.492-19.516 16.656-4.33-.492-6.999-3.293-10.125-6.062-1.16-1.006-2.32-2.01-3.48-3.012l-1.736-1.506c-3.095-2.65-6.299-5.162-9.491-7.693-2.76-2.199-5.469-4.454-8.168-6.727 11.435-20.182 34.293-32.944 55.989-39.092 20.148-5.412 41.452-7.236 62.011-2.908zM901 710h46c6.789 16.293 13.477 32.616 20.014 49.011 7.366 18.473 14.798 36.92 22.236 55.364l.915 2.268a794715.557 794715.557 0 007.674 19.03c2.73 6.772 5.455 13.546 8.161 20.327 4.68-9.97 8.768-20.16 12.875-30.375l2.267-5.62c1.543-3.823 3.085-7.647 4.626-11.47 3.273-8.12 6.565-16.234 9.857-24.347l3.668-9.043.914-2.255c1.928-4.753 3.853-9.509 5.775-14.264l3.996-9.879 1.867-4.62c4.612-11.424 9.374-22.771 14.155-34.127h43c-12.572 31.632-25.547 63.1-38.56 94.553A9172.203 9172.203 0 001052 849.5c-9.592 23.531-19.222 47.046-29 70.5l-.865 2.076c-10.861 26.056-21.908 48-49.17 59.444-18.17 7.017-41.045 5.585-58.723-2.133-6.512-2.992-12.104-6.371-17.242-11.387.624-4.446 2.355-8.1 4.379-12.05.331-.66.663-1.318 1.005-1.997a1708.16 1708.16 0 013.178-6.265c.72-1.423 1.437-2.845 2.155-4.268 1.755-3.477 3.517-6.95 5.283-10.42 2.997 1.473 5.798 3.097 8.625 4.875 11.41 6.757 22.347 9.57 35.516 6.36 11.351-4.283 16.652-13.132 21.535-23.763 3.025-6.78 3.675-9.804 1.103-16.785a593.606 593.606 0 00-1.56-3.828l-.863-2.126c-.948-2.33-1.902-4.656-2.856-6.983l-2.03-4.979c-6.638-16.26-13.376-32.48-20.117-48.697-4.276-10.29-8.535-20.588-12.79-30.886a8451.18 8451.18 0 01-14.379-34.965l-1.189-2.91c-1.544-3.782-3.088-7.565-4.63-11.348-3.596-8.818-7.197-17.632-10.935-26.39l-.81-1.9c-1.2-2.807-2.407-5.61-3.626-8.408l-1.22-2.833-1.05-2.405C901 713 901 713 901 710z" fill="#010101"/><path d="M710 549c-2.959 3.077-6.073 4.758-9.844 6.719-2.176 1.173-2.176 1.173-3.715 2.84-2.34 2.34-5.421 3.178-8.441 4.441l-2 2c-2.048 1.034-4.128 1.967-6.223 2.902-2.115 1.045-2.115 1.045-2.777 4.098-4.333 3-4.333 3-7 3a536.412 536.412 0 00-3 3 82.029 82.029 0 01-4.563 2.75l-2.378 1.36L658 583l-2-1-.813 1.813c-1.235 2.275-2.174 3.57-4.187 5.187-2.344.502-2.344.502-5.168.67l-3.262.195c-6.628.25-13.253.356-19.885.416l-4.824.055c-3.44.039-6.881.075-10.322.11-5.458.054-10.917.115-16.375.177-11.596.13-23.193.254-34.789.377-12.503.133-25.007.267-37.51.409-5.407.06-10.815.118-16.222.172-3.388.034-6.776.073-10.164.111-1.55.018-3.1.033-4.65.048-8.198.075-16.371.287-24.557.735l-2.264.123C446.25 593.466 435.4 598.228 425 609c-6.011 7.636-9.08 16.063-9.205 25.696l-.03 2.012c-.032 2.186-.057 4.372-.081 6.558l-.063 4.556c-.055 3.992-.105 7.983-.153 11.975-.05 4.075-.106 8.15-.161 12.226-.108 7.993-.21 15.985-.307 23.977-3.122-1.022-6.171-2.071-9.207-3.332-8.494-3.488-16.843-5.654-25.867-7.367l-3.488-.68c-2.811-.546-5.624-1.086-8.438-1.621a3870.93 3870.93 0 01-.207-24.205c-.02-3.748-.049-7.496-.095-11.244-.044-3.631-.067-7.262-.078-10.893-.01-2.03-.041-4.059-.073-6.087-.003-12.474 2.278-24.932 8.265-36.009l1.04-1.999c3.984-7.45 8.954-13.811 15.148-19.563l1.816-1.797c9.868-9.377 21.065-14.899 34.184-18.203l3.543-1.026c4.966-1.232 9.806-1.308 14.902-1.353l3.145-.05c3.511-.054 7.023-.094 10.535-.134a8986.665 8986.665 0 0124.81-.324c6.04-.072 12.082-.156 18.123-.25 68.979-1.074 137.957-.97 206.942-.863z" fill="#B0E4BD"/><path d="M671.605 71.867l4.02-.003c2.779-.001 5.558 0 8.337.006 3.526.005 7.052.002 10.578-.004 2.757-.004 5.514-.002 8.27 0 1.92.001 3.842-.002 5.762-.005 7.525.02 14.94.385 22.428 1.139l-2.25 1.75c-2.742 2.157-2.742 2.157-4.937 4.5C722 81 722 81 720 81l-1 2-3 1v2h-2l-1 2c-2.658 1.748-4.974 2.991-8 4-1.209 2-1.209 2-2 4h-3l-.687 2.375c-1.647 3.294-2.957 3.42-6.313 4.625l-1 3-3.335.136c-69.065 2.867-143.548 12.895-196.497 61.887C490 170 490 170 486.938 172.375c-34.465 30.798-50.506 84.974-53.6 129.467-.661 7.314-.661 7.314-2.737 9.903-1.636 1.34-1.636 1.34-4.601 3.255l-1 2h-2l-1 2a78.037 78.037 0 01-5 2v2h-2l-1 2a381.113 381.113 0 01-6 5l-2 2c-2.705 2.289-4.618 3.873-8 5-.98-44.1 6.33-86.838 25-127l1.02-2.206C438.075 177.71 459.606 150.238 486 130l1.63-1.271c10.217-7.94 21.016-14.543 32.37-20.729l2.001-1.097c45.072-24.398 98.657-35.119 149.604-35.036z" fill="#7C7D7D"/><path d="M683 106v1l-2.018.348C626.822 116.784 567.742 131.165 525 168l-1.49 1.271c-33.635 28.929-49.593 71.753-53.315 115.135-.343 4.56-.532 9.126-.715 13.696l-.128 3.171c-.432 11.115-.663 22.23-.852 33.352l-.123 6.856c-.396 22.627-.663 45.255-.938 67.884A7632.733 7632.733 0 01466 492h-35c-1.166-31.78-1.188-63.547-1.185-95.343 0-6.045-.012-12.09-.026-18.135-.013-5.937-.018-11.874-.018-17.812 0-3.502-.002-7.004-.013-10.505C429.595 286.699 440.524 218.093 487 171c2.565-2.472 5.24-4.75 8-7l2.98-2.488C548.075 120.395 619.375 104.385 683 106z" fill="#FBFBFB"/><path d="M989 521c16.928 3.595 31.153 17.073 40.969 30.836 13.946 21.724 15.285 44.392 15.656 69.402l.05 3.117c.088 5.428.165 10.856.233 16.284.071 5.57.18 11.137.297 16.706.084 4.323.14 8.646.19 12.969.028 2.053.066 4.106.115 6.158.273 11.864-.13 20.187-6.51 30.528a139.456 139.456 0 00-2.362 5.534l-1.112 2.76-1.128 2.843-1.223 3.045a4307.461 4307.461 0 00-3.8 9.505c-1.272 3.18-2.546 6.36-3.821 9.538-.788 1.965-1.574 3.93-2.358 5.897l-1.093 2.732-.941 2.36c-1.651 3.959-3.42 7.867-5.162 11.786h-21c-2.638-5.275-5.092-10.415-7.25-15.875l-.813-2.008C986 740.254 986 740.254 986 738l2-1-.563-2.188c-.626-4.026.29-6.992 1.563-10.812l-2-2 1-6-2-2c.25-2.063.25-2.063 1-4l2-1-3-2 3-10-3-1c-.173-11.51-.173-11.51.5-16.313.588-3.717.588-3.717.5-7.625 0-3.062 0-3.062 1-4.062l-3-2 .562-2.25c.605-2.64.605-2.64-.062-4.75-.88-3.524.16-6.321 1.75-9.5 1.093-2.595 1.093-2.595-.625-5.188L985 642v-2l2-1c.082-3.077.082-3.077-.563-6.375-.397-3.297-.3-5.463.563-8.625l-2-1v-2h2v-2h-2l1.187-2.688c1.205-3.298 1.205-3.298-.625-5.937L984 608c.187-1.938.187-1.938 1-4l1.062-3.25L987 598l-2-1c-.286-8.571-.286-8.571 2-12l-1.563-1.5c-2.172-3.778-1.268-6.276-.437-10.5l1-1-.5-3.5-.5-3.5 1-1-3-2 .98-1.793c1.206-2.391 2.263-4.636 3.02-7.207-1.263-2.802-1.263-2.802-3-5 .812-2.188.812-2.188 2-4v-2l-2-1 1.5-1.813c1.783-2.157 1.783-2.157 1.5-5.187h-2l.062-2.813c.096-3.21.096-3.21-1.062-6.187l1.937-.313L988 524l1-3z" fill="#2CC14D"/><path d="M593.313 754.813c13.875 9.003 22.453 21.572 26.5 37.625 3.634 18.899 1.575 38.87-8.598 55.476-8.55 12.34-19.153 20.231-33.955 23.707-11.569 1.941-25.841 2.161-36.26-3.621l-2.586-1.355c-13.489-7.555-22.292-18.476-27.445-33.118-4.513-16.433-4.87-35.785 2.031-51.527l1.059-2.598c3.09-6.917 7.622-12.074 12.941-17.402l1.973-2.008c16.855-15.99 44.863-16.137 64.34-5.18zM824.512 758.016c11.301 9.012 19.362 22.906 22.097 37.16 1.295 12.67 1.977 26.78-2.609 38.824l-1.066 2.805c-6.222 14.825-16.034 26.097-30.88 32.457-13.704 4.706-31.098 5.431-44.394-.77-4.076-2.286-7.934-4.669-11.66-7.492l-3.125-2.25c-12.024-11.501-17.635-26.923-18.21-43.273-.312-23.705-.312-23.705 4.335-33.477l1.285-2.855c6.775-13.683 17.788-23.527 31.82-29.2 17.468-5.704 37.48-2.278 52.407 8.07z" fill="#FBFBFA"/><path d="M1121 278l.813 1.688c1.182 2.382 1.182 2.382 2.75 4.812 1.339 2.33 1.903 3.908 2.437 6.5.806 3.657.806 3.657 2 7l3 1-1 3c1.201 1.908 1.201 1.908 2.938 3.688l1.714 1.886L1137 309l-2 3c2.722 4.221 2.722 4.221 6 8 .608 2.025 1.011 4.055 1.438 6.125.467 2.096.467 2.096 2.562 3.875v3l1.438 1.75c1.562 2.25 1.562 2.25 2 5.625.64 4.129 2.24 6.22 4.562 9.625l-1 3h2l-.688 2.75c-.633 3.185-.633 3.185.938 5.313L1156 363c1.75 2.563 1.75 2.563 3 5l-1 3h2l.367 1.758c.783 3.651 1.599 7.143 2.82 10.68C1164 386 1164 386 1163 388l2 2 1 3-2 3 .875 1.625c2.3 4.854 4.125 9.982 4.125 15.375a176.3 176.3 0 001 5c.6 2.796 1 5.129 1 8 1.085 4.506 2.427 8.14 5 12l-1.563 1.063c-1.787 1.987-1.787 1.987-1.312 5.312.669 3.58.669 3.58 2.438 6.188 1.772 3.006 1.59 5.004 1.437 8.437l1 2-1.188 2.25L1176 466c1.763 3.312 1.763 3.312 4 6l-2 2c-.918 3.428-.918 3.428-1 7l1.5 1.5 1.5 1.5c-.313 3.5-.313 3.5-1 7v9l1 1c.099 1.81.13 3.625.125 5.438l.008 2.996C1180 512 1180 512 1179 514l2 2-1.5 3.313c-1.688 3.487-1.688 3.487-1.5 6.687l-.063 3.375c-.048 3.457-.048 3.457.563 6.125 1.119 5.594.323 10.922-.5 16.5a510.857 510.857 0 00-.5 5.813l-.258 3.113a376.895 376.895 0 00-.422 5.93l-.195 2.644-.148 2.344c-.582 2.632-1.747 4.12-3.477 6.156l1.063 1.75c1.111 2.668.964 3.597-.063 6.25l-2 3 1 3c-.14 5.575-1.475 10.661-3 16a140.59 140.59 0 00-.5 4.563c-.353 3.73-1.266 6.89-2.5 10.437l-.5 3.75c-.5 3.25-.5 3.25-2.5 5.25v2l-1 2v6l-2 2a280.14 280.14 0 00-1 4l-2 3v3a144.442 144.442 0 01-1 4l-.395 2.113c-1.24 6.525-3.706 10.932-7.293 16.512-1.634 2.675-1.634 2.675-2.312 7.375h-48c1.384-3.46 2.766-6.611 4.469-9.895C1130.31 621.776 1148.262 563.78 1153 505l.259-2.905c1.017-12.848.984-25.714.991-38.595l.003-3.707c-.01-18.807-.644-37.155-3.253-55.793l-.438-3.343c-5.253-39.793-15.788-79.087-31.664-115.962C1118 282 1118 282 1119 279l2-1zm-1 2l1 2zm39 96l1 2zm2 6l1 2zm4 244l1 2zM273 278l3 2c-.63 3.643-1.628 6.869-3.004 10.297l-1.233 3.114-1.325 3.339c-11.388 29.266-19.69 59.22-24.813 90.188l-.368 2.224c-4.064 24.842-5.492 49.3-5.507 74.463l-.003 3.549c.01 18.486.735 36.5 3.253 54.826l.406 3.223c7.054 55.81 25.273 112.565 53.768 161.151C298 688 298 688 298 690l-14 5 .25-4.813c-.076-11.911-5.05-19-13.25-27.187l-2.176-2.39c-9.5-10.173-21.156-18.793-33.887-24.423-5.637-2.607-5.637-2.607-7.019-5.277-.293-2.16-.293-2.16.082-5.91v-3h-2v-7c-.485-2.344-1.162-4.4-2.063-6.625-1.237-3.134-.937-6.02-.937-9.375l-1.063-1.625c-1.435-3.636-.574-6.55.063-10.375h-2a490.809 490.809 0 01-.563-4.75l-.316-2.672c-.116-2.462.143-4.243.879-6.578h-2l1-8h-2l.062-2.25c.052-2.623.052-2.623-.562-4.574-.605-2.635-.596-5.038-.563-7.739l.028-2.878L216 545c0-4.066-.408-8.106-1.625-12-.579-3.087.122-5.925.625-9 0-3.204-.743-5.094-2-8l3-1-2-3 2-3-2-3 2-3-2-3c.303-1.34.638-2.674 1-4a139.724 139.724 0 00-1-4l1-2c-.894-2.61-.894-2.61-2-5l2-1-1-4 3-1-.438-2c-1.983-10.579-1.983-10.579-.562-15v-4c1.5-1.75 1.5-1.75 3-3l-2-5 2-2c.044-2 .04-4 0-6 .403-2.755.995-4.987 2.062-7.563 1.358-3.528.948-6.373.375-10.062C221 421 221 421 222 419l2-1v-2l-2-2 3-1c1.441-1.715 1.441-1.715 2-4-.787-2.72-.787-2.72-2-5l2-2-1-3c.812-2.313.812-2.313 2-5 1.159-3.22 2-5.57 2-9 .312-3.563.312-3.563 1-7l3-2-1-2 2-2c.31-1.91.31-1.91.375-4 .207-2.156.207-2.156.625-4 2.062-1.5 2.062-1.5 4-2l-2-5 2-1v-7l1.875-.625c3.009-1.947 3.291-3.97 4.125-7.375v-3l1.437-1.688c2.268-3.356 2.229-6.299 2.563-10.312l3-1c1.416-3.304 2.008-6.098 2.312-9.688L256 312a99.185 99.185 0 015-3c1.275-2.825 1.275-2.825 2-6l1.062-3.063c.993-2.885.993-2.885 1.438-5.75L266 292l2-1-.125-2.875C268 285 268 285 270 283c2.125-.625 2.125-.625 4-1l-1-4zm-6 15l1 2zm-34 86l1 2zm-3 16l1 2zm-2 3v3l2-2-2-1zm-5 23l1 2zm-8 72l1 2zm0 36l1 2zm6 52l1 2zm4 24l1 2z" fill="#000001"/><path d="M880.063 545.875l2.465.005c9.158.021 18.315.057 27.472.12l-2 3h-2l-1 2a304.868 304.868 0 01-5.293 2.988c-1.88 1.114-3.204 2.438-4.707 4.012-2.063 1.25-2.063 1.25-4 2l-2-1-1 3a150.052 150.052 0 01-6 4l-2 2c-1.65.707-3.316 1.38-5 2v2h-2l-1 2a75.68 75.68 0 01-5 1l-3 1v2c-2.983 1.524-5.818 2.94-9 4l-1 2-1-1-2.11 1.954c-3.346 2.369-5.085 2.614-9.14 2.777l-3.761.168L834 588l-3.954.109c-4.353.1-8.706.145-13.06.188l-4.977.06c-4.468.053-8.935.101-13.403.148-4.711.05-9.422.106-14.133.16-7.917.091-15.835.18-23.752.265-10.093.11-20.186.224-30.28.34a86141.113 86141.113 0 01-34.583.39c-18.953.214-37.903.414-56.858.34v-1l2.45-.008c6.024.017 6.024.017 11.32-2.36 1.133-1.503 2.186-3.066 3.23-4.632 2-.687 2-.687 4-1 1.67-.994 3.337-1.994 5-3h2l1-2c3.577-3 3.577-3 6-3l1.562-2.187c3.279-3.783 7.03-5.55 11.438-7.813 1.63-.867 3.254-1.742 4.875-2.625l2.18-1.164c1.978-1.128 1.978-1.128 3.449-2.727 1.722-1.708 3.373-2.572 5.558-3.609l2.098-1.008c.91-.43.91-.43 1.84-.867l2-1-31-1v-1a85988.548 85988.548 0 0174.216-1.036c86.679-1.176 86.679-1.176 127.846-1.089z" fill="#0BB01E"/><path d="M942 515c16.417-.364 31.317-.4 47 5-.313 1.875-.313 1.875-1 4l-3 2 .563 1.75c.477 2.457.194 3.894-.563 6.25h2c.688 1.813.688 1.813 1 4-1.438 1.75-1.438 1.75-3 3l2 4-2 3 2 2-1 1 2 2-4 9h3v3h-2l.508 1.863.617 2.45.633 2.425C987 574 987 574 985 577c-.633 2.113-.633 2.113-1 4l2 1 2 3-.938 1.5c-1.478 3.48-1.686 6.74-2.062 10.5l3 1c0 3 0 3-1.5 4.688L985 604l4 2-4 2c1.152 2.468 2.048 4.048 4 6h-2l-2 5h2v2h-2v2l3 1-1 2 2 2-2 2c.305 2.005.64 4.004 1 6-.438 2.188-.438 2.188-1 4v5l2 2-.938 2.688c-1.825 5.692-1.978 9.36-1.062 15.312l-1 1 3 2-.5 2c-.498 2.987-.514 5.8-.469 8.82-.043 3.051-.436 6.033-.808 9.059-.285 2.714-.293 5.395-.223 8.121l2 1c.22 3.856-.396 6.492-2 10l3 3-3 1c.573 2.867.861 3.861 3 6l-2 2v3l2 2c-.375 2.938-.375 2.938-1 6v3l-2 1 2 4c-1.892-.289-1.892-.289-4-1a70.273 70.273 0 01-3.46-7.91l-.95-2.427a881.405 881.405 0 01-2.965-7.726c-.973-2.553-1.95-5.104-2.944-7.65a325.238 325.238 0 01-1.817-4.765c-2.836-7.283-7.126-14.29-13.864-18.522-4.874-2.011-9.763-3.329-15-4l-1-6h2v-2l-2-1 2-2-2-4h2l-.563-1.875C944 665 944 665 945 663h-2c.142-1.438.289-2.875.437-4.313l.247-2.425C944 654 944 654 945 651h-2c-.597-2.763-1-5.16-1-8l2-3-3-6 3-3-1-2.313c-1.535-4.124-1.095-8.365-.563-12.687l.247-2.063c.409-2.506 1.182-4.67 2.316-6.937h-3c-.094-4.813-.115-9.291 1-14 .958-5.06.958-5.06 0-10l1-2-3-1 1-3-.438-2.125c-.766-3.92-1.023-7.898-.562-11.875l2-2-1.125-1.625C941 557 941 557 941.937 554.25c1.382-4.226.813-6.901.063-11.25l-2 1c.857-9.388.857-9.388 1.687-12.938.596-2.367.596-2.367-1.687-5.062-.313-2.563-.313-2.563 0-5l3-2-1-4z" fill="#15B730"/><path d="M650.375 548.938h2.243c19.127.012 38.255.032 57.382.062-2.959 3.077-6.073 4.758-9.844 6.719-2.176 1.173-2.176 1.173-3.715 2.84-2.34 2.34-5.421 3.178-8.441 4.441l-2 2c-2.048 1.034-4.128 1.967-6.223 2.902-2.115 1.045-2.115 1.045-2.777 4.098-4.333 3-4.333 3-7 3a536.412 536.412 0 00-3 3 82.029 82.029 0 01-4.563 2.75l-2.378 1.36L658 583l-2-1-.813 1.813c-1.235 2.275-2.174 3.57-4.187 5.187-2.342.501-2.342.501-5.164.669l-3.262.195c-6.65.253-13.298.366-19.952.433l-4.844.06c-4.351.053-8.703.101-13.054.148-4.576.05-9.153.106-13.73.16-7.684.091-15.368.18-23.053.265-10.798.12-21.596.247-32.393.374a102621.209 102621.209 0 01-48.196.555c-9.451.109-18.9.163-28.352.141v-1h13l1-2c3.378-4.775 3.378-4.775 6.25-5.813L481 583l-1-5 1.687-.563c3.38-2.1 5.164-5.144 7.313-8.437l5 1v-6l4 2 1-3 1.875-.375c2.413-.466 2.413-.466 3.875-3.188L506 557l5 1v-2c2.967-1.648 5.656-2.443 9-3v-2h-26v-1a12262.646 12262.646 0 0137.633-.536c39.58-.51 79.159-.55 118.742-.527z" fill="#94D896"/><path d="M425.563 520.938l3.634.013c2.935.012 5.869.028 8.803.049l2 4h-2l.5 3.75c.978 7.333.5 14.861.5 22.25l-3.594.813c-14.764 3.504-27.844 8.39-39.39 18.523C394 572 394 572 391.859 572.976c-2.383 1.313-2.761 2.574-3.859 5.024a148.457 148.457 0 01-3.125 3.75c-3.182 4.058-5.7 8.248-8.063 12.813l-.97 1.797c-5.975 11.95-7.44 25.032-7.451 38.203-.015 1.412-.032 2.824-.05 4.236-.044 3.656-.064 7.311-.08 10.968-.019 3.755-.06 7.51-.1 11.264-.077 7.323-.118 14.645-.161 21.969l-31-1c-.09-11.493-.164-22.985-.207-34.478-.021-5.338-.05-10.676-.095-16.014-.044-5.16-.067-10.322-.078-15.483a797.762 797.762 0 00-.043-5.877c-.122-11.468.4-21.28 4.423-32.148l1.177-3.258C350.115 553.53 367.67 536.498 388 527c12.564-5.266 24.07-6.16 37.562-6.063z" fill="#02BF84"/><path d="M463 592c1.063 1.813 1.063 1.813 2 4l-1 3 1 3-1 1a99.797 99.797 0 000 5c0 3 0 3-1 6 .88 2.657.88 2.657 2 5h-2l2 7h-2l1.063 2.875C465 632 465 632 464 634l.5 2.313c.553 2.973.129 4.752-.5 7.687-.117 3.28-.145 6.277.5 9.5.64 3.199.56 6.245.5 9.5v3h-1l.254 2.738.308 3.574.317 3.551C465 679 465 679 464 682l.5 2.875c.497 3.104.296 5.118-.5 8.125l2 1-.254 2.047-.308 2.703-.317 2.672c-.117 2.484.24 4.205.879 6.578l-.5 2.75c-.444 2.886-.405 4.732 0 7.563L466 722l-1 1 2 2-1.645 2.012-2.168 2.676-2.144 2.636c-2.093 2.624-2.093 2.624-3.68 5.508L456 740h-2l-1.363-2.824c-6.165-12.373-16.64-29.737-30.058-35.153-3.08-1.37-5.19-2.628-7.579-5.023-1.465-5.098-1.24-10.117-1.082-15.363.011-1.517.018-3.034.021-4.55.017-3.177.066-6.35.142-9.525.096-4.049.136-8.095.154-12.144.02-3.886.07-7.771.12-11.656l.022-2.215c.173-14.136 2.903-25.614 12.81-36.234C437.67 595.482 448.843 591.751 463 592z" fill="#01A825"/><path d="M429 311h2v181l-32 1a17182.424 17182.424 0 01-1.067-53.53c-.263-13.855-.477-27.71-.585-41.567-.047-5.895-.117-11.788-.233-17.683-.114-5.86-.175-11.72-.198-17.582-.017-2.195-.054-4.39-.11-6.584-.44-17.714-.44-17.714 3.612-22.394 3.673-3.089 7.035-5.145 11.581-6.66l1-3c2.063-.687 2.063-.687 4-1v-2h2l1-2 2.438-.875c3.015-1.324 3.36-2.166 4.562-5.125l2-2z" fill="#373935"/><path d="M678 548h129l1 2-2.75.75c-3.447 1.326-4.727 2.648-7.25 5.25a201.065 201.065 0 01-6 3l-3.25 2.188C786 563 786 563 784 563v2c-1.898 1.508-1.898 1.508-4.375 3.125l-2.46 1.633C775 571 775 571 773 571v2l-2.563 1.25a152.778 152.778 0 00-7.062 3.813c-1.883 1.08-3.787 2.132-5.75 3.062-1.816.777-1.816.777-2.625 2.875-14.022 9.64-39.687 5.316-56.349 5.532-3.016.04-6.031.084-9.047.129-16.868.246-33.733.407-50.604.339v-1l2.45-.008c6.024.017 6.024.017 11.32-2.36 1.133-1.503 2.186-3.066 3.23-4.632 2-.687 2-.687 4-1 1.67-.994 3.337-1.994 5-3h2l1-2c3.577-3 3.577-3 6-3l1.563-2.187c3.278-3.783 7.03-5.55 11.437-7.813 1.63-.867 3.254-1.742 4.875-2.625l2.18-1.164c1.978-1.128 1.978-1.128 3.449-2.727 1.722-1.708 3.373-2.572 5.558-3.609l2.098-1.008c.91-.43.91-.43 1.84-.867l2-1-31-1v-1z" fill="#58C55F"/><path d="M344.73 823.886h3.335l3.552.016 3.674.005c3.861.005 7.723.018 11.584.03 2.622.006 5.245.01 7.867.014 6.42.011 12.839.028 19.258.049.073 3.854.117 7.708.156 11.562l.064 3.292c.082 10.888-2.559 17.417-9.97 25.521-14.089 12.933-30.204 14.571-48.552 13.847-8.094-.666-14.941-4.236-20.296-10.363L314 866l-1.309-1.734c-3.82-6.188-3.574-13.248-2.691-20.266 1.94-6.956 5.412-11.177 11.598-14.82 7.403-3.636 14.877-5.313 23.132-5.294z" fill="#F9F9F9"/><path d="M436.11 551.902l2.285.01 2.355.026 2.402.013c1.95.012 3.899.03 5.848.049-.684 5.474-1.956 7.238-6 11l-2.125 3.188C439 569 439 569 436 571v-2c-1.562 1.312-1.562 1.312-3 3v3l-2 1a92.764 92.764 0 00-1 4l-2 4-.438 1.875c-.775 2.928-2.163 5.45-3.562 8.125l2 2-5 1-1 5-3 1-1-3-.313 2.25c-1.062 4.248-3.58 6.785-6.687 9.75l-1 1h3l2 1c-1.074 2.915-1.778 4.778-4 7-.833 1.917-.833 1.917-1 4l2 3-1.688.375c-2.533.685-4.891 1.616-7.312 2.625l2 1-4 2v2l-3 2c-1.205 2.552-1.205 2.552-2 5l-5-1-2 4h-2l-1 2c-2.063 1.125-2.063 1.125-4 2v3l-3 1c-.733 2.015-.733 2.015-1 4h-2v2h-2l-1 2c-2.79-2.393-2.981-2.825-3.404-6.759a229.663 229.663 0 01-.03-4.721l-.015-2.563c-.007-1.798-.006-3.596.003-5.394.008-2.696-.02-5.39-.052-8.084-.059-14.037 1.528-27.368 8.31-39.917l1.04-1.999c3.984-7.45 8.954-13.811 15.148-19.563l1.816-1.797c9.87-9.38 21.06-14.894 34.184-18.203l1.915-.537c2.139-.475 4.007-.577 6.194-.56z" fill="#B2E8CC"/><path d="M580 549h130c-3.126 3.126-5.975 4.707-9.844 6.719-2.176 1.173-2.176 1.173-3.715 2.84-2.34 2.34-5.421 3.178-8.441 4.441l-2 2c-2.048 1.034-4.128 1.967-6.223 2.902-2.115 1.045-2.115 1.045-2.777 4.098-4.333 3-4.333 3-7 3a536.412 536.412 0 00-3 3 82.029 82.029 0 01-4.563 2.75l-2.378 1.36L658 583l-2-1-.813 1.813c-1.235 2.275-2.173 3.57-4.187 5.187-2.35.5-2.35.5-5.178.668l-3.258.195c-6.57.253-13.138.378-19.712.453l-4.634.063c-3.225.044-6.45.085-9.676.124-4.066.049-8.13.102-12.196.158-17.116.232-34.228.414-51.346.339v-1l21-1 2-4c1-1 1-1 3.375-1.313 2.744-.426 2.744-.426 4.063-2.625 2.11-2.786 4.275-3.083 7.562-4.062l2-2h4l.5-2.313c1.972-3.533 3.906-3.969 7.625-5.207C599 567 599 567 601 567v-2l3-2 1-2h3l3-1v-2l4-1v-2l3.438-1.438c3.32-1.198 3.32-1.198 4.562-2.562l-43-1v-1z" fill="#7CD07F"/><path d="M425.563 520.938l3.634.013c2.935.012 5.869.028 8.803.049l2 4h-2l.5 3.75c.978 7.333.5 14.861.5 22.25l-3.594.813c-14.764 3.504-27.844 8.39-39.39 18.523C394 572 394 572 391.859 572.976c-2.383 1.313-2.761 2.574-3.859 5.024a148.457 148.457 0 01-3.125 3.75c-4.35 5.452-7.184 11.517-10.176 17.773C373 603 373 603 371 606c-1.843-2.765-2.115-4.887-2.063-8.125.358-3.67.358-3.67-.937-5.875h2l-.473-2.45-.59-3.237-.597-3.2c-.332-3.04.004-5.163.66-8.113l-1-2h2l-.5-2.625c-.472-3.19-.5-6.16-.5-9.375l-1-3v-7l-1-3 2-5-1-3c17.432-14.548 35.288-19.223 57.563-19.063zM366 541l2 1-11 11c0-3 0-3 1.969-5.262l2.531-2.426 2.531-2.449L366 541z" fill="#01BA70"/><path d="M942 515h17v5l-3 1v2l3 1-1 2c.457 2.922.853 3.853 3 6l-4 5h2a108.817 108.817 0 01-1 7l-2 1h2v2l2 1v2l.563 1.875c.492 2.392.176 3.825-.563 6.125h-2l.563 2.375C959 563 959 563 958 565l2 1c.75 2.438.75 2.438 1 5l-2 2 1.188 1.688L961 577c-1.375 2.75-1.375 2.75-3 5l3 5h-2v3l2 1-3 4 1.625 1.625C961 599 961 599 960.188 602.25L959 605l2-1a84.76 84.76 0 01-2 7c.13 2 .13 2 .5 4.063C960 619 960 619 959 621l3 3h-2v20l2 2-3 2v3h-2v2l4 1-.563 1.75c-.484 2.494-.136 3.842.563 6.25v3l.688 3.5c.312 3.5.312 3.5-1.125 5.438L959 675l2 1 1 2-2 3v3l-1 3-1.758-.402c-4.4-.995-8.78-1.912-13.242-2.598l-1-6h2v-2l-2-1 2-2-2-4h2l-.563-1.875C944 665 944 665 945 663h-2c.142-1.438.289-2.875.438-4.313.08-.8.162-1.6.246-2.425C944 654 944 654 945 651h-2c-.597-2.763-1-5.16-1-8l2-3-3-6 3-3-1-2.313c-1.535-4.124-1.095-8.365-.563-12.687l.247-2.063c.409-2.506 1.182-4.67 2.316-6.937h-3c-.094-4.813-.115-9.291 1-14 .958-5.06.958-5.06 0-10l1-2-3-1 1-3-.438-2.125c-.766-3.92-1.023-7.898-.562-11.875l2-2-1.125-1.625C941 557 941 557 941.938 554.25c1.38-4.226.812-6.901.062-11.25l-2 1c.857-9.388.857-9.388 1.688-12.938.595-2.367.595-2.367-1.688-5.062-.313-2.563-.313-2.563 0-5l3-2-1-4z" fill="#08B11F"/><path d="M439 597l2 1-.5 2.625c-.474 3.196-.572 6.15-.5 9.375 0 13 0 13-.035 15.148-.054 4.411.144 8.508 1.035 12.852h-2l.473 2.45.59 3.237.597 3.2c.334 3.062.1 5.155-.66 8.113-.34 1.999-.674 3.999-1 6l2 1-1 2a58.458 58.458 0 00-.133 4.027l-.004 2.4.012 2.51-.012 2.499.004 2.404.004 2.199c.06 2.176.06 2.176 1.129 4.961a99.768 99.768 0 01-1 6l2 1-1 2c-.043 2.333-.04 4.667 0 7v14c-3 0-3 0-4.402-1.215l-1.536-1.722c-5.7-5.968-12.611-11.474-20.062-15.063a6296.01 6296.01 0 01-.155-26.523c-.016-4.106-.037-8.212-.071-12.318-.033-3.968-.05-7.936-.059-11.905a633.095 633.095 0 00-.032-4.524c-.148-14.278 2.569-25.888 12.692-36.542 3.449-3.234 7.277-6.269 11.625-8.188z" fill="#01AD3B"/><path d="M419 614c.688 1.625.688 1.625 1 4a100.679 100.679 0 01-3 6c-1.18 3.545-1.157 6.98-1.205 10.696l-.03 2.012c-.032 2.186-.057 4.372-.081 6.558l-.063 4.556c-.055 3.992-.105 7.983-.153 11.975-.05 4.075-.106 8.15-.161 12.226-.108 7.993-.21 15.985-.307 23.977-3.122-1.022-6.171-2.071-9.207-3.332-12.296-5.049-24.724-7.253-37.793-9.668v-24l1 2 5-1 .75-2.875c1.25-3.125 1.25-3.125 3.375-4.5L380 652v-3c4.222-3 4.222-3 7-3l1-5 6 2-.375-2.688c.413-3.648.64-3.944 3.312-6.125L400 632c1.158-1.053 1.158-1.053 2-3h3l2-2h2v-3c2.312-2.073 4.03-3.01 7-4l.375-2.438L417 615l2-1z" fill="#A0E4C5"/><path d="M765 547h93l-2 3-1-1-2 3h-3l-1 3-1-1-2 2c-2.438 1.688-2.438 1.688-5 3l-3-1-1 4-1.813.313c-2.486.78-3.416 1.836-5.187 3.687h-2l-1 2a73.295 73.295 0 01-4.25 2.375c-3.583 1.924-6.588 4.061-9.75 6.625a132.403 132.403 0 01-6 3v2l-6 1v2c-4.833 2.871-8.948 3.466-14.457 3.512l-2.463.054c-2.63.055-5.261.089-7.893.121l-5.416.102c-13.588.246-27.18.34-40.771.211v-1l3.508-.113c1.539-.066 3.078-.132 4.617-.2l2.305-.068c5.82-.276 10.301-1.35 14.57-5.619 2.083-1.724 3.851-2.941 6.375-3.938 2.819-1.033 2.819-1.033 5.75-3.187C770 573 770 573 773 573v-2c1.898-1.508 1.898-1.508 4.375-3.125l2.46-1.633C782 565 782 565 784 565v-2c1.469-1.113 1.469-1.113 3.5-2.313l2.2-1.324L792 558c1.44-.87 2.878-1.744 4.313-2.625l1.925-1.164c1.817-1.155 1.817-1.155 3.242-2.797C803 550 803 550 807 549l-42-1v-1z" fill="#33BA3E"/><path d="M494 550h70l-1 4a126.27 126.27 0 01-7 3l-1 2h-3l-1 2a78.037 78.037 0 01-5 2l1 3-4-1-1.875 2.5L539 570h-2v2l-2.125.313c-6.06 1.449-10.35 4.582-14.875 8.687l-1 2-4-1-2 6h-3c-3.118.646-3.118.646-4 3-4.443.145-8.887.288-13.33.427-1.505.048-3.01.096-4.515.146-9.723.318-19.425.497-29.155.427v-1h13l1-2c3.378-4.775 3.378-4.775 6.25-5.812L481 583l-1-5 1.688-.562c3.38-2.102 5.163-5.145 7.312-8.438l5 1v-6l4 2 1-3 1.875-.375c2.413-.466 2.413-.466 3.875-3.187L506 557l5 1v-2c2.967-1.648 5.656-2.443 9-3v-2h-26v-1z" fill="#9FDB9F"/><path d="M763 548h44l1 2-2.75.75c-3.447 1.326-4.727 2.648-7.25 5.25a201.065 201.065 0 01-6 3l-3.25 2.188C786 563 786 563 784 563v2c-1.898 1.508-1.898 1.508-4.375 3.125l-2.46 1.633C775 571 775 571 773 571v2l-2.563 1.25a152.778 152.778 0 00-7.062 3.813c-1.883 1.08-3.787 2.132-5.75 3.062-1.816.777-1.816.777-2.625 2.875-13.526 9.299-37.404 5.108-53 5 2.26-2.26 4.556-3.488 7.344-5 1.832-1.016 1.832-1.016 3.656-3h2c1.625-1.458 1.625-1.458 3-3l3 1 1-3c2.489-2.145 5.079-3.54 8-5l2-2c2.025-1.687 3.483-2.875 6.063-3.5 2.058-.356 2.058-.356 3.5-2.063L743 562h3l1-2c1-1 1-1 4-2l1-2 2 1 1-2c4.588-4 4.588-4 7-4l1-3z" fill="#43BF4C"/><path d="M681 72c5.192-.025 10.384-.043 15.576-.055 1.761-.005 3.522-.012 5.283-.02 9.765-.048 19.422-.015 29.141 1.075l-2.25 1.75c-2.742 2.157-2.742 2.157-4.938 4.5C722 81 722 81 720 81l-1 2-3 1v2h-2l-1 2c-2.658 1.748-4.974 2.991-8 4-1.209 2-1.209 2-2 4h-3l-.688 2.375c-1.646 3.294-2.956 3.42-6.312 4.625l-1 3-3.526.168c-4.389.209-8.778.42-13.167.632l-5.658.27c-11.225.534-22.44 1.126-33.649 1.93l1-2h2l1-2c4.629-4.034 9.512-7.725 14.408-11.426 2.235-1.703 4.391-3.37 6.362-5.379C662 87 662 87 664 87l1-2 4-2 1-2c4.588-4 4.588-4 7-4v-2l4-1v-2z" fill="#5B5C5A"/><path d="M679.824 548.707l2.61.013c2.752.017 5.502.054 8.254.093 1.865.015 3.73.028 5.595.04 4.573.034 9.145.085 13.717.147-2.959 3.077-6.073 4.758-9.844 6.719-2.176 1.173-2.176 1.173-3.715 2.84-2.34 2.34-5.421 3.178-8.441 4.441l-2 2c-2.048 1.034-4.128 1.967-6.223 2.902-2.115 1.045-2.115 1.045-2.777 4.098-4.333 3-4.333 3-7 3a536.412 536.412 0 00-3 3 82.029 82.029 0 01-4.563 2.75l-2.378 1.36L658 583l-2-1-.813 1.813c-1.234 2.274-2.176 3.568-4.187 5.187-9.202 2.013-19.347 1.118-28.75 1.063-1.487-.006-2.974-.01-4.46-.014-3.597-.011-7.194-.028-10.79-.049v-3l1.875-.438c2.158-.494 2.158-.494 4.125-1.562v3l.813-2.375C615 583 615 583 618 581l2.563.063L623 581c1.938-2.773 1.938-2.773 3-5l2 1 .75-1.938C630 573 630 573 632.125 572.25L634 572v-2l1.938-.438c2.037-.372 2.037-.372 3.062-1.562l3-1 1.313-1.438c2.297-2.127 4.715-2.703 7.687-3.562v-2l3.438-.813L658 558l1-3c5.75-1 5.75-1 8-1l1-2c3.284-3.997 6.986-3.382 11.824-3.293z" fill="#6CCB71"/><path d="M438 267l-.813 5.313-.546 3.574c-.455 2.942-.927 5.882-1.407 8.82l-.396 2.448c-.267 1.648-.537 3.295-.809 4.942-.714 4.446-1.171 8.772-1.341 13.278-.194 2.775-.303 4.142-2.043 6.324C429 313.062 429 313.062 426 315l-1 2h-2l-1 2a78.037 78.037 0 01-5 2v2h-2l-1 2a381.113 381.113 0 01-6 5l-2 2c-2.705 2.289-4.618 3.873-8 5-.03-4.437-.047-8.875-.063-13.313l-.025-3.767c-.048-18.51-.048-18.51 2.088-24.92a150.052 150.052 0 016-4l2-2a146.83 146.83 0 0111.344-8.816c3.377-2.414 6.537-5.084 9.719-7.747C435.615 267 435.615 267 438 267z" fill="#5B5C5A"/><path d="M425.75 520.875l3.594.027c2.885.024 5.77.056 8.656.098l2 4h-2l.5 3.75c.978 7.333.5 14.861.5 22.25l-3.7.883c-9.143 2.254-17.454 4.695-25.831 9.078C407 562 407 562 404 561l.563-1.563c.745-4.153-.263-8.115-1.188-12.187C403 545 403 545 404 542l-1-2 .5-2.875c.485-3.03.236-4.272-.5-7.125.438-2.75.438-2.75 1-5l-2 1v-2l-2-1c8.663-1.752 16.926-2.255 25.75-2.125z" fill="#01AD3B"/><path d="M424 556v3l-5 1 1 4-6 3 3 1-3 3-1-2-4 1 2 6-1.5 1.25c-1.934 1.872-1.934 1.872-1.5 5.75l-1.938.375L404 584l-1 2h-2v2l2 1v4l-2 1 1 3-2.5 1.313L397 600v3l-1.715.77-2.223 1.043-2.214 1.019c-2.178 1.104-2.178 1.104-2.848 4.168h-2v2l-4-1 2 3-4 1 2 1-2.875 1.75c-3.534 2.49-3.534 2.49-5.125 6.25.298 2.197.298 2.197 1 4l-3-1h-3c-1.323-19.087 6.435-36.086 18.625-50.563 8.89-9.124 22.967-21.346 36.375-20.437z" fill="#BAEBD4"/><path d="M604.762 549.902l3.388.01 3.537.026 3.573.013c2.913.012 5.827.028 8.74.049-2.961 3.164-4.626 4.514-9 5v2l-4 1v2c-3.462 3-3.462 3-6 3a89.261 89.261 0 00-4 2v2c-6.75 3-6.75 3-9 3l-1.313 2.938C589 576 589 576 586 577h-2a65.203 65.203 0 00-4.063 1.813l-2.16 1.019c-2.105 1.121-2.105 1.121-2.777 4.168h-3l-1 3v-3l-2 3c-3.355 3.355-5.602 3.337-10.195 3.414l-2.144.059c-2.262.06-4.524.106-6.786.152-1.533.038-3.065.077-4.598.117-3.759.096-7.518.18-11.277.258 1.231-2.463 2.78-3.425 5-5l1 3 .25-1.875c.75-2.125.75-2.125 2.625-3.25L545 583c2.771-1.706 2.771-1.706 4-3h2l1-2c3.592-3.265 6.408-5.342 11-7l2-2 2.938-.938c3.04-1.054 3.93-1.833 6.062-4.062l2.125-.5L578 563l1-3 2.875-.438c3.018-.391 3.018-.391 5.125-1.562l-2-2 2.438-.875c2.695-.858 2.695-.858 3.562-3.125l3 1 2-2c3.178-1.06 5.426-1.115 8.762-1.098z" fill="#8AD58C"/><path d="M414 634h1v62c-3.937-1.312-7.793-2.668-11.66-4.157-6.37-2.452-12.62-4.621-19.3-6.105C382 685 382 685 380 682l1-3 2-1v-3c2.306-2.306 4.267-4.178 7-6 .724-2.06.724-2.06 1-4h2l.438-2.375C394 660 394 660 395 658l2-1 1-2 3-2v-3l3-2 1-3 2.875-.25c3.143-.41 3.143-.41 4.438-2.438.817-2.75 1.3-5.47 1.687-8.312z" fill="#97E1BC"/><path d="M864.297 546.902l3.652.01 3.801.026 3.848.013c3.134.012 6.268.028 9.402.049l-1.91.91c-2.113.969-2.113.969-3.528 2.528-1.978 1.978-4.144 3.156-6.562 4.562l-2.875 1.938C867 559 867 559 863.687 560.813c-3.905 2.166-7.246 4.946-10.671 7.796C851 570 851 570 848 570l-1 2-5 2-1 2h-3v2l-2.188.75c-3.08 1.37-5.218 3.11-7.812 5.25-6.884 4.892-14.828 4.135-22.938 4.063l-2.939-.014A1870.03 1870.03 0 01795 588l1-2c2.563-.625 2.563-.625 5-1v-2l1.875-.875c2.258-1.062 2.258-1.062 4.125-3.125l3-1 2-3 1.875-.438c2.871-.76 4.086-2.458 6.125-4.562 3-1 3-1 5.125-1.375L827 568l1-3c2.4-1.686 4.377-2.862 7.25-3.5l1.75-.5 1-3 2.313-.313c2.957-.756 3.68-1.505 5.687-3.687 1.938-1.063 1.938-1.063 4-2l2.25-1.125L854 550v-2c3.477-1.069 6.671-1.115 10.297-1.098z" fill="#1BB329"/><path d="M846.5 546.75l3.36.055c2.714.046 5.426.112 8.14.195l-2 3-1-1-2 3h-3l-1 3-1-1-2 2c-2.438 1.688-2.438 1.688-5 3l-3-1-1 4-1.813.313c-2.486.78-3.416 1.836-5.187 3.687h-2l-1 2a73.295 73.295 0 01-4.25 2.375c-3.583 1.924-6.588 4.061-9.75 6.625a132.403 132.403 0 01-6 3v2l-6 1v2c-5.982 4.114-12.354 3.336-19.375 3.188l-3.676-.042A998.612 998.612 0 01769 588l2-2 2 1 1-3 3-1c1.667-1.5 1.667-1.5 3-3l1 2h2v-3h2l1-2h2l1-2a128.762 128.762 0 015-3l2.04-1.34 2.148-1.41 2.042-1.36L802 567l2 1 .625-2.375C806 563 806 563 809 561.812l3-.812 2-2 3 1 1-3c2.063-1.688 2.063-1.688 4-3l2 1 .791-1.86c4.277-7.57 14.201-6.623 21.709-6.39z" fill="#27B735"/><path d="M482 551h38v2l-2.375.875c-2.722.974-2.722.974-4.625 3.125l-2-1v2h-2l-1 2v-3h-2l-.313 1.813c-.792 2.521-1.603 3.584-3.687 5.187h-3l-1 2h-3l-1 5-5-2-1 3a70.165 70.165 0 01-2.438 3.625l-1.308 1.852C483 579 483 579 481 580v3a791.206 791.206 0 01-5 3c-1.192 2.05-1.192 2.05-2 4-2.714 1.357-5.099 1.303-8.125 1.5-4.991.349-9.919.82-14.875 1.5l1-3 6-1 1-3 1-1-1-2 2.5-2.188c2.793-2.497 2.793-2.497 2.438-5.312L464 573c2.875-2.688 2.875-2.688 6-5l2-2h3v-4c1.188-1.375 1.188-1.375 3-3 1.703-1.971 3.345-3.988 5-6l-1-2z" fill="#AAE0AD"/><path d="M344 572c2.974 5.204 2 11.144 2 17 .312 2.336.642 4.67 1 7h-2c-.167 2.416-.167 2.416 0 5l2 2a104.32 104.32 0 01-1 5v3.625c0 3.375 0 3.375-1 6.375h2v2h-2l1.063 2.813C347 626 347 626 346 629l1 3-1 3c.875 2.167.875 2.167 2 4h-2l.254 2.23.308 2.957.317 2.918c.119 2.844-.278 5.13-.879 7.895l.5 2.313c.699 3.756.075 6.915-.5 10.687l2 1-1.125 3.75c-.865 3.383-.865 3.383 0 6.75L348 681c-2.405 1.203-3.95 1.1-6.625 1.063l-2.477-.028L337 682a7953.066 7953.066 0 01-.207-34.478c-.021-5.338-.05-10.676-.095-16.014-.044-5.16-.067-10.322-.078-15.483a797.762 797.762 0 00-.043-5.877c-.149-13.959.843-25.51 7.423-38.148z" fill="#02C293"/><path d="M404 524c.868 3.472.882 5.581 0 9l.5 2c.59 2.36.117 3.687-.5 6l1 2-.5 1.813c-.623 2.724-.145 4.477.5 7.187 1.125 5.625 1.125 5.625 0 9l1 2c-.76.543-1.519 1.085-2.3 1.645-.995.715-1.989 1.43-3.012 2.168l-2.989 2.144c-2.632 1.889-2.632 1.889-4.43 3.805C392 574 392 574 390 574l-2 4-3-1h2a108.817 108.817 0 00-1-7l-2-1 1-2c0-2.621-.313-4.51-1-7h2l-.5-3.125c-.596-4.623-.982-8.428.5-12.875l-1-3a140.002 140.002 0 01-.063-6.188l.028-3.292L385 529a405255067.255 405255067.255 0 016.738-3.027c4.286-1.843 7.615-2.06 12.262-1.973z" fill="#01B55E"/><path d="M464 521l-.563 2.813c-.678 3.2-.678 3.2.563 6.187h-2l1.063 2.688c.978 3.457.829 4.923-.063 8.312-.162 4.04-.162 4.04 1 8l30 1v1h-55c-.68-4.083-1-7.033-1-11a104.575 104.575 0 00-1-5h2l-.5-3.063c-.47-3.703-.536-7.21-.5-10.937 8.774-.708 17.248-1.368 26 0z" fill="#02A825"/><path d="M1136 688c4.43 2.136 7.162 4.404 9 9 .72 4.8.506 8.058-1.813 12.375-4.495 5.394-4.495 5.394-8.187 6.625-4.488.396-8.62.51-12.875-1.063-4.29-3.91-6.344-7.76-6.625-13.5.27-5.466 2.559-8.672 6.563-12.312 4.625-1.771 9.053-1.77 13.937-1.125z" fill="#EEEFEE"/><path d="M420 521c0 3 0 3-1.063 4.875-1.254 2.844-.661 4.096.063 7.125 1.733 14.23 1.733 14.23.438 19.125-.666 1.95-.666 1.95.562 3.875a701.002 701.002 0 01-6.313 3.063l-3.55 1.722C407 562 407 562 404 561l.563-1.563c.745-4.153-.263-8.115-1.188-12.187C403 545 403 545 404 542l-1-2 .5-2.875c.485-3.03.236-4.272-.5-7.125.438-2.75.438-2.75 1-5l-2 1v-2l-2-1c6.742-1.258 13.135-2.264 20-2z" fill="#01B14C"/><path d="M417 621c2.557 2.557 2.339 3.825 2.563 7.375.246 3.9.246 3.9.964 7.727C421 638 421 638 421 642h-2v2l2 1-1.125 2.688c-.983 3.72-.636 4.986 1.125 8.312l-1 1 2 2-1.063 2.375L420 664l1 2v3c.306 1.34.635 2.675 1 4h-2l.254 2.336.308 3.039.317 3.023C421 684 421 684 420 686l2 1-2 5 2 2h-2v2l2 1h-2l-1 2-4-2c-.046-8.876-.082-17.751-.104-26.627-.01-4.122-.024-8.243-.047-12.365-.022-3.981-.034-7.962-.039-11.943-.003-1.516-.01-3.031-.021-4.546a875.9 875.9 0 01-.016-6.39l-.014-3.668c.265-3.802 1.074-6.846 2.241-10.461z" fill="#02B149"/><path d="M414 634h1v62c-4.079-1.36-7.898-2.719-11.813-4.438l-2.894-1.246C398 689 398 689 397 686l5-4 1 3c.544-3.058 1-5.888 1-9h1v-3c3-2 3-2 4-2 3.628-4.535 4.15-7.139 4.316-12.977l.063-2.076c.066-2.19.125-4.381.183-6.572l.131-4.453c.107-3.64.209-7.281.307-10.922z" fill="#88DBAD"/><path d="M1136 688c4.43 2.136 7.162 4.404 9 9 .72 4.8.506 8.058-1.813 12.375-4.495 5.394-4.495 5.394-8.187 6.625-4.488.396-8.62.51-12.875-1.063-4.29-3.91-6.344-7.76-6.625-13.5.27-5.466 2.559-8.672 6.563-12.312 4.625-1.771 9.053-1.77 13.937-1.125zm-16 7c-1.736 3.472-1.466 7.204-1 11 1.621 3.185 2.973 5.221 5.813 7.375 4.788 1.368 8.117 1.21 12.5-1.188 2.783-2.265 4.467-3.842 5.058-7.457.117-4.488.195-7.718-2.746-11.293-3.833-3.559-6.215-3.83-11.297-3.796-3.918.604-5.632 2.528-8.328 5.359z" fill="#202020"/><path d="M1124 694l4.75-.188 2.672-.105c3.025.344 4.334 1.295 6.578 3.293l-.5 2.75c-.584 3.797-.722 6.583.5 10.25h-4l-2-5h-4v5h-4v-16z" fill="#0E0E0E"/><path d="M1135 690c3.063 1.736 5.401 3.802 7 7 .933 8.776.933 8.776-2 12.625l-2 1.375c-1.625-2.188-1.625-2.188-3-5 .875-2.5.875-2.5 2-5-.14-2.707-.14-2.707-1-5-2.603-1.301-4.534-1.097-7.438-1.063l-2.933.028L1123 695h-3c4.623-4.742 8.338-6.523 15-5z" fill="#E8E8E7"/><path d="M464 898c5.393 1.079 7.254 2.756 10.813 6.563l1.521 1.576A448.896 448.896 0 01480 910l-1 2h-15v-14z" fill="#000101"/><path d="M1120 691l3 1-1.5 1.938c-2.016 4.116-2.106 7.553-1.5 12.062 1.355 3.184 2.233 4.54 5.188 6.313L1127 713v3c-4.636-1.545-7.592-3.598-10.09-7.86-1.556-3.66-1.49-7.24-.91-11.14 1.103-2.355 2.333-3.968 4-6z" fill="#262625"/><path d="M691 898c4.484 1.121 5.624 2.298 8.75 5.563l2.422 2.503L704 908h-3l-3.5.5c-3.5.5-3.5.5-6.5.5v-11zM1107 254a56.54 56.54 0 014 7h2l.313 2.625c.731 3.593 1.793 6.242 3.687 9.375l3 1c.688 2.063.688 2.063 1 4l-4 2a1825.08 1825.08 0 01-5.563-11.313l-1.615-3.248-1.513-3.115-1.413-2.872C1106 257 1106 257 1107 254z" fill="#000101"/><path d="M986 721l4 2-1 7-2-1v-2l-2-1 1-5zm1 8l2 5h-2l2 4-4-1-2-7c2-1 2-1 4-1z" fill="#1EBB3B"/><path d="M1143 705l1 3c-1.11 1.79-1.11 1.79-2.75 3.625l-1.61 1.852c-2.714 2.52-5.295 2.643-8.828 2.586L1127 716v-2l1.793-.262c5.583-.993 8.477-2.216 12.207-6.738l2-2z" fill="#090909"/><path d="M1117 704h2l1.75 3.375c1.673 2.957 2.9 4.548 6.25 5.625v3c-3.927-1.309-6.44-2.708-9-6-.75-3.25-.75-3.25-1-6z" fill="#181817"/><path d="M1130.625 687.938l3.04.027L1136 688l-1 3-1.828-.035-2.422-.028-2.39-.035c-2.267.094-4.189.466-6.36 1.098l1-3c2.645-1.322 4.678-1.097 7.625-1.063z" fill="#080808"/><path d="M1128 697h5c.563 1.938.563 1.938 1 4-1 1-1 1-3.563 1.063L1128 702v-5z" fill="#DEDFDE"/><path d="M666 549h5l-2 4-3-2v-2zm-2 3h3v2l-3-1v-1z" fill="#75CE79"/><path d="M984 519l5 1-1 4-4-1v-4z" fill="#1DBA39"/><path d="M1120 691l3 1a105.022 105.022 0 01-4 5h-2c1.875-4.875 1.875-4.875 3-6z" fill="#1C1C1C"/><path d="M986 534l2 4-3 2-3-2 4-4z" fill="#1CBA39"/><path d="M260 301l3 2-1 3-2-2v-3zM1175 444l2 2-2 3c-.563-1.938-.563-1.938-1-4l1-1zM259 305l2 2-1 3-2-2 1-3zM1154 356l2 3-1 2-2-3 1-2zM218 565l1 2-1 2-2-1 2-3zM1173 424l1 2-2 2-1-3 2-1zM243 343l2 2-2 2-1-3 1-1zM254 315l2 2-1 2-2-1 1-3zM276 270l2 3-2 2v-5zM1159 649l2 3-3-1 1-2zM1174 576l2 2h-3l1-2zM1179 529l2 1-2 2v-3zM1178 477l2 1-2 2v-3zM1177 465l2 1-2 2v-3zM1174 441l2 1-2 2v-3zM220 431l2 2h-3l1-2zM1170 419h2l1 3h-2l-1-3zM1169 410l2 2h-3l1-2zM1168 400v3l-2-2 2-1zM1165 394l2 2h-3l1-2zM252 319l3 2h-3v-2zM1135 311l3 1-1 2-2-3zM1129 294l1 4-2-3 1-1zM227 622l2 2-2 1v-3zM220 588l2 2-2 1v-3zM1173 587v3zM218 574l2 2-2 1v-3zM1173 430v3zM224 410l2 1-2 2v-3zM1150 342v3zM1145 330v3zM272 280l2 2-2 1v-3zM224 615l2 2h-2v-2zM1171 608l1 2-2-1 1-1zM1176 578l1 2-2-1 1-1zM215 561l2 2h-2v-2zM214 539l2 2h-2v-2zM213 523l2 2h-2v-2zM213 513l2 2h-2v-2zM1180 512l1 2-2-1 1-1zM213 507l2 2h-2v-2zM213 501l2 2h-2v-2zM1180 496l1 2-2-1 1-1zM213 495l2 2h-2v-2zM1180 490l1 2-2-1 1-1zM214 471l2 2h-2v-2zM218 443l1 2-2-1 1-1zM218 437l2 2h-2v-2zM1171 414l1 2-2-1 1-1zM1157 362l1 2-2-1 1-1zM237 362l2 1-2 1v-2zM247 334l2 1-2 1v-2zM251 324l2 1-2 1v-2zM1140 316l1 2-2-1 1-1zM1137 315h2l-1 2-1-2zM1131 301h2l-1 2-1-2zM263 298l2 1-2 1v-2zM267 289l1 2-2-1 1-1zM1118 272l1 2-2-1 1-1zM1156 661l2 1zM1158 655l2 1zM1161 645l2 1zM1161 643l2 1zM1163 637l2 1zM1164 633l2 1zM226 626l2 1zM1167 623l2 1zM1167 621l2 1zM1169 613l2 1zM1169 611l2 1zM220 596l2 1zM219 592l2 1zM1173 591l2 1zM217 578l2 1zM1176 571l2 1zM216 570l2 1zM1176 569l2 1zM1177 563l2 1zM1177 561l2 1zM1177 559l2 1zM1178 553l2 1zM1178 551l2 1zM214 550l2 1zM1178 549l2 1zM214 548l2 1zM1178 547l2 1zM214 546l2 1zM214 544l2 1zM214 542l2 1zM1179 539l2 1zM1179 537l2 1zM1179 535l2 1zM1179 533l2 1zM1179 527l2 1zM213 526l2 1zM1179 525l2 1zM1179 523l2 1zM1179 521l2 1zM213 520l2 1zM213 510l2 1zM213 504l2 1zM1179 499l2 1zM213 498l2 1zM1179 493l2 1zM213 490l2 1zM1178 481l2 1zM214 478l2 1zM214 476l2 1zM1178 475l2 1zM214 474l2 1zM1178 473l2 1zM1177 463l2 1zM216 456l2 1zM216 454l2 1zM216 452l2 1zM217 448l2 1zM217 446l2 1zM218 440l2 1zM1174 439l2 1zM1171 423l2 1zM222 418l2 1zM1170 417l2 1zM222 416l2 1zM224 408l2 1zM224 406l2 1zM225 402l2 1zM1166 399l2 1zM1166 397l2 1zM1163 387l2 1zM229 386l2 1zM233 372l2 1zM237 360l2 1zM247 332l2 1zM251 322l2 1zM261 300l2 1zM263 296l2 1z" fill="#000101"/></svg>