<svg xmlns="http://www.w3.org/2000/svg" width="512" height="512"><path d="M384 160c17.299 8.5 31.13 22.991 38.164 40.977C423.398 204.884 424 207.863 424 212l3.441-.484c21.02-2.604 41.112-.117 58.559 12.484-1.582 13.984-11.993 26.606-22.656 35.121C448.549 269.238 431.528 271.524 414 271l-.285 2.016c-.913 3.812-2.475 7.211-4.152 10.734l-1.074 2.256C398.95 305.68 386.564 323.718 372 340l-1.517 1.704C364.663 348.212 358.79 354.488 352 360l-3.156 2.664C328.587 379.544 305.654 391.88 281 401l-2.22.832c-26.815 9.915-56.11 15.175-84.694 15.406l-3.046.03c-41.822.324-41.822.324-60.04-4.268l-2.625-.633c-33.845-8.394-63.252-28.749-81.705-58.512C39.031 341.003 34.035 327.357 30 313l-.728-2.566C24.42 292.409 23.771 270.382 27 252l2.072-.002a103831.625 103831.625 0 00136.331-.206l2.942-.005c15.696-.031 31.393-.048 47.09-.06 16.118-.013 32.236-.04 48.355-.082 9.937-.025 19.875-.038 29.812-.036 6.825 0 13.649-.015 20.473-.041 3.931-.015 7.862-.023 11.793-.014C350.792 252.92 350.792 252.92 373 244l-1.023-2.125-1.352-2.875-1.336-2.813C362.331 218.983 363.866 197.83 371 181c3.612-7.541 7.674-14.542 13-21z" fill="#099BEC"/><path d="M230 94h48v45h-48V94z" fill="#089CEC"/><path d="M173 147h49v44h-49v-44zM117 147h49v44h-49v-44zM230 147h48v44h-48v-44z" fill="#089BEB"/><path d="M173 199h49v43h-49v-43z" fill="#089CEB"/><path d="M117 199h49v43h-49v-43z" fill="#089BEB"/><path d="M61 199h49v43H61v-43z" fill="#099BEB"/><path d="M286 199h48v43h-48v-43zM230 199h48v43h-48v-43z" fill="#089BEB"/></svg>