<svg xmlns="http://www.w3.org/2000/svg" width="1024" height="1024"><path d="M990 44c1.885 5.172 3.755 10.35 5.61 15.533.632 1.762 1.27 3.523 1.911 5.282.923 2.53 1.83 5.066 2.733 7.603l.877 2.374c2.469 7.021 2.469 7.021.869 11.208-2.258 2.613-2.258 2.613-5.125 5.313-3.236 3.07-6.303 6.128-9.21 9.511-4.507 5.22-9.432 9.992-14.349 14.82a209.664 209.664 0 00-11.556 12.374c-3.724 4.194-7.797 8.056-11.8 11.982-3.267 3.23-6.432 6.485-9.429 9.969-4.457 5.174-9.345 9.894-14.215 14.676-3.395 3.358-6.7 6.734-9.816 10.355-4.444 5.166-9.325 9.873-14.184 14.645a209.664 209.664 0 00-11.556 12.373c-3.724 4.194-7.797 8.056-11.8 11.982-3.267 3.23-6.432 6.485-9.429 9.969-4.457 5.174-9.345 9.894-14.215 14.676-3.395 3.358-6.7 6.734-9.816 10.355-4.444 5.166-9.325 9.873-14.184 14.645a209.664 209.664 0 00-11.556 12.373c-3.724 4.194-7.797 8.056-11.8 11.982-3.267 3.23-6.432 6.485-9.429 9.969-4.457 5.174-9.345 9.894-14.215 14.676a209.664 209.664 0 00-11.556 12.373c-3.724 4.194-7.797 8.056-11.8 11.982-3.267 3.23-6.432 6.485-9.429 9.969-4.457 5.174-9.345 9.894-14.215 14.676-3.395 3.358-6.7 6.734-9.816 10.355-4.444 5.166-9.325 9.873-14.184 14.645a209.664 209.664 0 00-11.556 12.373c-3.724 4.194-7.797 8.056-11.8 11.982-3.267 3.23-6.432 6.485-9.429 9.969-4.457 5.174-9.345 9.894-14.215 14.676-3.395 3.358-6.7 6.734-9.816 10.355-4.444 5.166-9.325 9.873-14.184 14.645a209.664 209.664 0 00-11.556 12.373c-3.724 4.194-7.797 8.056-11.8 11.982-3.267 3.23-6.432 6.485-9.429 9.969-4.457 5.174-9.345 9.894-14.215 14.676-3.395 3.358-6.7 6.734-9.816 10.355-4.444 5.166-9.325 9.873-14.184 14.645a209.664 209.664 0 00-11.556 12.373c-3.724 4.194-7.797 8.056-11.8 11.982-3.267 3.23-6.432 6.485-9.429 9.969-4.457 5.174-9.345 9.894-14.215 14.676a209.664 209.664 0 00-11.556 12.373c-3.724 4.194-7.797 8.056-11.8 11.982-3.267 3.23-6.432 6.485-9.429 9.969-4.457 5.174-9.345 9.894-14.215 14.676-3.395 3.358-6.7 6.734-9.816 10.355-4.444 5.166-9.325 9.873-14.184 14.645a209.664 209.664 0 00-11.556 12.373c-3.724 4.194-7.797 8.056-11.8 11.982-3.267 3.23-6.432 6.485-9.429 9.969-4.457 5.174-9.345 9.894-14.215 14.676-3.395 3.358-6.7 6.734-9.816 10.355-4.444 5.166-9.325 9.873-14.184 14.645a209.664 209.664 0 00-11.556 12.373c-3.724 4.194-7.797 8.056-11.8 11.982-3.921 3.877-7.653 7.837-11.222 12.043-2.15 2.42-4.434 4.684-6.738 6.957 4.691.291 9.383.576 14.075.854 1.588.096 3.176.193 4.764.292 5.385.334 10.77.624 16.161.854l2.3.1c2.19.083 4.38.137 6.571.181l3.834.096c4.544-.52 6.64-2.346 9.424-5.846L400 769c6.476-7.925 13.905-14.973 21.175-22.155 7.361-7.204 7.361-7.204 14.294-14.814 5.662-6.644 12.075-12.627 18.279-18.759 7.596-7.428 7.596-7.428 14.752-15.272 5.648-6.636 12.055-12.607 18.248-18.728 7.596-7.428 7.596-7.428 14.752-15.272 5.648-6.636 12.055-12.607 18.248-18.728 5.641-5.58 11.223-11.12 16.37-17.167 5.072-5.672 10.645-10.914 16.057-16.26 7.361-7.204 7.361-7.204 14.294-14.814 5.662-6.644 12.075-12.627 18.279-18.759 7.596-7.428 7.596-7.428 14.752-15.272 5.648-6.636 12.055-12.607 18.248-18.728 5.641-5.58 11.223-11.12 16.37-17.167 5.072-5.672 10.645-10.914 16.057-16.26 7.361-7.204 7.361-7.204 14.294-14.814 5.662-6.644 12.075-12.627 18.279-18.759 7.596-7.428 7.596-7.428 14.752-15.272 5.648-6.636 12.055-12.607 18.248-18.728 7.596-7.428 7.596-7.428 14.752-15.272 5.648-6.636 12.055-12.607 18.248-18.728 5.641-5.58 11.223-11.12 16.37-17.167 5.072-5.672 10.645-10.914 16.057-16.26 7.361-7.204 7.361-7.204 14.294-14.814 5.662-6.644 12.075-12.627 18.279-18.759 7.596-7.428 7.596-7.428 14.752-15.272 5.648-6.636 12.055-12.607 18.248-18.728 5.66-5.6 11.268-11.158 16.432-17.225 4.197-4.72 8.773-9.101 13.257-13.547l3.084-3.07c2.49-2.48 4.984-4.956 7.479-7.43 3.44 1.633 5.881 3.531 8.688 6.125 3.565 3.37 3.565 3.37 7.526 6.23 4.318 2.961 6.477 5.247 7.627 10.447.447 4.96.365 9.923.309 14.898.01 1.934.026 3.868.044 5.803.04 5.31.023 10.62-.003 15.93-.018 5.729.015 11.457.042 17.186.044 11.221.039 22.442.016 33.664-.017 9.12-.018 18.24-.006 27.36l.005 3.932.01 7.909c.03 24.02.01 48.041-.033 72.062-.039 21.92-.028 43.84.024 65.76a21750.033 21750.033 0 01.05 81.783l-.004 3.917c-.006 9.108.011 18.216.037 27.324.032 11.102.028 22.203-.021 33.305-.025 5.664-.033 11.327.002 16.992.032 5.187.017 10.372-.034 15.559-.01 1.874-.004 3.75.02 5.624.173 13.975.173 13.975-3.468 19.453-2.485 2.525-4.98 4.64-7.831 6.737a329.703 329.703 0 00-4.031 3.531l-1.946 1.668c-4.021 3.58-7.748 7.466-11.523 11.301-5.05 5.13-10.095 10.166-15.596 14.814-2.405 2.13-4.649 4.4-6.904 6.686a21555.036 21555.036 0 0024.18 1.447c15.476.918 30.955 1.784 46.437 2.608l5.048.269c7.517.4 15.034.799 22.552 1.19 3.155.165 6.31.333 9.464.5 1.476.078 2.952.155 4.427.23 2.038.105 4.076.214 6.114.323l3.47.181c3.467.264 6.872.724 10.308 1.252.33 16.571.576 33.141.725 49.715.072 7.7.169 15.398.331 23.097.713 34.501.793 64.643-15.056 96.188-47.875-3.8-95.73-7.818-143.584-11.873l-32.04-2.712-57.13-4.836-55.271-4.68-60.633-5.13-3.235-.274a7124494.61 7124494.61 0 01-86.748-7.344c-7.792-.658-15.58-1.337-23.359-2.151a208.607 208.607 0 0112.648-13.781l1.868-1.87c1.294-1.296 2.59-2.59 3.887-3.883 1.963-1.957 3.921-3.92 5.878-5.884 10.446-10.451 10.446-10.451 14.727-14.082 6.553-5.566 12.45-11.894 18.492-18 14.23-14.38 14.23-14.38 20.322-19.545 5.808-5.213 11.19-10.91 16.678-16.455 14.23-14.38 14.23-14.38 20.322-19.545 5.808-5.213 11.19-10.91 16.678-16.455 14.259-14.409 14.259-14.409 20.354-19.576 5.625-5.042 10.835-10.555 16.146-15.924 13.698-13.848 13.698-13.848 17.969-17.469 6.567-5.575 12.476-11.912 18.531-18.031 15.177-15.337 15.177-15.337 20.674-19.893L743 719l1.467-1.168c3.09-2.69 4.9-4.645 5.255-8.818.017-1.53.001-3.06-.04-4.59l.002-2.544c-.004-2.76-.05-5.518-.098-8.278-.011-1.92-.02-3.84-.026-5.76-.023-5.04-.082-10.08-.148-15.12-.062-5.148-.089-10.296-.119-15.445A4920.185 4920.185 0 00749 627l-1.461 1.464a99926.294 99926.294 0 01-35.284 35.333c-5.689 5.694-11.377 11.39-17.063 17.087-4.959 4.968-9.919 9.935-14.881 14.9-2.625 2.626-5.25 5.253-7.872 7.882-2.934 2.942-5.872 5.88-8.81 8.819l-2.605 2.615c-4.219 4.212-8.512 8.243-13.03 12.131-3.807 3.377-7.36 7.014-10.945 10.623l-2.595 2.599c-2.326 2.33-4.65 4.664-6.973 6.998-2.446 2.456-4.895 4.908-7.344 7.361A34941.678 34941.678 0 00601.5 773.5c-6.707 6.73-13.416 13.458-20.129 20.182-2.43 2.435-4.86 4.87-7.287 7.31a8457.82 8457.82 0 01-8.133 8.154l-2.396 2.413a231.166 231.166 0 01-12.626 11.729c-3.3 2.929-6.349 6.093-9.417 9.261l-4.365 4.472-2.304 2.366c-4.959 5.082-9.949 10.132-14.932 15.19-4.345 4.413-8.68 8.836-12.994 13.28-35.862 36.921-35.862 36.921-56.516 46.052-3.455 1.57-6.63 3.46-9.881 5.415l-2.956 1.737-2.752 1.627a930.188 930.188 0 01-8.509 4.978 204.433 204.433 0 00-5.354 3.229c-8.586 3.218-19.459.672-28.441-.103l-4.684-.394c-4.27-.36-8.54-.723-12.81-1.089-4.613-.393-9.226-.782-13.839-1.172-9.028-.762-18.056-1.53-27.084-2.299-10.517-.895-21.034-1.786-31.551-2.677-18.767-1.589-37.533-3.182-56.299-4.778a188403.83 188403.83 0 00-54.612-4.636l-3.398-.288-13.523-1.145a411927.836 411927.836 0 01-67.796-5.75 133150.095 133150.095 0 01-46.726-3.969 26664.93 26664.93 0 01-17.04-1.448C35.753 900.522 28.37 899.867 21 899c1.846-3.971 4.446-6.85 7.437-10l3.278-3.5 1.671-1.777c2.393-2.555 4.753-5.139 7.114-7.723 3.823-4.177 7.658-8.342 11.5-12.5A5535.917 5535.917 0 0069 845a6036.612 6036.612 0 0118.517-20.142c5.177-5.605 10.33-11.23 15.483-16.858a6036.612 6036.612 0 0118.517-20.142c5.177-5.605 10.33-11.23 15.483-16.858a6036.612 6036.612 0 0118.517-20.142c5.177-5.605 10.33-11.23 15.483-16.858 6.16-6.728 12.33-13.445 18.52-20.144 3.335-3.611 6.66-7.23 9.98-10.856 3.823-4.176 7.658-8.342 11.5-12.5a5535.917 5535.917 0 0017-18.5 6036.612 6036.612 0 0118.517-20.142c5.177-5.605 10.33-11.23 15.483-16.858a6036.612 6036.612 0 0118.517-20.142c5.177-5.605 10.33-11.23 15.483-16.858a6036.612 6036.612 0 0118.517-20.142c5.177-5.605 10.33-11.23 15.483-16.858 6.16-6.728 12.33-13.445 18.52-20.144 3.335-3.611 6.66-7.23 9.98-10.856 3.823-4.176 7.658-8.342 11.5-12.5a5535.917 5535.917 0 0017-18.5 6036.612 6036.612 0 0118.517-20.142c5.177-5.605 10.33-11.23 15.483-16.858a6036.612 6036.612 0 0118.517-20.142c5.177-5.605 10.33-11.23 15.483-16.858a6036.612 6036.612 0 0118.517-20.142c5.177-5.605 10.33-11.23 15.483-16.858 6.16-6.728 12.33-13.445 18.52-20.144 3.335-3.611 6.66-7.23 9.98-10.856 3.823-4.176 7.658-8.342 11.5-12.5a5535.917 5535.917 0 0017-18.5 6036.612 6036.612 0 0118.517-20.142c5.177-5.605 10.33-11.23 15.483-16.858a6036.612 6036.612 0 0118.517-20.142c4.259-4.611 8.503-9.235 12.74-13.866 1.907-2.083 3.82-4.16 5.735-6.234l1.494-1.621a5712.15 5712.15 0 014.104-4.446A149.959 149.959 0 00629 235a327.389 327.389 0 00-9.883 0c-2.751.037-5.285-.112-8.047-.375-5.459-.26-9.687-.381-14.224 2.962-4.427 4.046-8.282 8.55-12.053 13.204-4.953 6.102-10.282 11.865-15.668 17.584a871.405 871.405 0 00-13.926 15.176c-2.506 2.791-5.037 5.56-7.574 8.324l-1.395 1.52-5.646 6.146c-4.696 5.112-9.387 10.228-14.022 15.397-3.997 4.455-8.054 8.853-12.12 13.245A848.547 848.547 0 00505.5 338c-3.975 4.436-8.012 8.813-12.059 13.184A848.85 848.85 0 00484.5 361c-3.975 4.436-8.012 8.813-12.059 13.184A848.85 848.85 0 00463.5 384c-3.975 4.436-8.012 8.813-12.059 13.184A848.85 848.85 0 00442.5 407c-4.434 4.946-8.94 9.823-13.45 14.7-6.203 6.708-12.387 13.435-18.488 20.238-3.997 4.455-8.054 8.853-12.12 13.245A848.547 848.547 0 00389.5 465c-3.975 4.436-8.012 8.813-12.059 13.184A848.85 848.85 0 00368.5 488c-3.975 4.436-8.012 8.813-12.059 13.184A848.85 848.85 0 00347.5 511c-3.975 4.436-8.012 8.813-12.059 13.184A848.85 848.85 0 00326.5 534c-3.975 4.436-8.012 8.813-12.059 13.184A848.85 848.85 0 00305.5 557c-4.434 4.946-8.94 9.823-13.45 14.7-6.203 6.708-12.387 13.435-18.488 20.238-3.997 4.455-8.054 8.853-12.12 13.245A848.547 848.547 0 00252.5 615c-3.975 4.436-8.012 8.813-12.059 13.184A848.85 848.85 0 00231.5 638c-3.975 4.436-8.012 8.813-12.059 13.184A848.85 848.85 0 00210.5 661c-3.975 4.436-8.012 8.813-12.059 13.184a1029.21 1029.21 0 00-11.082 12.207 946.572 946.572 0 01-10.111 10.968l-1.451 1.563-1.27 1.362c-1.71 1.864-1.71 1.864-3.685 4.7-2.86 3.42-5.442 4.143-9.848 4.982l-2.076.417c-2.25.445-4.505.855-6.762 1.265a1476.02 1476.02 0 01-17.121 3.253c-3.373.63-6.742 1.282-10.112 1.934-4.025.778-8.052 1.547-12.08 2.313l-2.318.443c-2.172.411-4.345.816-6.52 1.22l-3.742.698c-2.836.427-5.407.53-8.263.491a92924.806 92924.806 0 01-.44-185.358l-.006-3.935c-.035-21.033-.098-42.065-.171-63.098-.075-21.578-.12-43.155-.136-64.733a9860.965 9860.965 0 00-.11-39.951 4748.78 4748.78 0 01-.045-27.387c.005-5.27-.003-10.538-.046-15.807-.039-4.825-.04-9.648-.013-14.473a320.45 320.45 0 00-.032-5.234c-.199-14.645-.199-14.645 4.894-20.427A135.807 135.807 0 01100 278a76.09 76.09 0 002.645-3.145c1.456-1.792 2.915-3.584 4.375-5.375A248.163 248.163 0 00112 263l-2.725-.524c-9.428-1.846-18.773-3.959-28.107-6.234l-4.36-1.056c-3.01-.73-6.02-1.46-9.028-2.193-3.858-.94-7.717-1.875-11.577-2.808-2.985-.722-5.97-1.447-8.953-2.172l-4.274-1.036c-1.977-.478-3.953-.96-5.928-1.442l-3.403-.828C31 244 31 244 29 243c-.023-15.238-.041-30.475-.052-45.713-.005-7.075-.012-14.15-.023-21.224-.011-6.82-.017-13.642-.02-20.463a5798.06 5798.06 0 00-.01-7.826c-.008-3.64-.009-7.28-.009-10.92l-.01-3.305.004-2.987-.003-2.612C29 126 29 126 30 125c1.934-.254 3.876-.443 5.82-.607l3.856-.333c1.43-.12 2.861-.238 4.292-.357l4.517-.386c4.156-.356 8.314-.705 12.471-1.054 4.476-.376 8.952-.758 13.428-1.139 8.778-.746 17.556-1.488 26.334-2.227a65769.61 65769.61 0 0030.651-2.593c18.231-1.545 36.463-3.086 54.694-4.624 17.698-1.493 35.395-2.99 53.092-4.49a217004.106 217004.106 0 0163.921-5.411l3.062-.26c7.124-.601 14.247-1.205 21.37-1.808 8.685-.737 17.37-1.47 26.055-2.202 4.432-.373 8.865-.747 13.297-1.124 4.057-.345 8.115-.687 12.173-1.027 1.468-.123 2.935-.248 4.403-.373 1.996-.17 3.993-.337 5.99-.504l3.359-.283c6.067-.373 10.387-.59 15.777 2.407l3.132 1.714 3.306 1.869 3.44 1.9c2.95 1.63 5.889 3.278 8.824 4.933 2.767 1.56 5.54 3.11 8.31 4.663 5.488 3.084 10.961 6.192 16.426 9.316l2.194 1.253L459 125c-1.562 3.68-3.836 6.165-6.563 9.063-3.413 3.67-6.677 7.397-9.812 11.312-3.867 4.796-7.974 9.294-12.18 13.786-3.924 4.213-7.564 8.603-11.168 13.093-2.495 3.01-5.115 5.885-7.777 8.746-3.474 3.733-6.8 7.524-10 11.5-3.636 4.519-7.468 8.78-11.416 13.022a185.627 185.627 0 00-8.522 9.916c-3.842 4.777-7.93 9.252-12.118 13.724-3.923 4.212-7.563 8.602-11.167 13.092-2.938 3.543-6.06 6.9-9.194 10.268a185.64 185.64 0 00-8.52 9.916c-3.843 4.777-7.931 9.252-12.12 13.724-3.922 4.212-7.562 8.602-11.166 13.092-2.938 3.543-6.06 6.9-9.194 10.268a185.64 185.64 0 00-8.52 9.916c-3.366 4.184-6.895 8.145-10.563 12.062a249.277 249.277 0 00-13.02 15.066c-2.197 2.7-4.536 5.229-6.984 7.704-1.472 2.558-1.153 4.843-.996 7.73 4.582-4.994 9.068-10.027 13.312-15.312 3.891-4.815 8.018-9.337 12.246-13.851A184.784 184.784 0 00302.5 312.5c3.343-4.167 6.851-8.104 10.5-12 4.459-4.76 8.638-9.665 12.723-14.754 2.938-3.543 6.06-6.9 9.194-10.268a185.64 185.64 0 008.52-9.915c3.844-4.78 7.933-9.255 12.121-13.727A184.802 184.802 0 00364.5 241.5c3.343-4.167 6.851-8.104 10.5-12 4.459-4.76 8.638-9.665 12.723-14.754 2.938-3.543 6.06-6.9 9.194-10.268a185.64 185.64 0 008.52-9.915c3.844-4.78 7.933-9.255 12.121-13.727A184.802 184.802 0 00426.5 170.5c3.343-4.167 6.851-8.104 10.5-12 4.459-4.76 8.638-9.665 12.723-14.754 2.938-3.543 6.06-6.9 9.194-10.268a185.64 185.64 0 008.52-9.915c3.366-4.185 6.895-8.146 10.563-12.063 4.53-4.838 8.802-9.816 12.96-14.98 9.147-11.302 9.147-11.302 14.395-11.907 1.485-.13 2.971-.255 4.457-.376l2.486-.214c2.778-.237 5.556-.468 8.335-.7l6-.51c5.52-.469 11.039-.932 16.559-1.395 5.943-.5 11.887-1.004 17.83-1.507 10.306-.873 20.612-1.742 30.918-2.61a93512.43 93512.43 0 0042.658-3.599c24.867-2.101 49.735-4.2 74.602-6.295 23.49-1.979 46.98-3.96 70.47-5.945l2.192-.185 10.932-.924 2.179-.184 4.35-.367a660324.34 660324.34 0 0189.503-7.556 209942.157 209942.157 0 0160.316-5.087 41259.265 41259.265 0 0121.997-1.855c2.64-.223 5.282-.445 7.923-.666l2.332-.199C984.274 44.2 987.11 44 990 44z" fill="#2E9035"/><path d="M987 44h3c1.885 5.172 3.755 10.35 5.61 15.533.632 1.762 1.27 3.523 1.911 5.282.923 2.53 1.83 5.066 2.733 7.603l.877 2.374c2.469 7.021 2.469 7.021.869 11.208-2.258 2.613-2.258 2.613-5.125 5.313-3.236 3.07-6.303 6.128-9.21 9.511-4.507 5.22-9.432 9.992-14.349 14.82a209.664 209.664 0 00-11.556 12.374c-3.724 4.194-7.797 8.056-11.8 11.982-3.267 3.23-6.432 6.485-9.429 9.969-4.457 5.174-9.345 9.894-14.215 14.676-3.395 3.358-6.7 6.734-9.816 10.355-4.444 5.166-9.325 9.873-14.184 14.645a209.664 209.664 0 00-11.556 12.373c-3.724 4.194-7.797 8.056-11.8 11.982-3.267 3.23-6.432 6.485-9.429 9.969-4.457 5.174-9.345 9.894-14.215 14.676-3.395 3.358-6.7 6.734-9.816 10.355-4.444 5.166-9.325 9.873-14.184 14.645a209.664 209.664 0 00-11.556 12.373c-3.724 4.194-7.797 8.056-11.8 11.982-3.267 3.23-6.432 6.485-9.429 9.969-4.457 5.174-9.345 9.894-14.215 14.676a209.664 209.664 0 00-11.556 12.373c-3.724 4.194-7.797 8.056-11.8 11.982-3.267 3.23-6.432 6.485-9.429 9.969-4.457 5.174-9.345 9.894-14.215 14.676-3.395 3.358-6.7 6.734-9.816 10.355-4.444 5.166-9.325 9.873-14.184 14.645a209.664 209.664 0 00-11.556 12.373c-3.724 4.194-7.797 8.056-11.8 11.982-3.267 3.23-6.432 6.485-9.429 9.969-4.457 5.174-9.345 9.894-14.215 14.676-3.395 3.358-6.7 6.734-9.816 10.355-4.444 5.166-9.325 9.873-14.184 14.645a209.664 209.664 0 00-11.556 12.373c-3.724 4.194-7.797 8.056-11.8 11.982-3.267 3.23-6.432 6.485-9.429 9.969-4.457 5.174-9.345 9.894-14.215 14.676-3.395 3.358-6.7 6.734-9.816 10.355-4.444 5.166-9.325 9.873-14.184 14.645a209.664 209.664 0 00-11.556 12.373c-3.724 4.194-7.797 8.056-11.8 11.982-3.267 3.23-6.432 6.485-9.429 9.969-4.457 5.174-9.345 9.894-14.215 14.676a209.664 209.664 0 00-11.556 12.373c-3.724 4.194-7.797 8.056-11.8 11.982-3.267 3.23-6.432 6.485-9.429 9.969-4.457 5.174-9.345 9.894-14.215 14.676-3.395 3.358-6.7 6.734-9.816 10.355-4.444 5.166-9.325 9.873-14.184 14.645a209.664 209.664 0 00-11.556 12.373c-3.724 4.194-7.797 8.056-11.8 11.982-3.267 3.23-6.432 6.485-9.429 9.969-4.457 5.174-9.345 9.894-14.215 14.676-3.395 3.358-6.7 6.734-9.816 10.355-4.444 5.166-9.325 9.873-14.184 14.645a209.664 209.664 0 00-11.556 12.373c-3.724 4.194-7.797 8.056-11.8 11.982-3.921 3.877-7.653 7.837-11.222 12.043-2.144 2.414-4.455 4.674-6.738 6.957l51 3-6 8a487.853 487.853 0 00-2.934 4.57c-4.7 6.51-9.643 11.7-17.835 13.052-8.812.498-17.68-.694-26.42-1.7-7.582-.86-15.153-1.342-22.772-1.719l-3.578-.18-7.121-.35a2232.79 2232.79 0 01-16.945-.892l-3.01-.148-2.776-.162-2.416-.13c-2.392-.372-4.098-1.153-6.193-2.341.64-.63 1.281-1.258 1.941-1.906 5.89-5.822 5.89-5.822 11.434-11.969 3.04-3.558 6.299-6.84 9.625-10.125 3.264-3.224 6.468-6.435 9.438-9.938 3.688-4.34 7.754-8.28 11.802-12.282a169.14 169.14 0 009.889-10.69c3.013-3.365 6.257-6.495 9.469-9.668 2.745-2.725 5.395-5.472 7.902-8.422 3.476-4.09 7.282-7.81 11.098-11.578 2.745-2.725 5.395-5.472 7.902-8.422 2.993-3.52 6.215-6.755 9.5-10 3.264-3.224 6.468-6.435 9.438-9.938 3.687-4.34 7.753-8.279 11.8-12.28a170.662 170.662 0 009.957-10.759c2.784-3.12 5.785-6.023 8.76-8.96 2.606-2.583 5.106-5.205 7.483-8 3.016-3.54 6.256-6.798 9.562-10.063 3.285-3.245 6.507-6.48 9.5-10 2.993-3.52 6.215-6.755 9.5-10 3.264-3.224 6.468-6.435 9.438-9.938 3.162-3.722 6.592-7.13 10.062-10.562 3.45-3.41 6.861-6.796 10-10.5 3.664-4.323 7.714-8.24 11.74-12.22a169.135 169.135 0 009.889-10.69c3.013-3.366 6.258-6.497 9.471-9.67 2.724-2.704 5.354-5.427 7.838-8.358 3.688-4.34 7.754-8.28 11.802-12.282a169.14 169.14 0 009.889-10.69c3.013-3.366 6.258-6.497 9.471-9.67 2.724-2.704 5.354-5.427 7.838-8.358 3.687-4.34 7.753-8.279 11.8-12.28a170.662 170.662 0 009.957-10.759c2.784-3.12 5.783-6.022 8.759-8.957 2.627-2.605 5.146-5.25 7.546-8.066 2.841-3.333 5.884-6.426 9-9.5 3.074-3.033 6.08-6.08 8.875-9.375 3.186-3.74 6.634-7.173 10.125-10.625 3.45-3.41 6.861-6.796 10-10.5 3.664-4.323 7.714-8.24 11.74-12.22a169.135 169.135 0 009.889-10.69c3.013-3.366 6.258-6.497 9.471-9.67 2.724-2.704 5.354-5.427 7.838-8.358 3.688-4.34 7.754-8.28 11.802-12.282a169.14 169.14 0 009.889-10.69c3.013-3.365 6.257-6.495 9.469-9.668 2.745-2.725 5.395-5.472 7.902-8.422 2.993-3.52 6.215-6.755 9.5-10 3.264-3.224 6.468-6.435 9.438-9.938 3.688-4.34 7.754-8.28 11.802-12.282a169.14 169.14 0 009.889-10.69c3.013-3.365 6.257-6.495 9.469-9.668 2.745-2.725 5.395-5.472 7.902-8.422 3.476-4.09 7.282-7.81 11.098-11.578 2.745-2.725 5.395-5.472 7.902-8.422 2.993-3.52 6.215-6.755 9.5-10 3.264-3.224 6.468-6.435 9.438-9.938 3.688-4.34 7.754-8.28 11.802-12.282a169.14 169.14 0 009.889-10.69c3.013-3.365 6.257-6.495 9.469-9.668 2.745-2.725 5.395-5.472 7.902-8.422 3.476-4.09 7.282-7.81 11.098-11.578 2.745-2.725 5.395-5.472 7.902-8.422 2.993-3.52 6.215-6.755 9.5-10 3.264-3.224 6.468-6.435 9.438-9.938 3.688-4.34 7.754-8.28 11.802-12.282a169.14 169.14 0 009.889-10.69c3.013-3.365 6.257-6.495 9.469-9.668 2.745-2.725 5.395-5.472 7.902-8.422 3.435-4.041 7.18-7.738 10.975-11.438a131.253 131.253 0 007.744-8.28c5.335-6.168 11.24-11.784 17.043-17.505 4.552-4.513 8.944-9.067 13.112-13.937 3.232-3.657 6.809-6.986 10.347-10.346 1.481-1.443 2.887-2.964 4.279-4.494v-3zM657 206c-3.821 5.509-8.082 10.217-12.878 14.909-3.93 3.856-7.558 7.9-11.122 12.091-1 1-1 1-3.889 1.027l-3.865-.09c-16.832-.662-16.832-.662-31.75 5.696-3.421 3.422-6.28 7.164-8.977 11.174-4.42 6.381-10.083 11.929-15.394 17.568a871.405 871.405 0 00-13.926 15.176c-2.506 2.791-5.037 5.56-7.574 8.324l-1.395 1.52-5.646 6.146c-4.696 5.112-9.387 10.228-14.021 15.397-3.998 4.455-8.055 8.853-12.121 13.245A848.547 848.547 0 00505.5 338c-3.975 4.436-8.012 8.813-12.059 13.184A848.85 848.85 0 00484.5 361c-3.975 4.436-8.012 8.813-12.059 13.184A848.85 848.85 0 00463.5 384c-3.975 4.436-8.012 8.813-12.059 13.184A848.85 848.85 0 00442.5 407c-4.434 4.946-8.94 9.823-13.45 14.7-6.203 6.708-12.387 13.435-18.488 20.238-3.997 4.455-8.054 8.853-12.12 13.245A848.547 848.547 0 00389.5 465c-3.975 4.436-8.012 8.813-12.059 13.184A848.85 848.85 0 00368.5 488c-3.975 4.436-8.012 8.813-12.059 13.184A848.85 848.85 0 00347.5 511c-3.975 4.436-8.012 8.813-12.059 13.184A848.85 848.85 0 00326.5 534c-3.975 4.436-8.012 8.813-12.059 13.184A848.85 848.85 0 00305.5 557c-4.434 4.946-8.94 9.823-13.45 14.7-6.203 6.708-12.387 13.435-18.488 20.237-3.997 4.456-8.054 8.854-12.12 13.246A848.547 848.547 0 00252.5 615c-3.975 4.436-8.012 8.813-12.059 13.184A848.85 848.85 0 00231.5 638c-3.975 4.436-8.012 8.813-12.059 13.184A848.85 848.85 0 00210.5 661c-3.975 4.436-8.012 8.813-12.059 13.184a1029.21 1029.21 0 00-11.082 12.207 946.572 946.572 0 01-10.111 10.968l-1.451 1.563-1.27 1.362c-1.71 1.864-1.71 1.864-3.685 4.7-2.86 3.42-5.442 4.143-9.848 4.982l-2.076.417c-2.25.445-4.505.855-6.762 1.265a1476.02 1476.02 0 01-17.121 3.253c-3.373.63-6.742 1.282-10.112 1.934-4.025.778-8.052 1.547-12.08 2.313l-2.318.443c-2.172.411-4.345.816-6.52 1.22l-3.742.698C97 722 97 722 92 722V577h1v142c4.393-3.504 4.393-3.504 8.062-7.437 3.225-3.775 6.56-7.427 9.938-11.063 3.787-4.083 7.518-8.198 11.16-12.41 2.407-2.734 4.873-5.411 7.34-8.09 3.039-3.3 6.062-6.61 9-10 3.363-3.878 6.833-7.655 10.308-11.433a1514.737 1514.737 0 0015.258-16.883c4.621-5.166 9.32-10.252 14.059-15.309 4.094-4.37 8.14-8.758 12.047-13.297 2.519-2.863 5.111-5.656 7.703-8.453A1315.404 1315.404 0 00213 588a1713.627 1713.627 0 0114.625-16.125c2.977-3.237 5.935-6.486 8.812-9.812 3.624-4.183 7.396-8.226 11.158-12.283a427.688 427.688 0 009.573-10.698c2.83-3.217 5.74-6.362 8.64-9.515 4.434-4.823 8.817-9.69 13.192-14.567l6.758-7.508c1.475-1.64 2.949-3.28 4.422-4.922 4.121-4.59 8.269-9.154 12.445-13.695a535.112 535.112 0 0010.5-11.75c2.894-3.28 5.867-6.488 8.83-9.705a368.753 368.753 0 007.482-8.358c3.624-4.182 7.396-8.225 11.158-12.282 3.251-3.512 6.435-7.07 9.565-10.69 2.407-2.734 4.873-5.411 7.34-8.09 3.039-3.3 6.062-6.61 9-10 3.407-3.932 6.931-7.754 10.455-11.58a368.753 368.753 0 007.482-8.358c3.624-4.182 7.396-8.225 11.158-12.282 3.251-3.512 6.435-7.07 9.565-10.69 2.407-2.734 4.873-5.411 7.34-8.09 3.039-3.3 6.062-6.61 9-10 3.407-3.93 6.93-7.752 10.453-11.578A386.736 386.736 0 00439.5 337c3.407-3.93 6.93-7.752 10.453-11.578A386.736 386.736 0 00457.5 317c3.363-3.878 6.833-7.655 10.308-11.433 3.695-4.02 7.358-8.066 11.004-12.13 2.267-2.525 4.54-5.043 6.813-7.562a633.763 633.763 0 007.75-8.75c3.408-3.913 6.916-7.733 10.428-11.553 5.595-6.086 11.152-12.205 16.572-18.447 3.453-3.967 7.014-7.832 10.575-11.7 2.573-2.8 5.12-5.617 7.612-8.488.77-.859.77-.859 1.553-1.736a88.505 88.505 0 003.898-4.921c4.312-5.449 7.543-8.881 14.58-9.905 2.647-.18 5.259-.3 7.907-.375 1.473-.08 2.946-.164 4.418-.253 3.37-.193 6.74-.35 10.114-.488 6.92-.287 13.831-.69 20.745-1.083 10.197-.571 20.394-1.122 30.594-1.625l3.32-.17c7.109-.343 14.193-.444 21.309-.381z" fill="#195C34"/><path d="M402 94c19.5 9.347 38.29 20.176 57 31-1.562 3.68-3.836 6.165-6.563 9.063-3.413 3.67-6.677 7.397-9.812 11.312-3.867 4.796-7.974 9.294-12.18 13.786-3.924 4.213-7.564 8.603-11.168 13.093-2.495 3.01-5.115 5.885-7.777 8.746-3.474 3.733-6.8 7.524-10 11.5-3.636 4.519-7.468 8.78-11.416 13.022a185.627 185.627 0 00-8.522 9.916c-3.842 4.777-7.93 9.252-12.118 13.724-3.923 4.212-7.563 8.602-11.167 13.092-2.938 3.543-6.06 6.9-9.194 10.268a185.64 185.64 0 00-8.52 9.916c-3.843 4.777-7.931 9.252-12.12 13.724-3.922 4.212-7.562 8.602-11.166 13.092-2.938 3.543-6.06 6.9-9.194 10.268a185.64 185.64 0 00-8.52 9.915c-3.366 4.185-6.895 8.146-10.563 12.063a245.621 245.621 0 00-13.023 15.078c-1.74 2.131-3.566 4.073-5.477 6.047-2.315 2.625-2.706 4.093-2.688 7.563-.306 6.69-5.934 10.843-10.375 15.315-2.108 2.195-3.984 4.552-5.875 6.935-3.842 4.777-7.93 9.252-12.118 13.724-3.923 4.212-7.563 8.602-11.167 13.092-2.495 3.01-5.115 5.885-7.777 8.746-4.339 4.664-8.42 9.482-12.422 14.441-5.866 7.222-5.866 7.222-9.078 10.559h-1a3375.81 3375.81 0 01-.622-38.833c-.062-6.012-.147-12.023-.283-18.034-.131-5.81-.203-11.618-.234-17.43a339.603 339.603 0 00-.13-6.624c-.54-19.097-.54-19.097 5.394-26.01 2.02-2.043 4.135-3.91 6.354-5.732 2.54-2.234 4.538-4.82 6.646-7.462l2.133-2.633c1.317-1.695 2.551-3.456 3.742-5.242h2l.875-1.813C225 301 225 301 227 298h2l.875-1.813C231 294 231 294 233 291h2l.75-1.672c1.492-2.78 3.287-5.11 5.25-7.578l2.125-2.703L245 277h2l.746-1.715c1.47-2.677 3.232-4.615 5.316-6.848 5.698-6.217 11.029-12.703 16.211-19.355l2.164-2.77c.639-.828 1.277-1.657 1.934-2.511L275 242h2l.75-1.672c1.492-2.78 3.287-5.11 5.25-7.578l2.125-2.703L287 228h2l.746-1.715c1.47-2.677 3.232-4.615 5.317-6.847A226.802 226.802 0 00304.5 208.5c3.61-4.463 7.384-8.727 11.25-12.969 2.329-2.62 4.546-5.306 6.75-8.031 3.61-4.463 7.384-8.727 11.25-12.969 2.329-2.62 4.546-5.306 6.75-8.031 3.61-4.463 7.384-8.727 11.25-12.969 2.329-2.62 4.546-5.306 6.75-8.031 3.61-4.463 7.384-8.727 11.25-12.969 2.329-2.62 4.546-5.306 6.75-8.031a234.263 234.263 0 019-10.5c5.822-6.394 11.357-13.045 16.5-20z" fill="#195B34"/><path d="M887 267c3.44 1.633 5.881 3.531 8.688 6.125 3.565 3.37 3.565 3.37 7.526 6.23 4.318 2.961 6.477 5.247 7.627 10.447.447 4.96.365 9.923.309 14.898.01 1.934.026 3.868.044 5.803.04 5.31.023 10.62-.003 15.93-.018 5.729.015 11.457.042 17.186.044 11.221.039 22.442.016 33.664-.017 9.12-.018 18.24-.006 27.36l.005 3.932.01 7.909c.03 24.02.01 48.041-.033 72.062-.039 21.92-.028 43.84.024 65.76a21750.033 21750.033 0 01.05 81.783l-.004 3.917c-.006 9.108.011 18.216.037 27.324.032 11.102.028 22.203-.021 33.305-.025 5.664-.033 11.327.002 16.992.032 5.187.017 10.372-.034 15.559-.01 1.874-.004 3.75.02 5.624.173 13.972.173 13.972-3.456 19.439-2.489 2.527-4.997 4.641-7.843 6.751-1.469 1.3-2.93 2.611-4.375 3.938-2.465 2.134-5 4.126-7.625 6.062-1.78-1.78-1.13-4.17-1.142-6.541l.003-2.438-.008-2.577c-.009-2.886-.01-5.773-.011-8.66l-.015-6.227c-.014-5.733-.021-11.465-.028-17.198-.008-6.171-.021-12.342-.034-18.514-.022-10.701-.04-21.403-.056-32.104-.016-11.228-.035-22.456-.056-33.683l-.004-2.113-.02-10.623c-.048-25.1-.091-50.201-.132-75.302-.039-24.39-.08-48.78-.125-73.17l-.004-2.277a2315002.254 2315002.254 0 00-.124-68.752l-.004-2.142A882929.2 882929.2 0 01886 271l-26 26c0-3 0-3 2.479-5.82a368.262 368.262 0 013.427-3.38l1.816-1.802c1.92-1.903 3.848-3.794 5.778-5.685l3.902-3.862c3.192-3.158 6.392-6.307 9.598-9.451z" fill="#074211"/><path d="M751 600v113h-1l-1-86-20.5 20.535-12.879 12.893a50473.38 50473.38 0 00-20.43 20.456c-4.958 4.968-9.918 9.935-14.88 14.9-2.625 2.626-5.25 5.253-7.872 7.882-2.934 2.942-5.872 5.88-8.81 8.819l-2.605 2.615c-4.219 4.212-8.512 8.243-13.03 12.131-3.807 3.377-7.36 7.014-10.945 10.623l-2.595 2.599c-2.326 2.33-4.65 4.664-6.973 6.998-2.446 2.456-4.895 4.908-7.344 7.361A34941.678 34941.678 0 00601.5 773.5c-6.707 6.73-13.416 13.458-20.129 20.182-2.43 2.435-4.86 4.87-7.287 7.31a8457.82 8457.82 0 01-8.133 8.154l-2.396 2.413a231.166 231.166 0 01-12.626 11.729c-3.3 2.929-6.349 6.093-9.417 9.261l-4.365 4.472-2.304 2.366c-4.959 5.082-9.949 10.132-14.932 15.19-4.345 4.413-8.68 8.836-12.994 13.28-35.841 36.9-35.841 36.9-56.516 46.049-3.46 1.577-6.63 3.48-9.881 5.453l-2.956 1.75a3415.27 3415.27 0 00-5.726 3.422c-4.521 2.673-8.71 5.125-13.838 6.469 4.398-5.26 9.026-10.169 13.88-15.008l2.35-2.354c2.586-2.59 5.176-5.177 7.766-7.763l5.579-5.585c4.52-4.524 9.042-9.045 13.565-13.566a34254.735 34254.735 0 0015.816-15.815c9.977-9.98 19.958-19.958 29.94-29.934 8.553-8.549 17.104-17.1 25.653-25.655a99558.99 99558.99 0 0133.011-33.014l1.583-1.582 11.007-11.01c4.475-4.478 8.952-8.955 13.431-13.428 2.283-2.28 4.565-4.562 6.845-6.844 2.477-2.48 4.958-4.958 7.44-7.434l2.156-2.164a230.97 230.97 0 0112.126-11.217c2.653-2.33 5.13-4.788 7.622-7.29l1.588-1.59c1.728-1.73 3.452-3.465 5.177-5.2l3.747-3.757c2.676-2.682 5.35-5.365 8.023-8.05 4.223-4.242 8.452-8.48 12.68-12.717a60385.456 60385.456 0 0036.043-36.147 25329.8 25329.8 0 0119.942-19.994c4.208-4.214 8.412-8.434 12.613-12.657 2.605-2.616 5.214-5.229 7.824-7.84a1764.1 1764.1 0 003.636-3.653 1510.18 1510.18 0 014.949-4.958l2.8-2.81C749 600 749 600 751 600z" fill="#185C34"/><path d="M863.761 803.608l2.062.062c2.394.081 4.784.205 7.177.33l5.706.246c6.706.3 13.408.665 20.11 1.031l7.415.397c5.148.275 10.295.554 15.443.835 6.59.359 13.18.711 19.771 1.062 5.09.271 10.18.546 15.27.821 2.43.131 4.861.262 7.292.391 3.39.181 6.78.366 10.171.553l3.021.159c4.989.278 9.868.704 14.801 1.505.33 16.571.576 33.141.725 49.715.072 7.7.169 15.398.331 23.097 1.37 66.308 1.37 66.308-15.056 96.188h-1V839c-9.823-.769-9.823-.769-19.65-1.424l-3.471-.208-3.656-.216-3.966-.237-10.634-.632c-3.72-.22-7.441-.443-11.162-.664-7.026-.42-14.052-.837-21.079-1.254-8.007-.476-16.014-.952-24.022-1.43-16.453-.98-32.907-1.958-49.36-2.935v-2c1.39-1.203 2.84-2.336 4.312-3.438 5.114-3.975 9.557-8.304 14.047-12.949 8.37-8.282 8.37-8.282 15.402-8.005z" fill="#0F5C7F"/><path d="M198 334c9.12 1.303 18.138 2.684 27.18 4.383l3.572.664c3.708.69 7.416 1.384 11.123 2.078l7.613 1.418c6.171 1.15 12.342 2.302 18.512 3.457.05 1.604.087 3.208.117 4.813l.066 2.707c-.278 3.767-1.938 5.366-4.62 7.917l-2.786 2.786L256 367a250.65 250.65 0 00-4.375 5.375c-3.867 4.796-7.974 9.294-12.18 13.786-3.924 4.213-7.564 8.603-11.168 13.093-2.495 3.01-5.115 5.885-7.777 8.746-4.339 4.664-8.42 9.482-12.422 14.441-5.866 7.222-5.866 7.222-9.078 10.559h-1v-99z" fill="#084010"/><path d="M991 812h1c.331 16.44.576 32.88.725 49.324.072 7.64.169 15.277.331 22.916 1.37 65.778 1.37 65.778-15.056 95.76h-1V839h-6v-1h7l.837-2.182c1.125-2.727 2.389-5.292 3.765-7.9l1.484-2.822 1.539-2.908 1.562-2.967c1.27-2.408 2.54-4.815 3.813-7.221z" fill="#074212"/><path d="M353.911 775.796c2.276.222 4.541.336 6.826.43 4.8.202 9.593.482 14.388.774l4.957.29c3.973.23 7.946.468 11.918.71l-1.086 1.43-1.512 2-1.68 2.214a89.897 89.897 0 00-3.182 4.642c-4.078 6.322-8.594 11.54-15.54 14.714-9.976 1.647-20.202.075-30.172-1.069-11.205-1.27-22.45-1.783-33.708-2.368-5.707-.302-11.411-.64-17.116-.977A57452.96 57452.96 0 00278 798l-1-2c7.632-2.64 15.273-5.25 22.928-7.823 3.556-1.196 7.108-2.402 10.652-3.632 29.44-10.2 29.44-10.2 43.331-8.75z" fill="#0B551E"/><path d="M657 206c-3.821 5.509-8.082 10.217-12.878 14.909-3.93 3.856-7.558 7.9-11.122 12.091-1.988 1.988-5.774 1.415-8.5 1.563l-2.012.13c-1.531.088-3.064.147-4.598.186-2.16.09-4.317.286-6.466.535-14.002 1.25-24.448-4.95-36.486-11.414-2.041-1.063-4.083-2.123-6.127-3.18-4.957-2.57-9.891-5.18-14.811-7.82v-1c14.59-1.472 29.178-2.635 43.813-3.563l3.036-.195C619.562 207.041 638.24 205.91 657 206z" fill="#105C7E"/><path d="M127.375 236.938l2.266.013c1.786.012 3.573.03 5.359.049-4.319 5.998-9.011 11.592-13.86 17.163l-1.53 1.763-1.377 1.575c-1.435 1.694-1.435 1.694-3.233 4.499-8.616 2.089-18.79-1.832-27.164-3.938-1.645-.404-3.29-.808-4.934-1.21-4.3-1.055-8.597-2.124-12.892-3.196-4.396-1.094-8.795-2.175-13.194-3.258A9563.954 9563.954 0 0131 244v-1c4.212-.767 8.336-1.217 12.61-1.465l3.926-.233 4.214-.24a9566.502 9566.502 0 0115.905-.927c6.118-.353 12.236-.712 18.354-1.07 2.115-.124 4.229-.246 6.344-.367 7.553-.438 15.1-.93 22.644-1.503 4.13-.268 8.24-.307 12.378-.257z" fill="#0B481A"/><path d="M127.125 236.938l2.32.013c1.852.012 3.703.03 5.555.049-4.319 5.998-9.011 11.592-13.86 17.163l-1.53 1.763-1.377 1.575c-1.435 1.694-1.435 1.694-3.233 4.499h-7v-24c6.504-.65 12.643-1.137 19.125-1.063z" fill="#125D80"/><path d="M502 85l2 1-11 11c0-3.74.92-4.409 3.375-7.125l1.898-2.133C500 86 500 86 502 85z" fill="#45924B"/></svg>