<svg viewBox="0 0 90 90" fill="none" xmlns="http://www.w3.org/2000/svg"><g clip-path="url(#prefix__clip0_1_3)"><path fill="#fff" d="M5 4h80v81H5z"/><path d="M15.574 12.885c-1.265.72-1.67 2.127-.967 3.48.44.862.458.88 9.774 4.746 3.603 1.494 6.556 2.742 6.556 2.795 0 .053-3.427 1.512-7.61 3.235-4.167 1.74-7.77 3.27-7.999 3.41-.527.334-1.09 1.459-1.09 2.162 0 1.3 1.319 2.619 2.62 2.619.544 0 20.917-8.35 22.412-9.193a2.55 2.55 0 000-4.465c-1.547-.861-21.868-9.194-22.43-9.194-.317 0-.897.176-1.266.405zM45.492 33.943c-.756.387-1.37 1.424-1.37 2.268 0 .879.614 1.88 1.405 2.285.668.334 1.02.352 10.02.352s9.351-.018 10.02-.352c.79-.404 1.406-1.406 1.406-2.285 0-.879-.616-1.88-1.407-2.285-.668-.334-1.002-.352-10.054-.352-8.983.018-9.405.035-10.02.37zM20.232 51.416c-2.689.615-4.658 2.074-5.695 4.272-.51 1.072-.562 1.318-.562 2.935 0 1.53.052 1.88.474 2.76 1.002 2.162 2.057 2.883 7.067 4.834 3.006 1.177 3.392 1.353 4.095 2.039.703.668.862 1.336.51 2.039-1.283 2.478-5.344 2.602-8.262.246-1.617-1.318-1.67-1.353-2.566-1.353-.967-.018-1.6.351-2.25 1.3-.738 1.108-.422 2.426.896 3.639 2.514 2.32 5.977 3.568 9.264 3.34 2.531-.176 4.43-1.002 6.082-2.654 3.024-3.041 3.059-7.313.088-10.284-1.23-1.213-2.215-1.74-6.434-3.427-1.828-.739-3.445-1.477-3.55-1.635-.58-.756-.053-2.057 1.02-2.62 1.529-.79 4.464-.333 5.923.915 1.652 1.406 3.639.984 4.36-.897.245-.668.263-.914.087-1.494-.843-2.795-6.416-4.904-10.547-3.955zM42.188 51.416c-.633.14-1.635.492-2.233.791-3.867 1.898-5.238 6.54-2.988 10.09.896 1.406 1.863 2.021 5.414 3.445 3.867 1.53 4.658 1.916 5.308 2.567.809.808.844 1.67.106 2.601-1.565 1.987-5.748 1.635-8.262-.685-1.459-1.371-3.076-1.442-4.166-.194-1.195 1.354-.826 2.953 1.02 4.483 2.742 2.285 6.662 3.392 10.002 2.83 2.812-.475 5.396-2.373 6.574-4.87.51-1.09.562-1.353.562-2.865 0-1.511-.052-1.775-.544-2.812a8.411 8.411 0 00-2.989-3.428c-.545-.369-2.426-1.23-4.183-1.934-1.74-.685-3.428-1.388-3.745-1.546-1.6-.844-1.072-2.637.967-3.217 1.793-.527 4.043-.053 5.414 1.143 1.53 1.353 3.762.808 4.325-1.055.298-1.02.052-1.846-.844-2.795-2.004-2.127-6.434-3.305-9.739-2.549zM58.816 51.557c-1.406.79-1.336.21-1.336 12.779 0 12.568-.07 11.988 1.336 12.78 1.336.773 2.9.316 3.569-1.055.351-.704.369-1.055.369-5.098V66.62h9.316v4.395c0 4.078.036 4.465.352 5.097.404.791 1.406 1.406 2.285 1.406.879 0 1.88-.615 2.285-1.406.334-.668.352-1.02.352-11.777 0-10.758-.018-11.11-.352-11.777-.404-.791-1.406-1.407-2.285-1.407-.879 0-1.88.616-2.285 1.407-.316.632-.352 1.02-.352 4.746v4.043h-9.316v-4.06c0-3.886-.018-4.097-.387-4.765-.738-1.3-2.25-1.705-3.55-.966z" fill="#000"/><path d="M.964 83.173h0l.001.002a9.388 9.388 0 005.842 5.86s0 0 0 0l1.099.377h74.188l1.098-.377h.001a9.388 9.388 0 005.842-5.86v-.002l.377-1.08V7.906l-.376-1.096v-.001c-.952-2.72-2.967-4.774-5.822-5.849L83.21.958l-.95-.37L45.44.57h0c-10.15-.008-19.458 0-26.275.02-3.409.01-6.195.023-8.152.037-.98.007-1.75.015-2.288.023A50.766 50.766 0 007.9.67 9.346 9.346 0 00.965 6.807s0 0 0 0 0 0 0 0L.588 7.906V82.093l.376 1.08zM81.99 5.1c.641.215 1.262.637 1.768 1.144.507.506.929 1.127 1.144 1.768.098.279.151.69.192 1.583.041.92.07 2.41.09 4.9.04 4.981.044 13.992.044 30.506l.001 8.789c.004 14.201.006 21.346-.12 25.04-.074 2.168-.192 3.226-.417 3.83a1.722 1.722 0 01-.476.716c-.066.06-.139.118-.2.167l-.04.033a2.8 2.8 0 00-.213.187 2.792 2.792 0 00-.22.253c-.049.061-.107.134-.167.2-.172.19-.38.35-.716.476-.604.225-1.662.343-3.83.417-3.694.126-10.838.124-25.04.12a32803.94 32803.94 0 00-17.578 0c-14.201.004-21.346.006-25.04-.12-2.168-.074-3.226-.192-3.83-.417a1.723 1.723 0 01-.716-.476c-.06-.066-.118-.139-.167-.2l-.033-.04a2.775 2.775 0 00-.187-.213 2.764 2.764 0 00-.213-.187l-.04-.033a4.187 4.187 0 01-.2-.167 1.723 1.723 0 01-.476-.716c-.225-.604-.343-1.662-.417-3.83-.126-3.694-.124-10.838-.12-25.04L4.773 45l-.001-8.793c-.004-14.206-.006-21.35.12-25.042.074-2.167.192-3.224.417-3.827.126-.336.288-.543.477-.714.065-.06.138-.118.198-.166l.042-.033c.072-.059.14-.116.212-.187a2.669 2.669 0 00.211-.244c.048-.06.106-.132.166-.198.171-.188.378-.345.713-.468.6-.219 1.656-.334 3.822-.407 3.68-.124 10.794-.125 24.907-.128 2.694 0 5.643 0 8.872-.002 16.558-.009 25.587-.009 30.575.029 2.492.018 3.984.046 4.903.088.894.04 1.303.093 1.582.191z" fill="#000" stroke="#000"/></g><defs><clipPath id="prefix__clip0_1_3"><path fill="#fff" d="M0 0h90v90H0z"/></clipPath></defs></svg>