<svg viewBox="0 0 100 100" fill="none" xmlns="http://www.w3.org/2000/svg"><path d="M41.764 98.59C25.37 98.037 10.725 93.7 4.084 87.446 1.3 84.828 0 82.24 0 79.308c0-2.677 1.047-5.026 3.306-7.39C8.257 66.744 18.16 62.795 30.696 61c2.318-.344 6.895-.838 7.658-.838.254 0 .27-.239.27-4.891 0-4.592.149-11.638.388-18.713.105-3.007.105-3.022.419-2.917.165.075.613.12.987.12.599 0 2.857-1.122 19.746-9.783 14.839-7.6 19.192-9.903 19.625-10.337.763-.778.898-1.66.404-2.648-.493-.957-.987-1.286-2.034-1.346l-.868-.045-18.997 9.768c-10.441 5.385-19.013 9.768-19.028 9.753-.015 0 .06-2.902.195-6.447.12-3.53.24-8.496.284-11.054.045-3.575.105-4.772.27-5.25.732-2.05 2.049-3.426 4.397-4.578C44.412 1.793 46 1 50 1h9.475c12.162 0 13.643.03 15.109.27 7.509 1.21 13.522 4.517 18.429 10.096 2.004 2.274 4.083 5.64 5.13 8.287.494 1.227.554 1.466.315 1.466-.225 0-38.34 19.596-38.653 19.88-1.182 1.047-.853 3.291.583 3.98 1.257.583.494.927 20.613-9.41 10.187-5.235 18.608-9.528 18.698-9.558.285-.045.374 1.765.24 4.562-.27 5.325-1.317 9.783-3.202 13.657-5.145 10.516-16.813 15.498-32.16 13.747l-.748-.09-1.317 1.526c-.733.838-1.301 1.541-1.271 1.556.03.03.583.135 1.241.224 5.52.853 11.967 2.633 16.305 4.503 7.3 3.126 11.847 7.33 12.82 11.862.269 1.272.074 3.59-.404 4.877-3.037 8.003-16.993 14.15-36.02 15.87-1.631.15-9.215.465-9.903.42-.165-.015-1.75-.075-3.516-.135zm13.314-2.887c17.92-1.705 31.084-7.24 33.657-14.136C91.562 74.028 79.789 66.4 61 63.602l-1.93-.284-.912 1.002a109.32 109.32 0 00-1.466 1.615l-.568.614 1.615.269c2.17.344 5.984 1.316 8.093 2.05.957.328 2.573 1.017 3.605 1.51l1.87.927-1.017.045c-.883.045-1.003.075-.943.3.255.867.404 1.57.344 1.615-.03.03-.763-.27-1.615-.673-3.321-1.586-7.465-2.752-12.251-3.455l-1.87-.27-3.216 3.171c-3.53 3.47-5.58 5.251-7.405 6.448-1.45.927-1.974 1.151-2.618 1.092-.389-.03-.553-.15-.762-.569-.539-1.062-.958-4.053-1.137-7.958l-.09-2.243-1.137.09c-1.51.134-4.951.747-6.896 1.21-5.31 1.287-9.918 3.486-12.027 5.775-.987 1.062-1.466 2.02-1.57 3.171l-.09.913-1.017.718c-.554.403-1.077.688-1.152.643-.06-.045-.194-.539-.3-1.092-.508-3.082 1.557-6.343 5.625-8.81 3.755-2.29 10.082-4.234 16.14-4.982.748-.09 1.571-.195 1.84-.24l.48-.074v-1.72c0-1.69 0-1.706-.33-1.646-.194.045-.942.12-1.69.165-4.069.269-9.604 1.181-14.196 2.348-5.73 1.451-10.486 3.41-14.091 5.82C-.568 77.05.942 84.214 12.221 89.72c6.806 3.305 15.976 5.415 27 6.192 2.753.195 13.09.06 15.857-.209zm15.781-66.057c10.456-5.37 19.162-9.903 19.342-10.082.747-.659 1.017-1.84.658-2.798-.36-.927-1.706-1.63-2.723-1.42-.24.044-9.065 4.502-19.61 9.917-15.707 8.063-19.237 9.932-19.551 10.336-.285.374-.404.733-.45 1.347-.06.987.27 1.63 1.168 2.243.433.3.658.344 1.346.285.733-.06 2.857-1.107 19.82-9.828z" fill="#fff"/><path d="M40.493 92.607c-10.321-.793-19.446-3.785-23.17-7.6l-.749-.762 1.047.314c1.93.553 1.825.568 1.885-.224l.045-.688.957.673c10.112 7.045 34.869 7.868 47.793 1.585 5.714-2.767 7.6-6.208 5.176-9.394l-.584-.778.838-.972.838-.957.658.778c.359.418.912 1.271 1.212 1.87.538 1.091.553 1.151.553 2.856 0 1.72 0 1.75-.583 2.902-2.454 4.982-10.86 8.766-22.453 10.113-3.097.374-10.426.523-13.463.284z" fill="#fff"/><path d="M16.514 83.452c-1.72-.494-2.094-.643-1.944-.793.104-.105 1.077-.808 2.139-1.556l1.945-1.36.044 1.136c.03.628.03 1.586 0 2.154l-.044 1.017-2.14-.598zM70.814 74.342c-.27-1.092-.479-2.034-.479-2.094 0-.135 1.796-.12 3.426.015l1.092.09-1.735 1.99c-.958 1.076-1.765 1.974-1.78 1.974-.03 0-.255-.898-.524-1.975z" fill="#fff"/></svg>